SplineFontDB: 3.0
FontName: CathismaUnicode
FullName: Cathisma Unicode
FamilyName: Cathisma Unicode
Weight: Normal
Copyright: Copyright 2019 Aleksandr Andreev (Slavonic Computing Initiative). Licensed under the SIL OFL. Based on Kathisma UCS Copyright (c) Vladislav V. Dorosh, Calmius Software, 2007-2008. All rights reserved. Licensed as part of CSL TeX under the terms of the LaTeX Project Public License available from CTAN archives in macros/latex/base/lppl.txt. Converted to OpenType and Unicode by Aleksandr Andreev.
Version: 2008.001
ItalicAngle: 0
UnderlinePosition: -60
UnderlineWidth: 10
Ascent: 800
Descent: 200
InvalidEm: 0
LayerCount: 2
Layer: 0 0 "Back" 1
Layer: 1 0 "Fore" 0
UniqueID: 4777062
FSType: 0
OS2Version: 0
OS2_WeightWidthSlopeOnly: 0
OS2_UseTypoMetrics: 0
CreationTime: 1291789194
ModificationTime: 1556876257
PfmFamily: 17
TTFWeight: 400
TTFWidth: 5
LineGap: 90
VLineGap: 0
OS2TypoAscent: 0
OS2TypoAOffset: 1
OS2TypoDescent: 0
OS2TypoDOffset: 1
OS2TypoLinegap: 90
OS2WinAscent: 0
OS2WinAOffset: 1
OS2WinDescent: 0
OS2WinDOffset: 1
HheadAscent: 0
HheadAOffset: 1
HheadDescent: 0
HheadDOffset: 1
OS2Vendor: 'PfEd'
Lookup: 4 0 0 "'ccmp' Glyph Composition/Decomposition in Cyrillic" { "'ccmp' Glyph Composition/Decomposition in Cyrillic-1"  } ['ccmp' ('DFLT' <'dflt' > 'cyrl' <'dflt' > ) ]
Lookup: 4 0 0 "'ccmp' Glyph Composition/Decomposition in Cyrillic Round 2" { "'ccmp' Glyph Composition/Decomposition in Cyrillic Round 2-1"  } ['ccmp' ('DFLT' <'dflt' > 'cyrl' <'dflt' > ) ]
Lookup: 260 0 0 "'mark' Mark Positioning in Cyrillic" { "'mark' Mark Positioning in Cyrillic-1"  } ['mark' ('DFLT' <'dflt' > 'cyrl' <'dflt' > ) ]
Lookup: 262 0 0 "'mkmk' Mark to Mark in Cyrillic" { "'mkmk' Mark to Mark in Cyrillic-1"  } ['mkmk' ('DFLT' <'dflt' > 'cyrl' <'dflt' > ) ]
MarkAttachClasses: 1
DEI: 91125

StartChar: .notdef
Encoding: 1114112 -1 0
Width: 360
HStem: 0 20<86 274> 780 20<86 273>
VStem: 50 20<40 762> 290 20<40 762>
LayerCount: 2
Fore
SplineSet
310 0 m 1
 50 0 l 1
 50 800 l 1
 310 800 l 1
 310 0 l 1
190 401 m 1
 290 40 l 1
 290 762 l 1
 190 401 l 1
169 401 m 1
 70 762 l 1
 70 40 l 1
 169 401 l 1
180 362 m 1
 86 20 l 1
 274 20 l 1
 180 362 l 1
86 780 m 1
 180 440 l 1
 273 780 l 1
 86 780 l 1
EndSplineSet
Validated: 1
EndChar

StartChar: exclam
Encoding: 33 33 2
Width: 129
Flags: W
HStem: 0 21G<52.5 72> 792 20G<55.5 68.5>
VStem: 29 66<4.06589 130.924 624.417 810.756> 53 18<198 381.217>
LayerCount: 2
Fore
SplineSet
95 67 m 0xe0
 95 30 82 0 62 0 c 0
 43 0 29 30 29 67 c 0
 29 105 43 135 62 135 c 0
 82 135 95 105 95 67 c 0xe0
53 198 m 1xd0
 30 800 l 1
 37 807 49 812 62 812 c 0
 75 812 90 807 94 800 c 1
 71 198 l 1
 53 198 l 1xd0
EndSplineSet
Validated: 1
EndChar

StartChar: quotedbl
Encoding: 34 34 3
Width: 222
Flags: W
HStem: 576 224
VStem: 20 36<576 599.015> 70 52<769.985 800> 100 36<576 599.015> 150 52<769.985 800>
LayerCount: 2
Fore
SplineSet
202 793 m 1xd8
 136 576 l 1
 100 576 l 1
 100 583 l 1
 150 800 l 1
 202 800 l 1
 202 793 l 1xd8
122 793 m 1xe8
 56 576 l 1
 20 576 l 1
 20 583 l 1
 70 800 l 1
 122 800 l 1
 122 793 l 1xe8
EndSplineSet
Validated: 1
EndChar

StartChar: uni0486
Encoding: 1158 1158 4
Width: 1
Flags: W
HStem: 913 31<-158.735 -106.505>
VStem: -186 24<857.768 907.884> -103 22<860.319 907.989>
AnchorPoint: "Stack" -135 1001 basemark 0
AnchorPoint: "Stack" -135 842 mark 0
AnchorPoint: "Diacritic" -134 842 mark 0
LayerCount: 2
Fore
SplineSet
-116 852 m 1
 -108 859 -103 869 -103 880 c 0
 -103 902 -113 913 -132 913 c 0
 -153 913 -162 900 -162 880 c 0
 -162 867 -153 855 -152 850 c 1
 -159 844 l 1
 -174 853 -186 871 -186 894 c 0
 -186 918 -167 944 -135 944 c 0
 -97 944 -81 919 -81 892 c 0
 -81 870 -93 856 -107 846 c 1
 -116 852 l 1
EndSplineSet
Validated: 1
EndChar

StartChar: uniE002
Encoding: 57346 57346 5
Width: 1
GlyphClass: 4
Flags: W
HStem: 911 33<-182.638 -138.506>
VStem: -209 23<853.972 905.708> -135 22<853.907 905.096> -100 20<841 876.955> -79 21<922 960>
AnchorPoint: "Stack" -136 1025 basemark 0
AnchorPoint: "Stack" -136 837 mark 0
AnchorPoint: "Diacritic" -134 838 mark 0
LayerCount: 2
Fore
SplineSet
-143 847 m 1
 -136 854 -135 868 -135 880 c 0
 -135 893 -143 911 -161 911 c 0
 -178 911 -186 893 -186 879 c 0
 -186 866 -179 851 -176 845 c 1
 -186 841 l 1
 -197 849 -209 870 -209 890 c 0
 -209 915 -192 944 -163 944 c 0
 -127 944 -113 916 -113 890 c 0
 -113 868 -123 853 -134 841 c 1
 -143 847 l 1
-80 841 m 1
 -100 841 l 1
 -100 846 l 1
 -79 960 l 1
 -58 960 l 1
 -58 954 l 1
 -80 841 l 1
EndSplineSet
Validated: 1
LCarets2: 1 0
Ligature2: "'ccmp' Glyph Composition/Decomposition in Cyrillic-1" uni0486 acutecomb
EndChar

StartChar: uniE004
Encoding: 57348 57348 6
Width: 1
GlyphClass: 4
Flags: W
HStem: 911 33<-182.638 -138.506>
VStem: -209 23<853.972 905.708> -135 22<853.907 905.096> -105 21<937.833 960> -68 20<841 862.378>
AnchorPoint: "Stack" -118 1022 basemark 0
AnchorPoint: "Stack" -118 840 mark 0
AnchorPoint: "Diacritic" -121 839 mark 0
LayerCount: 2
Fore
SplineSet
-48 841 m 1
 -68 841 l 1
 -105 954 l 1
 -105 960 l 1
 -84 960 l 1
 -48 846 l 1
 -48 841 l 1
-113 890 m 0
 -113 868 -123 853 -134 841 c 1
 -143 847 l 1
 -136 854 -135 868 -135 880 c 0
 -135 893 -143 911 -161 911 c 0
 -178 911 -186 893 -186 879 c 0
 -186 866 -179 851 -176 845 c 1
 -186 841 l 1
 -197 849 -209 870 -209 890 c 0
 -209 915 -192 944 -163 944 c 0
 -127 944 -113 916 -113 890 c 0
EndSplineSet
Validated: 1
LCarets2: 1 0
Ligature2: "'ccmp' Glyph Composition/Decomposition in Cyrillic-1" uni0486 gravecomb
EndChar

StartChar: uni0483
Encoding: 1155 1155 7
Width: 1
Flags: W
HStem: 849 97
VStem: -240 65<849 899> -114 65<896 946>
AnchorPoint: "Stack" -139 991 basemark 0
AnchorPoint: "Stack" -139 847 mark 0
AnchorPoint: "Diacritic" -139 847 mark 0
LayerCount: 2
Fore
SplineSet
-29 878 m 1
 -31 868 l 1
 -175 899 l 1
 -175 849 l 1
 -240 849 l 1
 -240 913 l 1
 -261 918 l 1
 -259 928 l 1
 -114 896 l 1
 -114 946 l 1
 -49 946 l 1
 -49 882 l 1
 -29 878 l 1
EndSplineSet
Validated: 1
EndChar

StartChar: quotesingle
Encoding: 39 39 8
Width: 132
Flags: W
HStem: 576 224
VStem: 20 26<576 599.015> 70 42<769.985 800>
LayerCount: 2
Fore
SplineSet
112 793 m 1
 46 576 l 1
 20 576 l 1
 20 583 l 1
 70 800 l 1
 112 800 l 1
 112 793 l 1
EndSplineSet
Validated: 1
EndChar

StartChar: parenleft
Encoding: 40 40 9
Width: 175
Flags: W
HStem: -42 10<116.873 169> 832 10<116.873 169>
VStem: 45 65<-12.6489 812.649>
LayerCount: 2
Fore
SplineSet
132 832 m 2
 122 832 110 828 110 817 c 2
 110 -17 l 2
 110 -28 122 -32 132 -32 c 2
 169 -32 l 1
 169 -42 l 1
 132 -42 l 2
 85 -42 45 -4 45 43 c 2
 45 757 l 2
 45 804 85 842 132 842 c 2
 169 842 l 1
 169 832 l 1
 132 832 l 2
EndSplineSet
Validated: 1
EndChar

StartChar: parenright
Encoding: 41 41 10
Width: 175
Flags: W
HStem: -42 10<6 58.1275> 832 10<6 58.1275>
VStem: 65 65<-12.6489 813.055>
LayerCount: 2
Fore
SplineSet
130 43 m 2
 130 -4 90 -42 43 -42 c 2
 6 -42 l 1
 6 -32 l 1
 43 -32 l 2
 53 -32 65 -28 65 -17 c 2
 65 817 l 2
 65 828 53 832 43 832 c 2
 6 832 l 1
 6 842 l 1
 43 842 l 2
 90 842 130 805 130 757 c 2
 130 43 l 2
EndSplineSet
Validated: 1
EndChar

StartChar: asterisk
Encoding: 42 42 11
Width: 249
Flags: W
HStem: 590 222
VStem: 13 222
LayerCount: 2
Fore
SplineSet
235 702 m 1
 175 680 l 1
 204 622 l 1
 146 650 l 1
 124 590 l 1
 103 650 l 1
 46 622 l 1
 73 680 l 1
 13 702 l 1
 72 723 l 1
 45 780 l 1
 103 752 l 1
 124 812 l 1
 146 752 l 1
 204 780 l 1
 175 723 l 1
 235 702 l 1
206 702 m 1
 162 717 l 1
 183 760 l 1
 140 740 l 1
 124 783 l 1
 108 739 l 1
 66 759 l 1
 86 717 l 1
 43 702 l 1
 87 685 l 1
 66 643 l 1
 108 663 l 1
 124 620 l 1
 140 663 l 1
 183 643 l 1
 162 685 l 1
 206 702 l 1
EndSplineSet
Validated: 1
EndChar

StartChar: uni2DE1
Encoding: 11745 11745 12
Width: 1
Flags: W
HStem: 840 12<-180.46 -170.532 -137 -121 -87.3194 -70.6895> 921 12<-178.797 -167 -136 -125 -95 -84.5396>
VStem: -172 35<852 921> -121 29<852.286 877.577 878.752 921>
AnchorPoint: "Stack" -130 992 basemark 0
AnchorPoint: "Stack" -130 838 mark 0
AnchorPoint: "Diacritic" -129 838 mark 0
LayerCount: 2
Fore
SplineSet
-74 840 m 2
 -176 840 l 2
 -182 840 -182 852 -176 852 c 2
 -172 852 l 1
 -167 866 -167 903 -167 921 c 1
 -174 921 l 2
 -180 921 -181 933 -174 933 c 2
 -89 933 l 2
 -83 933 -83 921 -89 921 c 2
 -95 921 l 1
 -95 913 -95 897 -92 882 c 0
 -91 870 -87 858 -86 852 c 1
 -74 852 l 2
 -70 852 -69 840 -74 840 c 2
-121 852 m 1
 -122 858 -124 869 -124 878 c 0
 -124 894 -125 913 -125 921 c 1
 -136 921 l 1
 -136 913 -136 896 -137 882 c 0
 -137 873 -137 857 -137 852 c 1
 -121 852 l 1
EndSplineSet
Validated: 1
EndChar

StartChar: comma
Encoding: 44 44 13
Width: 129
Flags: W
HStem: -120 239
VStem: 8 88<23.1541 107.416>
LayerCount: 2
Fore
SplineSet
8 69 m 0
 8 91 20 119 42 119 c 0
 84 119 96 80 96 45 c 0
 96 -23 62 -78 17 -120 c 0
 13 -120 11 -117 9 -114 c 0
 45 -75 48 -55 51 -13 c 1
 36 21 8 36 8 69 c 0
EndSplineSet
Validated: 1
EndChar

StartChar: hyphen
Encoding: 45 45 14
Width: 215
Flags: W
HStem: 380 40<25 190>
VStem: 25 165<380 420>
LayerCount: 2
Fore
SplineSet
190 380 m 1
 25 380 l 1
 25 420 l 1
 190 420 l 1
 190 380 l 1
EndSplineSet
Validated: 1
EndChar

StartChar: period
Encoding: 46 46 15
Width: 129
Flags: W
HStem: -12 178<32.5144 91.4856>
VStem: 18 88<-0.175243 154.175>
LayerCount: 2
Fore
SplineSet
18 77 m 0
 18 126 36 166 62 166 c 0
 88 166 106 126 106 77 c 0
 106 28 88 -12 62 -12 c 0
 36 -12 18 28 18 77 c 0
EndSplineSet
Validated: 1
EndChar

StartChar: slash
Encoding: 47 47 16
Width: 266
Flags: W
VStem: 27 212
LayerCount: 2
Fore
SplineSet
239 850 m 1
 76 -50 l 1
 27 -50 l 1
 190 850 l 1
 239 850 l 1
EndSplineSet
Validated: 1
EndChar

StartChar: acutecomb
Encoding: 769 769 17
Width: 1
Flags: W
HStem: 838 114
VStem: -148 75
AnchorPoint: "Stack" -130 998 basemark 0
AnchorPoint: "Stack" -130 836 mark 0
AnchorPoint: "Diacritic" -130 837 mark 0
LayerCount: 2
Fore
SplineSet
-73 944 m 1
 -131 838 l 1
 -148 846 l 1
 -90 952 l 1
 -73 944 l 1
EndSplineSet
Validated: 1
EndChar

StartChar: gravecomb
Encoding: 768 768 18
Width: 1
Flags: W
HStem: 859 71
VStem: -194 125
AnchorPoint: "Stack" -138 858 mark 0
AnchorPoint: "Stack" -138 966 basemark 0
AnchorPoint: "Diacritic" -138 858 mark 0
LayerCount: 2
Fore
SplineSet
-194 930 m 1
 -69 880 l 1
 -69 859 l 1
 -194 909 l 1
 -194 930 l 1
EndSplineSet
Validated: 1
EndChar

StartChar: uniE000
Encoding: 57344 57344 19
Width: 1
GlyphClass: 4
Flags: W
HStem: 913 31<-158.735 -106.505>
VStem: -186 24<857.768 907.884> -103 22<860.319 907.989>
AnchorPoint: "Stack" -137 976 basemark 0
AnchorPoint: "Stack" -134 838 mark 0
AnchorPoint: "Diacritic" -134 838 mark 0
LayerCount: 2
Fore
SplineSet
-116 852 m 1
 -108 859 -103 869 -103 880 c 0
 -103 902 -113 913 -132 913 c 0
 -153 913 -162 900 -162 880 c 0
 -162 867 -153 855 -152 850 c 1
 -159 844 l 1
 -174 853 -186 871 -186 894 c 0
 -186 918 -167 944 -135 944 c 0
 -97 944 -81 919 -81 892 c 0
 -81 870 -93 856 -107 846 c 1
 -116 852 l 1
EndSplineSet
Validated: 1
EndChar

StartChar: uni0311
Encoding: 785 785 20
Width: 1
Flags: W
HStem: 900 19<-163.286 -108.714>
VStem: -201 19<839 880.793> -90 19<839 880.793>
AnchorPoint: "Stack" -138 974 basemark 0
AnchorPoint: "Stack" -138 839 mark 0
AnchorPoint: "Diacritic" -138 839 mark 0
LayerCount: 2
Fore
SplineSet
-71 854 m 2
 -71 839 l 1
 -90 839 l 1
 -90 854 l 2
 -90 879 -111 900 -136 900 c 0
 -161 900 -182 879 -182 854 c 2
 -182 839 l 1
 -201 839 l 1
 -201 854 l 2
 -201 890 -173 919 -136 919 c 0
 -99 919 -71 890 -71 854 c 2
EndSplineSet
Validated: 1
EndChar

StartChar: uni033E
Encoding: 830 830 21
Width: 1
Flags: W
HStem: 843 128
VStem: -126 83
AnchorPoint: "Yerik" -120 839 mark 0
AnchorPoint: "Stack" -119 1018 basemark 0
AnchorPoint: "Stack" -119 839 mark 0
LayerCount: 2
Fore
SplineSet
-53 878 m 1
 -120 843 l 1
 -126 854 l 1
 -93 870 l 1
 -113 938 l 1
 -49 971 l 1
 -43 960 l 1
 -72 944 l 1
 -53 878 l 1
EndSplineSet
Validated: 1
EndChar

StartChar: colon
Encoding: 58 58 22
Width: 129
Flags: W
HStem: 88 178<32.5144 91.4856> 468 178<32.5144 91.4856>
VStem: 18 88<99.8248 254.175 479.825 634.175>
LayerCount: 2
Fore
SplineSet
18 177 m 0
 18 226 36 266 62 266 c 0
 88 266 106 226 106 177 c 0
 106 128 88 88 62 88 c 0
 36 88 18 128 18 177 c 0
18 557 m 0
 18 606 36 646 62 646 c 0
 88 646 106 606 106 557 c 0
 106 508 88 468 62 468 c 0
 36 468 18 508 18 557 c 0
EndSplineSet
Validated: 1
EndChar

StartChar: semicolon
Encoding: 59 59 23
Width: 129
Flags: W
HStem: 418 178<32.5144 91.4856>
VStem: 18 88<113.154 197.416 429.825 584.175>
LayerCount: 2
Fore
SplineSet
18 159 m 0
 18 181 30 209 52 209 c 0
 94 209 106 170 106 135 c 0
 106 67 72 12 27 -30 c 0
 23 -30 21 -27 19 -24 c 0
 55 15 58 35 61 77 c 1
 46 111 18 126 18 159 c 0
18 507 m 0
 18 556 36 596 62 596 c 0
 88 596 106 556 106 507 c 0
 106 458 88 418 62 418 c 0
 36 418 18 458 18 507 c 0
EndSplineSet
Validated: 1
EndChar

StartChar: uni2DEF
Encoding: 11759 11759 24
Width: 1
Flags: W
HStem: 962 15<-270 -226.788>
VStem: -317 47<909.382 961.063>
AnchorPoint: "Stack" -158 1050 basemark 0
AnchorPoint: "Stack" -158 852 mark 0
AnchorPoint: "Diacritic" -156 851 mark 0
LayerCount: 2
Fore
SplineSet
-117 863 m 0
 -130 877 -141 889 -157 901 c 1
 -180 884 -203 865 -218 853 c 1
 -243 853 l 1
 -245 854 -245 858 -244 858 c 0
 -220 876 -198 892 -171 911 c 1
 -190 927 -214 947 -232 958 c 1
 -240 958 -259 961 -266 962 c 0
 -268 962 -270 961 -270 959 c 0
 -270 956 -270 953 -270 950 c 0
 -270 935 -273 917 -278 909 c 1
 -289 906 -305 904 -316 904 c 0
 -317 904 -317 906 -317 907 c 0
 -309 927 -302 954 -294 974 c 0
 -293 976 -289 978 -285 978 c 0
 -275 977 -265 977 -254 977 c 0
 -230 977 -205 978 -182 979 c 0
 -180 979 -177 978 -176 978 c 0
 -160 964 -147 953 -132 939 c 1
 -116 952 -100 964 -86 974 c 0
 -69 985 -46 990 -18 992 c 0
 -5 992 25 988 25 983 c 0
 24 982 l 0
 16 975 6 970 1 961 c 0
 -5 951 -7 941 -8 930 c 0
 -8 929 -12 927 -13 929 c 0
 -25 937 -47 949 -61 953 c 0
 -62 954 -68 954 -70 953 c 0
 -83 948 -100 937 -119 926 c 1
 -94 903 -66 879 -39 856 c 0
 -37 855 -37 853 -40 853 c 2
 -97 853 l 1
 -106 854 -112 858 -117 863 c 0
EndSplineSet
Validated: 1
EndChar

StartChar: uni2DE9
Encoding: 11753 11753 25
Width: 1
Flags: W
HStem: 840 86<-177 -142 -117 -85> 878 15<-142 -117>
VStem: -177 35<840 878 893 926> -117 32<840 878 893 927>
AnchorPoint: "Stack" -130 979 basemark 0
AnchorPoint: "Stack" -130 841 mark 0
AnchorPoint: "Diacritic" -130 838 mark 0
LayerCount: 2
Fore
SplineSet
-177 926 m 1xb0
 -142 926 l 1xb0
 -142 893 l 1
 -117 893 l 1x70
 -117 927 l 1
 -85 927 l 1
 -85 840 l 1
 -117 840 l 1xb0
 -117 878 l 1
 -142 878 l 1x70
 -142 840 l 1
 -177 840 l 1
 -177 926 l 1xb0
EndSplineSet
Validated: 1
EndChar

StartChar: uni2DEC
Encoding: 11756 11756 26
Width: 1
Flags: W
HStem: 875 12<-188.694 -163.852> 920 13<-190.105 -163.253>
VStem: -228 33<846.678 882 887.114 919.715> -159 32<887.39 919.876>
AnchorPoint: "Stack" -179 998 basemark 0
AnchorPoint: "Stack" -179 840 mark 0
AnchorPoint: "Diacritic" -179 839 mark 0
LayerCount: 2
Fore
SplineSet
-231 838 m 1
 -229 843 -228 847 -228 857 c 0
 -228 872 -228 888 -228 899 c 0
 -228 914 -202 933 -177 933 c 0
 -153 933 -127 917 -127 900 c 0
 -127 884 -141 875 -168 875 c 0
 -174 875 -190 877 -195 882 c 1
 -195 852 l 2
 -195 843 -231 838 -231 838 c 1
-193 903 m 0
 -193 897 -187 887 -177 887 c 0
 -168 887 -159 894 -159 904 c 0
 -159 911 -166 920 -177 920 c 0
 -189 920 -193 912 -193 903 c 0
EndSplineSet
Validated: 1
EndChar

StartChar: uni2DF1
Encoding: 11761 11761 27
Width: 1
Flags: W
HStem: 840 87<-125 -92> 876 17<-142.669 -125>
VStem: -185 36<897.287 926> -125 33<840 840 893 927>
AnchorPoint: "Stack" -139 986 basemark 0
AnchorPoint: "Stack" -139 838 mark 0
AnchorPoint: "Diacritic" -136 838 mark 0
LayerCount: 2
Fore
SplineSet
-185 926 m 1x70
 -149 926 l 1
 -151 917 -149 903 -143 897 c 0
 -136 891 -125 893 -125 893 c 1x70
 -125 927 l 1
 -92 927 l 1
 -92 840 l 1
 -125 840 l 1xb0
 -125 876 l 1
 -125 876 -136 875 -154 882 c 0
 -170 888 -185 899 -185 926 c 1x70
EndSplineSet
Validated: 1
EndChar

StartChar: uni2DED
Encoding: 11757 11757 28
Width: 1
Flags: W
HStem: 837 20<-137 -115.075> 913 17<-134.729 -111>
VStem: -171 32<857 912.41>
AnchorPoint: "Stack" -140 991 basemark 0
AnchorPoint: "Stack" -140 833 mark 0
AnchorPoint: "Diacritic" -138 832 mark 0
LayerCount: 2
Fore
SplineSet
-164 837 m 0
 -167 837 -167 839 -167 842 c 0
 -167 846 -167 852 -167 857 c 0
 -167 871 -171 882 -171 896 c 0
 -171 919 -145 929 -128 930 c 0
 -123 931 -112 929 -111 929 c 1
 -111 926 -111 917 -111 912 c 1
 -113 912 -116 913 -118 913 c 0
 -134 913 -139 903 -139 888 c 0
 -139 876 -137 866 -137 857 c 1
 -127 856 -122 858 -114 864 c 0
 -111 865 -108 854 -109 854 c 0
 -117 838 -141 837 -164 837 c 0
EndSplineSet
Validated: 1
EndChar

StartChar: uni0400
Encoding: 1024 1024 29
Width: 245
Flags: W
HStem: -12 10<78.8018 113.171> 345 10<115 145 214 240> 494 25<121.997 170.5> 585 10<115 145 210 240> 803 9<106.365 137.97>
VStem: 30 43<14.9126 87.0227> 35 65<42.9051 131.969 206.752 460 480 782.649> 145 67<121.732 345 435 492.974 595 779.501>
AnchorPoint: "Yerik" 122 938 basechar 0
AnchorPoint: "Diacritic" 122 938 basechar 0
LayerCount: 2
Fore
SplineSet
107 491 m 1xfb
 122 512 141 519 160 519 c 0
 181 519 212 505 212 458 c 2
 212 435 l 1
 145 435 l 1
 145 474 l 2
 145 485 142 494 131 494 c 0
 124 494 115 484 110 476 c 2
 100 460 l 1
 100 260 l 2xfb
 100 198 115 154 136 115 c 0
 140 107 143 100 145 93 c 1
 145 345 l 1
 115 345 l 1
 115 355 l 1
 240 355 l 1
 240 345 l 1
 214 345 l 1
 213 294 211 196 188 114 c 0
 172 60 142 -12 96 -12 c 0
 59 -12 30 39 30 76 c 0
 30 102 44 138 78 138 c 0
 97 138 103 121 103 106 c 0
 103 91 99 79 88 61 c 0
 80 47 73 34 73 18 c 0xfd
 73 12 74 9 78 3 c 0
 84 0 90 -2 96 -2 c 0
 105 -2 114 2 122 8 c 0
 136 24 141 46 142 55 c 0
 140 73 137 91 127 109 c 0
 104 149 71 178 57 205 c 0
 44 228 35 250 35 287 c 2
 35 727 l 2
 35 774 74 812 122 812 c 0
 169 812 210 774 210 727 c 2
 210 595 l 1
 240 595 l 1
 240 585 l 1
 115 585 l 1
 115 595 l 1
 145 595 l 1
 145 787 l 2
 145 798 134 803 122 803 c 0
 111 803 100 798 100 787 c 2
 100 480 l 1
 107 491 l 1xfb
65 930 m 1
 190 880 l 1
 190 859 l 1
 65 909 l 1
 65 930 l 1
EndSplineSet
Validated: 1
LCarets2: 1 0
Ligature2: "'ccmp' Glyph Composition/Decomposition in Cyrillic-1" afii10022 gravecomb
EndChar

StartChar: uni0472
Encoding: 1138 1138 30
Width: 355
Flags: W
HStem: -12 9<161.365 192.97> 257 10<83 90 155 200 265 272> 803 9<161.365 192.97>
VStem: 9 7<0.75106 6.15258> 29 54<119.708 256.993> 90 65<17.3511 257 267 782.649> 200 65<17.3511 257 267 782.649> 272 54<119.708 256.993> 339 7<0.75106 6.15258>
AnchorPoint: "Yerik" 232 858 basechar 0
AnchorPoint: "Diacritic" 177 858 basechar 0
LayerCount: 2
Fore
SplineSet
346 2 m 0
 347 -1 340 -4 339 -1 c 0
 337 4 330 17 326 28 c 0
 307 77 298 98 286 150 c 0
 277 186 272 236 272 257 c 1
 265 257 l 1
 265 73 l 2
 265 26 224 -12 177 -12 c 0
 129 -12 90 26 90 73 c 2
 90 257 l 1
 83 257 l 1
 82 236 77 186 69 150 c 0
 57 98 48 77 29 28 c 0
 25 17 18 4 16 -1 c 0
 15 -4 8 -1 9 2 c 0
 26 48 29 98 29 152 c 0
 29 188 21 235 17 257 c 0
 16 261 16 264 17 267 c 1
 90 267 l 1
 90 727 l 2
 90 774 129 812 177 812 c 0
 224 812 265 774 265 727 c 2
 265 267 l 1
 338 267 l 1
 339 264 339 261 338 257 c 0
 334 235 326 188 326 152 c 0
 326 98 329 47 346 2 c 0
155 787 m 2
 155 267 l 1
 200 267 l 1
 200 787 l 2
 200 798 189 803 177 803 c 0
 166 803 155 798 155 787 c 2
177 -3 m 0
 189 -3 200 2 200 13 c 2
 200 257 l 1
 155 257 l 1
 155 13 l 2
 155 2 166 -3 177 -3 c 0
EndSplineSet
Validated: 1
EndChar

StartChar: uni0406
Encoding: 1030 1030 31
Width: 135
Flags: W
HStem: 0 10<5 35 100 130> 790 10<5 35 100 130>
VStem: 35 65<10 790>
AnchorPoint: "Yerik" 66 858 basechar 0
AnchorPoint: "Diacritic" 66 858 basechar 0
LayerCount: 2
Fore
SplineSet
130 0 m 1
 5 0 l 1
 5 10 l 1
 35 10 l 1
 35 790 l 1
 5 790 l 1
 5 800 l 1
 130 800 l 1
 130 790 l 1
 100 790 l 1
 100 10 l 1
 130 10 l 1
 130 0 l 1
EndSplineSet
Validated: 1
EndChar

StartChar: uni0476
Encoding: 1142 1142 32
Width: 236
Flags: W
HStem: 0 10<29 60 125 154> 741 65<166.666 224> 790 10<5 32 97 130>
VStem: 32 65<678.571 790> 60 65<10 72.963 172 205> 145 79<741 791.103> 145 7<568.808 678.839>
AnchorPoint: "Yerik" 122 998 basechar 0
AnchorPoint: "Diacritic" 122 998 basechar 0
LayerCount: 2
Fore
SplineSet
29 0 m 1xca
 29 10 l 1
 60 10 l 1xca
 32 790 l 1
 5 790 l 1
 5 800 l 1
 130 800 l 1
 130 790 l 1
 97 790 l 1
 119 172 l 1
 145 715 l 2xb2
 147 763 161 806 198 806 c 2
 224 806 l 1
 224 741 l 1xc4
 194 741 l 2
 175 741 156 721 152 644 c 2
 124 51 l 1
 125 10 l 1
 154 10 l 1
 154 0 l 1
 29 0 l 1xca
187 870 m 1
 187 864 l 1
 146 864 l 1
 100 941 l 1
 100 947 l 1
 141 947 l 1
 187 870 l 1
91 870 m 1
 91 864 l 1
 50 864 l 1
 4 941 l 1
 4 947 l 1
 45 947 l 1
 91 870 l 1
EndSplineSet
Validated: 1
LCarets2: 1 0
Ligature2: "'ccmp' Glyph Composition/Decomposition in Cyrillic-1" uni0474 uni030F
EndChar

StartChar: uni047A
Encoding: 1146 1146 33
Width: 325
Flags: W
HStem: -12 78<131.253 145.625 146.189 177.811 178.376 192.195> -12 9<106.365 137.735 186.181 218.635> 734 78<131.455 144.67 145.234 177.811 178.376 192.545> 803 9<106.365 136.815 187 218.635>
VStem: 35 65<17.3511 782.649> 128 68<-0.668964 63.7004 736.3 799.624> 225 65<17.3511 782.649>
AnchorPoint: "Yerik" 256 858 basechar 0
AnchorPoint: "Diacritic" 161 858 basechar 0
LayerCount: 2
Fore
SplineSet
122 812 m 0x5e
 129 812 138 810 145 808 c 0
 150 810 155 812 162 812 c 0x2e
 168 812 174 810 178 808 c 0
 186 811 195 812 203 812 c 0
 251 812 290 774 290 727 c 2
 290 73 l 2
 290 26 251 -12 203 -12 c 0x5e
 195 -12 186 -11 178 -8 c 0
 174 -10 168 -12 162 -12 c 0x8e
 156 -12 150 -10 146 -8 c 0
 138 -10 130 -12 122 -12 c 0
 74 -12 35 26 35 73 c 2
 35 727 l 2
 35 774 74 812 122 812 c 0x5e
162 66 m 0x8e
 184 66 196 46 196 27 c 0
 196 17 192 6 186 -1 c 1
 191 -2 197 -3 203 -3 c 0
 214 -3 225 2 225 13 c 2
 225 787 l 2
 225 798 214 803 203 803 c 0x5e
 199 803 193 802 187 800 c 1
 193 792 196 782 196 773 c 0
 196 754 184 734 162 734 c 0x2e
 140 734 128 754 128 773 c 0
 128 783 131 794 137 801 c 1
 132 802 127 803 122 803 c 0
 111 803 100 798 100 787 c 2
 100 13 l 2
 100 2 111 -3 122 -3 c 0x5e
 127 -3 132 -2 138 -1 c 1
 131 6 128 17 128 27 c 0
 128 46 139 66 162 66 c 0x8e
EndSplineSet
Validated: 1
EndChar

StartChar: uni0470
Encoding: 1136 1136 34
Width: 355
Flags: W
HStem: 0 10<115 145 210 240> 90 10<104.768 145 210 250.232> 793 10<67.6302 90.2678 115 145 210 240 264.732 287.37>
VStem: 23 41<717.966 786.578> 35 65<119.351 458.726 490 496> 64 42<556.865 641.627> 126 10<588.072 711.974> 145 65<10 90 100 790> 219 10<588.072 711.974> 249 42<556.176 641.627> 255 65<119.351 458.726 490 496> 291 41<717.966 786.578>
AnchorPoint: "Yerik" 288 858 basechar 0
AnchorPoint: "Diacritic" 176 858 basechar 0
LayerCount: 2
Fore
SplineSet
43 490 m 0xe780
 39 484 31 490 35 496 c 0xeb80
 50 516 64 532 64 571 c 0xe780
 64 591 62 598 54 616 c 0
 41 647 23 686 23 730 c 0xf380
 23 767 46 803 76 803 c 0
 131 803 136 682 136 645 c 0
 136 603 131 570 113 527 c 0
 109 517 104 508 100 500 c 1
 100 115 l 2
 100 104 111 100 122 100 c 2
 145 100 l 1
 145 790 l 1
 115 790 l 1
 115 800 l 1
 240 800 l 1
 240 790 l 1
 210 790 l 1
 210 100 l 1
 233 100 l 2
 244 100 255 104 255 115 c 2
 255 500 l 1xeba0
 251 508 246 517 242 527 c 0
 224 570 219 603 219 645 c 0
 219 682 224 803 279 803 c 0
 309 803 332 767 332 730 c 0xe390
 332 686 314 647 301 616 c 0
 293 598 291 591 291 571 c 0xe3c0
 291 552 295 531 301 523 c 0
 303 520 320 496 320 496 c 2xe3a0
 324 490 316 484 312 490 c 0
 295 515 281 531 265 566 c 0
 254 591 249 610 249 639 c 0xe3c0
 249 680 268 711 282 741 c 0
 287 751 291 761 291 773 c 0xe390
 291 783 289 793 276 793 c 0
 264 793 253 777 247 761 c 0
 230 716 229 676 229 645 c 0
 229 604 234 572 252 531 c 0
 269 491 291 463 320 438 c 1
 320 175 l 2
 320 128 280 90 233 90 c 2
 210 90 l 1
 210 10 l 1
 240 10 l 1
 240 0 l 1
 115 0 l 1
 115 10 l 1
 145 10 l 1
 145 90 l 1
 122 90 l 2
 75 90 35 128 35 175 c 2
 35 438 l 1xeba0
 64 463 86 491 103 531 c 0
 121 572 126 604 126 645 c 0
 126 676 125 716 108 761 c 0
 102 777 91 793 79 793 c 0
 66 793 64 783 64 773 c 0xf380
 64 761 68 751 73 741 c 0
 87 711 106 680 106 639 c 0
 106 575 68 526 43 490 c 0xe780
EndSplineSet
Validated: 1
EndChar

StartChar: uni047C
Encoding: 1148 1148 35
Width: 355
Flags: W
HStem: -12 9<85.5963 108.187 246.813 269.404> 637 10<125 145 210 230> 788 24<72.5 128.567 226.729 282.5> 909 30<153.221 200.019>
VStem: 35 65<49.3541 787.125> 35 42<4.87009 138.754> 58 52<880 935.626> 129 22<865.668 904.536> 134 10<736.078 781.781> 145 65<77.445 637> 204 21<865.154 902.115> 211 10<736.165 782.25> 255 65<49.3541 787.125> 278 42<4.87009 138.754>
AnchorPoint: "Yerik" 177 1038 basechar 0
AnchorPoint: "Diacritic" 175 1038 basechar 0
LayerCount: 2
Fore
SplineSet
210 82 m 2xf440
 210 32 242 -3 258 -3 c 0
 277 -3 278 16 278 34 c 0xf444
 278 68 259 121 255 151 c 1
 255 767 l 2
 255 784 247 788 238 788 c 0
 228 788 221 780 221 766 c 2
 221 741 l 2
 221 734 211 734 211 741 c 2
 211 758 l 2
 211 785 223 812 262 812 c 0
 303 812 320 774 320 727 c 2
 320 73 l 2
 320 26 304 -12 256 -12 c 0
 240 -12 214 4 196 38 c 0
 190 50 185 64 181 73 c 0
 180 74 177 75 177 76 c 2
 174 73 l 1
 170 64 165 50 159 38 c 0
 141 4 115 -12 99 -12 c 0
 51 -12 35 26 35 73 c 2
 35 727 l 2
 35 774 52 812 93 812 c 0
 132 812 144 786 144 758 c 2
 144 741 l 2
 144 734 134 734 134 741 c 2
 134 766 l 2
 134 780 127 788 117 788 c 0
 108 788 100 784 100 767 c 2
 100 151 l 1xf898
 96 121 77 68 77 34 c 0
 77 16 78 -3 97 -3 c 0
 113 -3 145 33 145 82 c 2
 145 637 l 1
 125 637 l 1
 125 647 l 1
 230 647 l 1
 230 637 l 1
 210 637 l 1
 210 82 l 2xf440
63 876 m 1
 61 879 58 884 58 891 c 0
 58 901 67 919 75 929 c 0
 79 936 84 942 91 946 c 0
 129 965 175 981 210 985 c 0xf240
 215 986 222 986 225 983 c 0
 265 952 324 891 348 874 c 0
 350 869 350 865 349 860 c 1
 296 860 l 1
 265 879 235 929 198 953 c 0
 193 955 183 955 173 955 c 0
 165 955 157 955 151 954 c 0
 141 952 123 942 115 936 c 1
 111 928 108 921 107 915 c 0
 106 904 109 890 110 884 c 1
 110 880 l 1xf320
 63 876 l 1
198 859 m 1
 202 867 204 872 204 881 c 0
 204 894 192 909 177 909 c 0
 160 909 151 897 151 885 c 0
 151 873 156 863 158 859 c 1
 149 856 l 1
 140 863 129 879 129 896 c 0
 129 918 147 939 174 939 c 0
 201 939 225 915 225 894 c 0xf120
 225 879 213 861 207 856 c 1
 198 859 l 1
EndSplineSet
Validated: 1
LCarets2: 1 0
Ligature2: "'ccmp' Glyph Composition/Decomposition in Cyrillic Round 2-1" uniA64C uniE005
EndChar

StartChar: uni047E
Encoding: 1150 1150 36
Width: 355
Flags: W
HStem: -12 9<85.5963 108.187 246.813 269.404> 637 10<125 145 210 230> 788 24<72.5 128.567 226.729 282.5> 843 72<145 210> 905 10<98.1404 145 210 256.695>
VStem: 35 42<4.87009 138.754> 44 55<861.718 904.672> 134 10<736.078 781.781> 145 65<77.445 637 843 905> 211 10<736.078 782.25> 256 55<860.453 904.672> 278 42<4.87009 138.754>
AnchorPoint: "Yerik" 280 968 basechar 0
AnchorPoint: "Diacritic" 175 968 basechar 0
LayerCount: 2
Fore
SplineSet
320 73 m 2xe5d0
 320 26 304 -12 256 -12 c 0
 240 -12 214 4 196 38 c 0
 190 50 185 64 181 73 c 0
 180 74 177 75 177 76 c 2
 174 73 l 1
 170 64 165 50 159 38 c 0
 141 4 115 -12 99 -12 c 0xe3e0
 51 -12 35 26 35 73 c 2
 35 727 l 2
 35 774 52 812 93 812 c 0
 132 812 144 786 144 758 c 2
 144 741 l 2
 144 734 134 734 134 741 c 2
 134 766 l 2
 134 780 127 788 117 788 c 0
 108 788 100 784 100 767 c 2
 100 151 l 1
 96 121 77 68 77 34 c 0
 77 16 78 -3 97 -3 c 0
 113 -3 145 33 145 82 c 2
 145 637 l 1
 125 637 l 1
 125 647 l 1
 230 647 l 1
 230 637 l 1
 210 637 l 1
 210 82 l 2
 210 32 242 -3 258 -3 c 0
 277 -3 278 16 278 34 c 0
 278 68 259 121 255 151 c 1
 255 767 l 2
 255 784 247 788 238 788 c 0
 228 788 221 780 221 766 c 2
 221 741 l 2
 221 734 211 734 211 741 c 2
 211 758 l 2
 211 785 223 812 262 812 c 0
 303 812 320 774 320 727 c 2
 320 73 l 2xe5d0
320 910 m 1xedd0
 316 905 311 879 311 870 c 0
 311 859 313 846 316 839 c 1
 312 836 l 1
 288 840 258 881 256 905 c 1
 210 905 l 1xe9e0
 210 843 l 1
 145 843 l 1xf1e0
 145 905 l 1
 99 905 l 1
 96 881 67 840 43 836 c 1
 39 839 l 1
 42 846 44 859 44 870 c 0xebe0
 44 879 39 905 35 910 c 1
 35 915 l 1
 320 915 l 1
 320 910 l 1xedd0
EndSplineSet
Validated: 1
EndChar

StartChar: uni0478
Encoding: 1144 1144 37
Width: 471
Flags: W
HStem: -12 9<106.365 137.97> 0 10<300 343 353 395> 741 65<401.666 459> 790 10<240 267 332 365> 803 9<106.365 137.97>
VStem: 35 65<17.3511 782.649> 145 65<17.3511 782.649>
AnchorPoint: "Yerik" 422 858 basechar 0
AnchorPoint: "Diacritic" 360 858 basechar 0
LayerCount: 2
Fore
SplineSet
210 727 m 2xce
 210 73 l 2
 210 26 169 -12 122 -12 c 0
 74 -12 35 26 35 73 c 2
 35 727 l 2
 35 774 74 812 122 812 c 0
 169 812 210 774 210 727 c 2xce
395 0 m 1
 300 0 l 1
 300 10 l 1
 343 10 l 1
 360 332 l 1
 296 332 l 1
 267 790 l 1
 240 790 l 1
 240 800 l 1
 365 800 l 1
 365 790 l 1
 332 790 l 1xd6
 360 346 l 1
 380 715 l 2
 382 761 396 806 433 806 c 2
 459 806 l 1
 459 741 l 1
 429 741 l 2xe6
 410 741 391 721 387 644 c 2
 353 10 l 1
 395 10 l 1
 395 0 l 1
100 787 m 2
 100 13 l 2
 100 2 111 -3 122 -3 c 0
 134 -3 145 2 145 13 c 2
 145 787 l 2
 145 798 134 803 122 803 c 0xce
 111 803 100 798 100 787 c 2
EndSplineSet
Validated: 1
LCarets2: 1 0
Ligature2: "'ccmp' Glyph Composition/Decomposition in Cyrillic-1" uni1C82 uni0423
EndChar

StartChar: uni0474
Encoding: 1140 1140 38
Width: 236
Flags: W
HStem: 0 10<29 60 125 154> 741 65<166.666 224> 790 10<5 32 97 130>
VStem: 32 65<678.571 790> 60 65<10 72.963 172 205> 145 79<741 791.103> 145 7<568.808 678.839>
AnchorPoint: "Yerik" 182 858 basechar 0
AnchorPoint: "Diacritic" 122 858 basechar 0
LayerCount: 2
Fore
SplineSet
29 0 m 1xca
 29 10 l 1
 60 10 l 1xca
 32 790 l 1
 5 790 l 1
 5 800 l 1
 130 800 l 1
 130 790 l 1
 97 790 l 1
 119 172 l 1
 145 715 l 2xb2
 147 763 161 806 198 806 c 2
 224 806 l 1
 224 741 l 1xc4
 194 741 l 2
 175 741 156 721 152 644 c 2
 124 51 l 1
 125 10 l 1
 154 10 l 1
 154 0 l 1
 29 0 l 1xca
EndSplineSet
Validated: 1
EndChar

StartChar: uni0460
Encoding: 1120 1120 39
Width: 355
Flags: W
HStem: -12 9<85.5963 108.187 246.813 269.404> 637 10<125 145 210 230> 788 24<72.5 128.567 226.729 282.5>
VStem: 35 65<49.3541 787.125> 35 42<4.87009 138.754> 134 10<736.078 781.781> 145 65<77.445 637> 211 10<736.078 782.25> 255 65<49.3541 787.125> 278 42<4.87009 138.754>
AnchorPoint: "Yerik" 282 858 basechar 0
AnchorPoint: "Diacritic" 177 858 basechar 0
LayerCount: 2
Fore
SplineSet
210 82 m 2xef
 210 32 242 -3 258 -3 c 0
 277 -3 278 16 278 34 c 0xef40
 278 68 259 121 255 151 c 1
 255 767 l 2
 255 784 247 788 238 788 c 0
 228 788 221 780 221 766 c 2
 221 741 l 2
 221 734 211 734 211 741 c 2
 211 758 l 2
 211 785 223 812 262 812 c 0
 303 812 320 774 320 727 c 2
 320 73 l 2
 320 26 304 -12 256 -12 c 0
 240 -12 214 4 196 38 c 0
 190 50 185 64 181 73 c 0
 180 74 177 75 177 76 c 2
 174 73 l 1
 170 64 165 50 159 38 c 0
 141 4 115 -12 99 -12 c 0
 51 -12 35 26 35 73 c 2
 35 727 l 2
 35 774 52 812 93 812 c 0
 132 812 144 786 144 758 c 2
 144 741 l 2
 144 734 134 734 134 741 c 2
 134 766 l 2
 134 780 127 788 117 788 c 0
 108 788 100 784 100 767 c 2
 100 151 l 1xf780
 96 121 77 68 77 34 c 0
 77 16 78 -3 97 -3 c 0
 113 -3 145 33 145 82 c 2
 145 637 l 1
 125 637 l 1
 125 647 l 1
 230 647 l 1
 230 637 l 1
 210 637 l 1
 210 82 l 2xef
EndSplineSet
Validated: 1
EndChar

StartChar: uni046E
Encoding: 1134 1134 40
Width: 245
Flags: W
HStem: -12 10<131.829 166.198> 345 10<5 31 100 130> 505 9<107.773 138.918> 585 10<5 35 100 130> 871 65<165.239 209> 926 10<29 45 99 114>
VStem: 35 65<114.025 345 422 490.35 595 782.183> 145 65<42.9051 131.969 206.752 490.445 528.346 782.274> 172 43<14.9126 87.0227>
AnchorPoint: "Yerik" 187 985 basechar 0
AnchorPoint: "Diacritic" 126 983 basechar 0
LayerCount: 2
Fore
SplineSet
114 926 m 1xf7
 99 926 l 1xf7
 137 824 l 1
 144 850 l 1
 155 896 165 936 199 936 c 2
 209 936 l 1
 209 871 l 1
 187 871 l 2
 178 871 161 870 154 846 c 2
 144 809 l 1
 182 800 210 767 210 727 c 2
 210 580 l 2
 210 544 187 519 155 509 c 1
 187 500 210 475 210 439 c 2
 210 287 l 2xfb
 210 250 201 228 188 205 c 0
 174 178 141 149 118 109 c 0
 108 91 105 73 103 55 c 0
 104 46 109 24 123 8 c 0
 131 2 140 -2 149 -2 c 0
 155 -2 161 0 167 3 c 0
 171 9 172 12 172 18 c 0
 172 34 165 47 157 61 c 0
 146 79 142 91 142 106 c 0
 142 121 148 138 167 138 c 0
 201 138 215 102 215 76 c 0xfa80
 215 39 186 -12 149 -12 c 0
 103 -12 73 60 57 114 c 0
 33 196 32 294 31 345 c 1
 5 345 l 1
 5 355 l 1
 130 355 l 1
 130 345 l 1
 100 345 l 1
 100 93 l 1
 102 100 105 107 109 115 c 0
 130 154 145 198 145 260 c 2
 145 489 l 2
 145 499 136 504 126 505 c 1
 123 505 l 2
 111 505 100 500 100 489 c 2
 100 422 l 1
 33 422 l 1
 33 439 l 2
 33 486 76 514 123 514 c 2
 126 514 l 1
 136 515 145 520 145 530 c 2
 145 787 l 2
 145 798 134 803 123 803 c 0
 111 803 100 798 100 787 c 2
 100 595 l 1
 130 595 l 1
 130 585 l 1
 5 585 l 1
 5 595 l 1
 35 595 l 1
 35 727 l 2
 35 762 58 793 90 806 c 1
 45 926 l 1
 29 926 l 1
 29 936 l 1
 114 936 l 1
 114 926 l 1xf7
EndSplineSet
Validated: 1
EndChar

StartChar: uni0466
Encoding: 1126 1126 41
Width: 355
Flags: W
HStem: 0 10<5 35 100 117 128 145 210 227 238 255 320 350> 352 10<100 145 210 251> 790 10<115 145 210 240>
VStem: 35 65<10 352 362 398.577> 145 65<10 352 482.824 790> 255 65<10 352>
CounterMasks: 1 1c
AnchorPoint: "Yerik" 272 858 basechar 0
AnchorPoint: "Diacritic" 179 858 basechar 0
LayerCount: 2
Fore
SplineSet
350 0 m 1
 238 0 l 1
 238 10 l 1
 255 10 l 1
 255 342 l 2
 255 345 254 349 254 352 c 1
 210 352 l 1
 210 10 l 1
 227 10 l 1
 227 0 l 1
 128 0 l 1
 128 10 l 1
 145 10 l 1
 145 352 l 1
 100 352 l 1
 100 10 l 1
 117 10 l 1
 117 0 l 1
 5 0 l 1
 5 10 l 1
 35 10 l 1
 35 334 l 2
 35 370 57 409 94 438 c 0
 115 455 127 477 133 491 c 0
 139 505 143 520 145 543 c 1
 145 790 l 1
 115 790 l 1
 115 800 l 1
 240 800 l 1
 240 790 l 1
 210 790 l 1
 210 579 l 2
 210 534 217 485 259 451 c 0
 299 419 320 390 320 315 c 2
 320 10 l 1
 350 10 l 1
 350 0 l 1
111 426 m 0
 102 412 100 399 100 386 c 2
 100 362 l 1
 251 362 l 1
 242 386 218 405 194 427 c 0
 168 449 154 475 148 503 c 1
 147 496 145 491 143 486 c 0
 137 470 126 449 111 426 c 0
EndSplineSet
Validated: 1
EndChar

StartChar: bracketleft
Encoding: 91 91 42
Width: 175
Flags: W
HStem: -42 10<110 169> 832 10<110 169>
VStem: 45 65<-32 832>
LayerCount: 2
Fore
SplineSet
45 842 m 1
 169 842 l 1
 169 832 l 1
 110 832 l 1
 110 -32 l 1
 169 -32 l 1
 169 -42 l 1
 45 -42 l 1
 45 842 l 1
EndSplineSet
Validated: 1
EndChar

StartChar: bracketright
Encoding: 93 93 43
Width: 175
Flags: W
HStem: -42 10<6 65> 832 10<6 65>
VStem: 65 65<-32 832>
LayerCount: 2
Fore
SplineSet
130 -42 m 1
 6 -42 l 1
 6 -32 l 1
 65 -32 l 1
 65 832 l 1
 6 832 l 1
 6 842 l 1
 130 842 l 1
 130 -42 l 1
EndSplineSet
Validated: 1
EndChar

StartChar: uni2E2F
Encoding: 11823 11823 44
Width: 130
Flags: W
HStem: 843 128
VStem: 24 82
LayerCount: 2
Fore
SplineSet
96 878 m 1
 30 843 l 1
 24 854 l 1
 56 870 l 1
 36 938 l 1
 100 971 l 1
 106 960 l 1
 78 944 l 1
 96 878 l 1
EndSplineSet
Validated: 1
EndChar

StartChar: grave
Encoding: 96 96 45
Width: 132
Flags: W
HStem: 576 224
VStem: 20 42<769.985 800> 86 26<576 599.015>
LayerCount: 2
Fore
SplineSet
112 576 m 1
 86 576 l 1
 20 793 l 1
 20 800 l 1
 62 800 l 1
 112 583 l 1
 112 576 l 1
EndSplineSet
Validated: 1
EndChar

StartChar: uni2DEA
Encoding: 11754 11754 46
Width: 1
Flags: W
HStem: 840 12<-145.888 -121.57> 921 12<-145.277 -121.893>
VStem: -187 36<852.7 920.25> -115 33<852.7 920.25>
AnchorPoint: "Stack" -131 987 basemark 0
AnchorPoint: "Stack" -135 838 mark 0
AnchorPoint: "Diacritic" -134 837 mark 0
LayerCount: 2
Fore
SplineSet
-133 852 m 0
 -124 852 -115 861 -115 876 c 2
 -115 897 l 2
 -115 909 -124 921 -133 921 c 0
 -145 921 -151 909 -151 897 c 2
 -151 876 l 2
 -151 861 -145 852 -133 852 c 0
-133 933 m 0
 -106 933 -82 915 -82 885 c 0
 -82 855 -103 840 -133 840 c 0
 -164 840 -187 855 -187 885 c 0
 -187 915 -163 933 -133 933 c 0
EndSplineSet
Validated: 1
EndChar

StartChar: uni2DE3
Encoding: 11747 11747 47
Width: 1
Flags: W
HStem: 868 10<-237 -194 -182 -110 -61 -31>
VStem: -289 310<868 878>
AnchorPoint: "Stack" -142 1104 basemark 0
AnchorPoint: "Stack" -142 822 mark 0
AnchorPoint: "Diacritic" -145 822 mark 0
LayerCount: 2
Fore
SplineSet
21 868 m 1
 -27 822 l 1
 -31 822 l 1
 -31 868 l 1
 -237 868 l 1
 -237 822 l 1
 -241 822 l 1
 -289 868 l 1
 -289 878 l 1
 -194 878 l 1
 -147 962 l 1
 -176 1028 l 1
 -189 1029 l 1
 -219 976 l 1
 -260 984 l 1
 -228 1041 l 1
 -130 1033 l 1
 -61 878 l 1
 21 878 l 1
 21 868 l 1
-182 878 m 1
 -110 878 l 1
 -142 950 l 1
 -182 878 l 1
EndSplineSet
Validated: 1
EndChar

StartChar: uni0473
Encoding: 1139 1139 48
Width: 355
Flags: W
HStem: -12 9<161.365 192.97> 257 10<83 90 155 200 265 272> 803 9<161.365 192.97>
VStem: 9 7<0.75106 6.15258> 29 54<119.708 256.993> 90 65<17.3511 257 267 782.649> 200 65<17.3511 257 267 782.649> 272 54<119.708 256.993> 339 7<0.75106 6.15258>
AnchorPoint: "Yerik" 232 858 basechar 0
AnchorPoint: "Diacritic" 174 858 basechar 0
LayerCount: 2
Fore
SplineSet
346 2 m 0
 347 -1 340 -4 339 -1 c 0
 337 4 330 17 326 28 c 0
 307 77 298 98 286 150 c 0
 277 186 272 236 272 257 c 1
 265 257 l 1
 265 73 l 2
 265 26 224 -12 177 -12 c 0
 129 -12 90 26 90 73 c 2
 90 257 l 1
 83 257 l 1
 82 236 77 186 69 150 c 0
 57 98 48 77 29 28 c 0
 25 17 18 4 16 -1 c 0
 15 -4 8 -1 9 2 c 0
 26 48 29 98 29 152 c 0
 29 188 21 235 17 257 c 0
 16 261 16 264 17 267 c 1
 90 267 l 1
 90 727 l 2
 90 774 129 812 177 812 c 0
 224 812 265 774 265 727 c 2
 265 267 l 1
 338 267 l 1
 339 264 339 261 338 257 c 0
 334 235 326 188 326 152 c 0
 326 98 329 47 346 2 c 0
155 787 m 2
 155 267 l 1
 200 267 l 1
 200 787 l 2
 200 798 189 803 177 803 c 0
 166 803 155 798 155 787 c 2
177 -3 m 0
 189 -3 200 2 200 13 c 2
 200 257 l 1
 155 257 l 1
 155 13 l 2
 155 2 166 -3 177 -3 c 0
EndSplineSet
Validated: 1
EndChar

StartChar: uni2DE2
Encoding: 11746 11746 49
Width: 1
Flags: W
HStem: 840 92<-170 -137> 905 27<-107 -98> 920 12<-137 -120>
VStem: -170 33<840 920>
AnchorPoint: "Stack" -138 989 basemark 0
AnchorPoint: "Stack" -138 838 mark 0
AnchorPoint: "Diacritic" -138 838 mark 0
LayerCount: 2
Fore
SplineSet
-89 920 m 1x30
 -98 905 l 1
 -107 905 l 1x50
 -120 920 l 1
 -137 920 l 1x30
 -137 840 l 1
 -170 840 l 1
 -170 932 l 1x90
 -89 932 l 1
 -89 920 l 1x30
EndSplineSet
Validated: 1
EndChar

StartChar: uni0456
Encoding: 1110 1110 50
Width: 135
Flags: W
HStem: 0 10<5 35 100 130> 790 10<5 35 100 130>
VStem: 35 65<10 790>
AnchorPoint: "Yerik" 62 858 basechar 0
AnchorPoint: "Diacritic" 62 858 basechar 0
LayerCount: 2
Fore
SplineSet
130 0 m 1
 5 0 l 1
 5 10 l 1
 35 10 l 1
 35 790 l 1
 5 790 l 1
 5 800 l 1
 130 800 l 1
 130 790 l 1
 100 790 l 1
 100 10 l 1
 130 10 l 1
 130 0 l 1
EndSplineSet
Validated: 1
EndChar

StartChar: uni0477
Encoding: 1143 1143 51
Width: 236
Flags: W
HStem: 0 10<29 60 125 154> 741 65<166.666 224> 790 10<5 32 97 130>
VStem: 32 65<678.571 790> 60 65<10 72.963 172 205> 145 79<741 791.103> 145 7<568.808 678.839>
AnchorPoint: "Yerik" 122 1001 basechar 0
AnchorPoint: "Diacritic" 122 999 basechar 0
LayerCount: 2
Fore
SplineSet
29 0 m 1xca
 29 10 l 1
 60 10 l 1xca
 32 790 l 1
 5 790 l 1
 5 800 l 1
 130 800 l 1
 130 790 l 1
 97 790 l 1
 119 172 l 1
 145 715 l 2xb2
 147 763 161 806 198 806 c 2
 224 806 l 1
 224 741 l 1xc4
 194 741 l 2
 175 741 156 721 152 644 c 2
 124 51 l 1
 125 10 l 1
 154 10 l 1
 154 0 l 1
 29 0 l 1xca
187 870 m 1
 187 864 l 1
 146 864 l 1
 100 941 l 1
 100 947 l 1
 141 947 l 1
 187 870 l 1
91 870 m 1
 91 864 l 1
 50 864 l 1
 4 941 l 1
 4 947 l 1
 45 947 l 1
 91 870 l 1
EndSplineSet
Validated: 1
LCarets2: 1 0
Ligature2: "'ccmp' Glyph Composition/Decomposition in Cyrillic-1" uni0475 uni030F
EndChar

StartChar: uni047B
Encoding: 1147 1147 52
Width: 325
Flags: W
HStem: -12 78<131.253 145.625 146.189 177.811 178.376 192.195> -12 9<106.365 137.735 186.181 218.635> 734 78<131.455 144.67 145.234 177.811 178.376 192.545> 803 9<106.365 136.815 187 218.635>
VStem: 35 65<17.3511 782.649> 128 68<-0.668964 63.7004 736.3 799.624> 225 65<17.3511 782.649>
AnchorPoint: "Yerik" 258 858 basechar 0
AnchorPoint: "Diacritic" 160 858 basechar 0
LayerCount: 2
Fore
SplineSet
122 812 m 0x5e
 129 812 138 810 145 808 c 0
 150 810 155 812 162 812 c 0x2e
 168 812 174 810 178 808 c 0
 186 811 195 812 203 812 c 0
 251 812 290 774 290 727 c 2
 290 73 l 2
 290 26 251 -12 203 -12 c 0x5e
 195 -12 186 -11 178 -8 c 0
 174 -10 168 -12 162 -12 c 0x8e
 156 -12 150 -10 146 -8 c 0
 138 -10 130 -12 122 -12 c 0
 74 -12 35 26 35 73 c 2
 35 727 l 2
 35 774 74 812 122 812 c 0x5e
162 66 m 0x8e
 184 66 196 46 196 27 c 0
 196 17 192 6 186 -1 c 1
 191 -2 197 -3 203 -3 c 0
 214 -3 225 2 225 13 c 2
 225 787 l 2
 225 798 214 803 203 803 c 0x5e
 199 803 193 802 187 800 c 1
 193 792 196 782 196 773 c 0
 196 754 184 734 162 734 c 0x2e
 140 734 128 754 128 773 c 0
 128 783 131 794 137 801 c 1
 132 802 127 803 122 803 c 0
 111 803 100 798 100 787 c 2
 100 13 l 2
 100 2 111 -3 122 -3 c 0x5e
 127 -3 132 -2 138 -1 c 1
 131 6 128 17 128 27 c 0
 128 46 139 66 162 66 c 0x8e
EndSplineSet
Validated: 1
EndChar

StartChar: uni0471
Encoding: 1137 1137 53
Width: 355
Flags: W
HStem: 0 10<115 145 210 240> 90 10<104.768 145 210 250.232> 793 10<67.6302 90.2678 115 145 210 240 264.732 287.37>
VStem: 23 41<717.966 786.578> 35 65<119.351 458.726 490 496> 64 42<556.865 641.627> 126 10<588.072 711.974> 145 65<10 90 100 790> 219 10<588.072 711.974> 249 42<556.176 641.627> 255 65<119.351 458.726 490 496> 291 41<717.966 786.578>
AnchorPoint: "Yerik" 290 858 basechar 0
AnchorPoint: "Diacritic" 176 858 basechar 0
LayerCount: 2
Fore
SplineSet
43 490 m 0xe780
 39 484 31 490 35 496 c 0xeb80
 50 516 64 532 64 571 c 0xe780
 64 591 62 598 54 616 c 0
 41 647 23 686 23 730 c 0xf380
 23 767 46 803 76 803 c 0
 131 803 136 682 136 645 c 0
 136 603 131 570 113 527 c 0
 109 517 104 508 100 500 c 1
 100 115 l 2
 100 104 111 100 122 100 c 2
 145 100 l 1
 145 790 l 1
 115 790 l 1
 115 800 l 1
 240 800 l 1
 240 790 l 1
 210 790 l 1
 210 100 l 1
 233 100 l 2
 244 100 255 104 255 115 c 2
 255 500 l 1xeba0
 251 508 246 517 242 527 c 0
 224 570 219 603 219 645 c 0
 219 682 224 803 279 803 c 0
 309 803 332 767 332 730 c 0xe390
 332 686 314 647 301 616 c 0
 293 598 291 591 291 571 c 0xe3c0
 291 552 295 531 301 523 c 0
 303 520 320 496 320 496 c 2xe3a0
 324 490 316 484 312 490 c 0
 295 515 281 531 265 566 c 0
 254 591 249 610 249 639 c 0xe3c0
 249 680 268 711 282 741 c 0
 287 751 291 761 291 773 c 0xe390
 291 783 289 793 276 793 c 0
 264 793 253 777 247 761 c 0
 230 716 229 676 229 645 c 0
 229 604 234 572 252 531 c 0
 269 491 291 463 320 438 c 1
 320 175 l 2
 320 128 280 90 233 90 c 2
 210 90 l 1
 210 10 l 1
 240 10 l 1
 240 0 l 1
 115 0 l 1
 115 10 l 1
 145 10 l 1
 145 90 l 1
 122 90 l 2
 75 90 35 128 35 175 c 2
 35 438 l 1xeba0
 64 463 86 491 103 531 c 0
 121 572 126 604 126 645 c 0
 126 676 125 716 108 761 c 0
 102 777 91 793 79 793 c 0
 66 793 64 783 64 773 c 0xf380
 64 761 68 751 73 741 c 0
 87 711 106 680 106 639 c 0
 106 575 68 526 43 490 c 0xe780
EndSplineSet
Validated: 1
EndChar

StartChar: uni047D
Encoding: 1149 1149 54
Width: 355
Flags: W
HStem: -12 9<85.5963 108.187 246.813 269.404> 637 10<125 145 210 230> 788 24<72.5 128.567 226.729 282.5> 909 30<153.221 200.019>
VStem: 35 65<49.3541 787.125> 35 42<4.87009 138.754> 58 52<880 935.626> 129 22<865.668 904.536> 134 10<736.078 781.781> 145 65<77.445 637> 204 21<865.154 902.115> 211 10<736.165 782.25> 255 65<49.3541 787.125> 278 42<4.87009 138.754>
AnchorPoint: "Yerik" 171 1029 basechar 0
AnchorPoint: "Diacritic" 172 1028 basechar 0
LayerCount: 2
Fore
SplineSet
210 82 m 2xf440
 210 32 242 -3 258 -3 c 0
 277 -3 278 16 278 34 c 0xf444
 278 68 259 121 255 151 c 1
 255 767 l 2
 255 784 247 788 238 788 c 0
 228 788 221 780 221 766 c 2
 221 741 l 2
 221 734 211 734 211 741 c 2
 211 758 l 2
 211 785 223 812 262 812 c 0
 303 812 320 774 320 727 c 2
 320 73 l 2
 320 26 304 -12 256 -12 c 0
 240 -12 214 4 196 38 c 0
 190 50 185 64 181 73 c 0
 180 74 177 75 177 76 c 2
 174 73 l 1
 170 64 165 50 159 38 c 0
 141 4 115 -12 99 -12 c 0
 51 -12 35 26 35 73 c 2
 35 727 l 2
 35 774 52 812 93 812 c 0
 132 812 144 786 144 758 c 2
 144 741 l 2
 144 734 134 734 134 741 c 2
 134 766 l 2
 134 780 127 788 117 788 c 0
 108 788 100 784 100 767 c 2
 100 151 l 1xf898
 96 121 77 68 77 34 c 0
 77 16 78 -3 97 -3 c 0
 113 -3 145 33 145 82 c 2
 145 637 l 1
 125 637 l 1
 125 647 l 1
 230 647 l 1
 230 637 l 1
 210 637 l 1
 210 82 l 2xf440
63 876 m 1
 61 879 58 884 58 891 c 0
 58 901 67 919 75 929 c 0
 79 936 84 942 91 946 c 0
 129 965 175 981 210 985 c 0xf240
 215 986 222 986 225 983 c 0
 265 952 324 891 348 874 c 0
 350 869 350 865 349 860 c 1
 296 860 l 1
 265 879 235 929 198 953 c 0
 193 955 183 955 173 955 c 0
 165 955 157 955 151 954 c 0
 141 952 123 942 115 936 c 1
 111 928 108 921 107 915 c 0
 106 904 109 890 110 884 c 1
 110 880 l 1xf320
 63 876 l 1
198 859 m 1
 202 867 204 872 204 881 c 0
 204 894 192 909 177 909 c 0
 160 909 151 897 151 885 c 0
 151 873 156 863 158 859 c 1
 149 856 l 1
 140 863 129 879 129 896 c 0
 129 918 147 939 174 939 c 0
 201 939 225 915 225 894 c 0xf120
 225 879 213 861 207 856 c 1
 198 859 l 1
EndSplineSet
Validated: 1
LCarets2: 1 0
Ligature2: "'ccmp' Glyph Composition/Decomposition in Cyrillic Round 2-1" uniA64D uniE005
EndChar

StartChar: uni047F
Encoding: 1151 1151 55
Width: 355
Flags: W
HStem: -12 9<85.5963 108.187 246.813 269.404> 637 10<125 145 210 230> 788 24<72.5 128.567 226.729 282.5> 843 72<145 210> 905 10<98.1404 145 210 256.695>
VStem: 35 42<4.87009 138.754> 44 55<861.718 904.672> 134 10<736.078 781.781> 145 65<77.445 637 843 905> 211 10<736.078 782.25> 256 55<860.453 904.672> 278 42<4.87009 138.754>
AnchorPoint: "Yerik" 282 968 basechar 0
AnchorPoint: "Diacritic" 178 968 basechar 0
LayerCount: 2
Fore
SplineSet
320 73 m 2xe5d0
 320 26 304 -12 256 -12 c 0
 240 -12 214 4 196 38 c 0
 190 50 185 64 181 73 c 0
 180 74 177 75 177 76 c 2
 174 73 l 1
 170 64 165 50 159 38 c 0
 141 4 115 -12 99 -12 c 0xe3e0
 51 -12 35 26 35 73 c 2
 35 727 l 2
 35 774 52 812 93 812 c 0
 132 812 144 786 144 758 c 2
 144 741 l 2
 144 734 134 734 134 741 c 2
 134 766 l 2
 134 780 127 788 117 788 c 0
 108 788 100 784 100 767 c 2
 100 151 l 1
 96 121 77 68 77 34 c 0
 77 16 78 -3 97 -3 c 0
 113 -3 145 33 145 82 c 2
 145 637 l 1
 125 637 l 1
 125 647 l 1
 230 647 l 1
 230 637 l 1
 210 637 l 1
 210 82 l 2
 210 32 242 -3 258 -3 c 0
 277 -3 278 16 278 34 c 0
 278 68 259 121 255 151 c 1
 255 767 l 2
 255 784 247 788 238 788 c 0
 228 788 221 780 221 766 c 2
 221 741 l 2
 221 734 211 734 211 741 c 2
 211 758 l 2
 211 785 223 812 262 812 c 0
 303 812 320 774 320 727 c 2
 320 73 l 2xe5d0
320 910 m 1xedd0
 316 905 311 879 311 870 c 0
 311 859 313 846 316 839 c 1
 312 836 l 1
 288 840 258 881 256 905 c 1
 210 905 l 1xe9e0
 210 843 l 1
 145 843 l 1xf1e0
 145 905 l 1
 99 905 l 1
 96 881 67 840 43 836 c 1
 39 839 l 1
 42 846 44 859 44 870 c 0xebe0
 44 879 39 905 35 910 c 1
 35 915 l 1
 320 915 l 1
 320 910 l 1xedd0
EndSplineSet
Validated: 1
EndChar

StartChar: uni0479
Encoding: 1145 1145 56
Width: 471
Flags: W
HStem: -12 9<106.365 137.97> 0 10<300 343 353 395> 741 65<401.666 459> 790 10<240 267 332 365> 803 9<106.365 137.97>
VStem: 35 65<17.3511 782.649> 145 65<17.3511 782.649>
AnchorPoint: "Yerik" 422 858 basechar 0
AnchorPoint: "Diacritic" 350 858 basechar 0
LayerCount: 2
Fore
SplineSet
210 727 m 2xce
 210 73 l 2
 210 26 169 -12 122 -12 c 0
 74 -12 35 26 35 73 c 2
 35 727 l 2
 35 774 74 812 122 812 c 0
 169 812 210 774 210 727 c 2xce
395 0 m 1
 300 0 l 1
 300 10 l 1
 343 10 l 1
 360 332 l 1
 296 332 l 1
 267 790 l 1
 240 790 l 1
 240 800 l 1
 365 800 l 1
 365 790 l 1
 332 790 l 1xd6
 360 346 l 1
 380 715 l 2
 382 761 396 806 433 806 c 2
 459 806 l 1
 459 741 l 1
 429 741 l 2xe6
 410 741 391 721 387 644 c 2
 353 10 l 1
 395 10 l 1
 395 0 l 1
100 787 m 2
 100 13 l 2
 100 2 111 -3 122 -3 c 0
 134 -3 145 2 145 13 c 2
 145 787 l 2
 145 798 134 803 122 803 c 0xce
 111 803 100 798 100 787 c 2
EndSplineSet
Validated: 1
LCarets2: 1 0
Ligature2: "'ccmp' Glyph Composition/Decomposition in Cyrillic-1" uni1C82 uni0443
EndChar

StartChar: uni0475
Encoding: 1141 1141 57
Width: 236
Flags: W
HStem: 0 10<29 60 125 154> 741 65<166.666 224> 790 10<5 32 97 130>
VStem: 32 65<678.571 790> 60 65<10 72.963 172 205> 145 79<741 791.103> 145 7<568.808 678.839>
AnchorPoint: "Yerik" 182 858 basechar 0
AnchorPoint: "Diacritic" 122 858 basechar 0
LayerCount: 2
Fore
SplineSet
29 0 m 1xca
 29 10 l 1
 60 10 l 1xca
 32 790 l 1
 5 790 l 1
 5 800 l 1
 130 800 l 1
 130 790 l 1
 97 790 l 1
 119 172 l 1
 145 715 l 2xb2
 147 763 161 806 198 806 c 2
 224 806 l 1
 224 741 l 1xc4
 194 741 l 2
 175 741 156 721 152 644 c 2
 124 51 l 1
 125 10 l 1
 154 10 l 1
 154 0 l 1
 29 0 l 1xca
EndSplineSet
Validated: 1
EndChar

StartChar: uni0461
Encoding: 1121 1121 58
Width: 355
Flags: W
HStem: -12 9<85.5963 108.187 246.813 269.404> 637 10<125 145 210 230> 788 24<72.5 128.567 226.729 282.5>
VStem: 35 65<49.3541 787.125> 35 42<4.87009 138.754> 134 10<736.078 781.781> 145 65<77.445 637> 211 10<736.078 782.25> 255 65<49.3541 787.125> 278 42<4.87009 138.754>
AnchorPoint: "Yerik" 282 858 basechar 0
AnchorPoint: "Diacritic" 177 858 basechar 0
LayerCount: 2
Fore
SplineSet
210 82 m 2xef
 210 32 242 -3 258 -3 c 0
 277 -3 278 16 278 34 c 0xef40
 278 68 259 121 255 151 c 1
 255 767 l 2
 255 784 247 788 238 788 c 0
 228 788 221 780 221 766 c 2
 221 741 l 2
 221 734 211 734 211 741 c 2
 211 758 l 2
 211 785 223 812 262 812 c 0
 303 812 320 774 320 727 c 2
 320 73 l 2
 320 26 304 -12 256 -12 c 0
 240 -12 214 4 196 38 c 0
 190 50 185 64 181 73 c 0
 180 74 177 75 177 76 c 2
 174 73 l 1
 170 64 165 50 159 38 c 0
 141 4 115 -12 99 -12 c 0
 51 -12 35 26 35 73 c 2
 35 727 l 2
 35 774 52 812 93 812 c 0
 132 812 144 786 144 758 c 2
 144 741 l 2
 144 734 134 734 134 741 c 2
 134 766 l 2
 134 780 127 788 117 788 c 0
 108 788 100 784 100 767 c 2
 100 151 l 1xf780
 96 121 77 68 77 34 c 0
 77 16 78 -3 97 -3 c 0
 113 -3 145 33 145 82 c 2
 145 637 l 1
 125 637 l 1
 125 647 l 1
 230 647 l 1
 230 637 l 1
 210 637 l 1
 210 82 l 2xef
EndSplineSet
Validated: 1
EndChar

StartChar: uni046F
Encoding: 1135 1135 59
Width: 245
Flags: W
HStem: -12 10<131.829 166.198> 345 10<5 31 100 130> 505 9<107.773 138.918> 585 10<5 35 100 130> 871 65<165.239 209> 926 10<29 45 99 114>
VStem: 35 65<114.025 345 422 490.35 595 782.183> 145 65<42.9051 131.969 206.752 490.445 528.346 782.274> 172 43<14.9126 87.0227>
AnchorPoint: "Yerik" 182 988 basechar 0
AnchorPoint: "Diacritic" 131 988 basechar 0
LayerCount: 2
Fore
SplineSet
114 926 m 1xf7
 99 926 l 1xf7
 137 824 l 1
 144 850 l 1
 155 896 165 936 199 936 c 2
 209 936 l 1
 209 871 l 1
 187 871 l 2
 178 871 161 870 154 846 c 2
 144 809 l 1
 182 800 210 767 210 727 c 2
 210 580 l 2
 210 544 187 519 155 509 c 1
 187 500 210 475 210 439 c 2
 210 287 l 2xfb
 210 250 201 228 188 205 c 0
 174 178 141 149 118 109 c 0
 108 91 105 73 103 55 c 0
 104 46 109 24 123 8 c 0
 131 2 140 -2 149 -2 c 0
 155 -2 161 0 167 3 c 0
 171 9 172 12 172 18 c 0
 172 34 165 47 157 61 c 0
 146 79 142 91 142 106 c 0
 142 121 148 138 167 138 c 0
 201 138 215 102 215 76 c 0xfa80
 215 39 186 -12 149 -12 c 0
 103 -12 73 60 57 114 c 0
 33 196 32 294 31 345 c 1
 5 345 l 1
 5 355 l 1
 130 355 l 1
 130 345 l 1
 100 345 l 1
 100 93 l 1
 102 100 105 107 109 115 c 0
 130 154 145 198 145 260 c 2
 145 489 l 2
 145 499 136 504 126 505 c 1
 123 505 l 2
 111 505 100 500 100 489 c 2
 100 422 l 1
 33 422 l 1
 33 439 l 2
 33 486 76 514 123 514 c 2
 126 514 l 1
 136 515 145 520 145 530 c 2
 145 787 l 2
 145 798 134 803 123 803 c 0
 111 803 100 798 100 787 c 2
 100 595 l 1
 130 595 l 1
 130 585 l 1
 5 585 l 1
 5 595 l 1
 35 595 l 1
 35 727 l 2
 35 762 58 793 90 806 c 1
 45 926 l 1
 29 926 l 1
 29 936 l 1
 114 936 l 1
 114 926 l 1xf7
EndSplineSet
Validated: 1
EndChar

StartChar: uni0467
Encoding: 1127 1127 60
Width: 355
Flags: W
HStem: 0 10<5 35 100 117 128 145 210 227 238 255 320 350> 352 10<100 145 210 251> 790 10<115 145 210 240>
VStem: 35 65<10 352 362 398.577> 145 65<10 352 482.824 790> 255 65<10 352>
CounterMasks: 1 1c
AnchorPoint: "Yerik" 272 858 basechar 0
AnchorPoint: "Diacritic" 177 858 basechar 0
LayerCount: 2
Fore
SplineSet
350 0 m 1
 238 0 l 1
 238 10 l 1
 255 10 l 1
 255 342 l 2
 255 345 254 349 254 352 c 1
 210 352 l 1
 210 10 l 1
 227 10 l 1
 227 0 l 1
 128 0 l 1
 128 10 l 1
 145 10 l 1
 145 352 l 1
 100 352 l 1
 100 10 l 1
 117 10 l 1
 117 0 l 1
 5 0 l 1
 5 10 l 1
 35 10 l 1
 35 334 l 2
 35 370 57 409 94 438 c 0
 115 455 127 477 133 491 c 0
 139 505 143 520 145 543 c 1
 145 790 l 1
 115 790 l 1
 115 800 l 1
 240 800 l 1
 240 790 l 1
 210 790 l 1
 210 579 l 2
 210 534 217 485 259 451 c 0
 299 419 320 390 320 315 c 2
 320 10 l 1
 350 10 l 1
 350 0 l 1
111 426 m 0
 102 412 100 399 100 386 c 2
 100 362 l 1
 251 362 l 1
 242 386 218 405 194 427 c 0
 168 449 154 475 148 503 c 1
 147 496 145 491 143 486 c 0
 137 470 126 449 111 426 c 0
EndSplineSet
Validated: 1
EndChar

StartChar: afii10051
Encoding: 1026 1026 61
Width: 360
Flags: W
HStem: 0 20<86 274> 780 20<86 273>
VStem: 50 20<40 762> 290 20<40 762>
LayerCount: 2
Fore
SplineSet
310 0 m 1
 50 0 l 1
 50 800 l 1
 310 800 l 1
 310 0 l 1
190 401 m 1
 290 40 l 1
 290 762 l 1
 190 401 l 1
169 401 m 1
 70 762 l 1
 70 40 l 1
 169 401 l 1
180 362 m 1
 86 20 l 1
 274 20 l 1
 180 362 l 1
86 780 m 1
 180 440 l 1
 273 780 l 1
 86 780 l 1
EndSplineSet
Validated: 1
EndChar

StartChar: quotesinglbase
Encoding: 8218 8218 63
Width: 132
Flags: W
HStem: 0 224
VStem: 20 26<0 23.0152> 70 42<193.985 224>
LayerCount: 2
Fore
SplineSet
112 217 m 1
 46 0 l 1
 20 0 l 1
 20 7 l 1
 70 224 l 1
 112 224 l 1
 112 217 l 1
EndSplineSet
Validated: 1
EndChar

StartChar: quotedblbase
Encoding: 8222 8222 65
Width: 202
Flags: W
HStem: 0 224
VStem: 20 26<0 23.0152> 70 42<193.985 224> 90 26<0 23.0152> 140 42<193.985 224>
LayerCount: 2
Fore
SplineSet
182 217 m 1xd8
 116 0 l 1
 90 0 l 1
 90 7 l 1
 140 224 l 1
 182 224 l 1
 182 217 l 1xd8
112 217 m 1xe8
 46 0 l 1
 20 0 l 1
 20 7 l 1
 70 224 l 1
 112 224 l 1
 112 217 l 1xe8
EndSplineSet
Validated: 1
EndChar

StartChar: uni2DE5
Encoding: 11749 11749 66
Width: 1
Flags: W
HStem: 857 13<-93.7705 -31.8278> 882 13<-275.32 -248.166> 912 28<-88.0262 -15.5228> 930 54<-249.766 -221.281> 982 17<-187.24 -134>
VStem: -297 21<895.628 905.953> -266 61<946.141 975.144> -15 28<878.108 910.375>
AnchorPoint: "Stack" -142 1046 basemark 0
AnchorPoint: "Stack" -142 858 mark 0
AnchorPoint: "Diacritic" -142 858 mark 0
LayerCount: 2
Fore
SplineSet
-276 903 m 0xd7
 -276 894 -259 895 -254 895 c 0
 -248 895 -244 882 -255 882 c 0
 -271 882 -297 883 -297 900 c 0
 -295 911 -282 931 -263 946 c 1
 -265 949 -266 952 -266 955 c 0
 -266 965 -259 976 -250 981 c 0
 -245 983 -240 984 -235 984 c 0xd7
 -227 984 -221 982 -215 978 c 1
 -194 990 -168 999 -141 999 c 0
 -127 999 -103 992 -99 983 c 0
 -95 969 -89 940 -65 940 c 0
 -59 940 -52 941 -45 941 c 0
 -17 941 13 936 13 909 c 0
 13 906 13 902 12 898 c 0
 6 878 -15 858 -59 857 c 0
 -61 857 -63 857 -65 857 c 0
 -86 857 -102 862 -115 870 c 0
 -119 873 -120 876 -120 878 c 0
 -120 881 -117 884 -112 884 c 0
 -109 884 -105 883 -101 881 c 0
 -95 878 -88 870 -79 870 c 0
 -76 870 -72 870 -69 870 c 0
 -37 870 -15 879 -15 900 c 0
 -15 912 -35 912 -63 912 c 0
 -78 912 -94 911 -106 911 c 0
 -110 911 -113 914 -115 915 c 0
 -130 932 -140 954 -144 979 c 0
 -146 981 -149 982 -151 982 c 0xef
 -169 982 -187 974 -205 966 c 1
 -205 965 -205 963 -205 962 c 0
 -205 953 -210 940 -221 934 c 0
 -227 931 -232 930 -237 930 c 0
 -243 930 -249 932 -254 934 c 1
 -269 921 -277 912 -277 906 c 0
 -277 905 -276 904 -276 903 c 0xd7
EndSplineSet
Validated: 1
EndChar

StartChar: afii10058
Encoding: 1033 1033 67
Width: 360
Flags: W
HStem: 0 20<86 274> 780 20<86 273>
VStem: 50 20<40 762> 290 20<40 762>
LayerCount: 2
Fore
SplineSet
310 0 m 1
 50 0 l 1
 50 800 l 1
 310 800 l 1
 310 0 l 1
190 401 m 1
 290 40 l 1
 290 762 l 1
 190 401 l 1
169 401 m 1
 70 762 l 1
 70 40 l 1
 169 401 l 1
180 362 m 1
 86 20 l 1
 274 20 l 1
 180 362 l 1
86 780 m 1
 180 440 l 1
 273 780 l 1
 86 780 l 1
EndSplineSet
Validated: 1
EndChar

StartChar: afii10059
Encoding: 1034 1034 68
Width: 360
Flags: W
HStem: 0 20<86 274> 780 20<86 273>
VStem: 50 20<40 762> 290 20<40 762>
LayerCount: 2
Fore
SplineSet
310 0 m 1
 50 0 l 1
 50 800 l 1
 310 800 l 1
 310 0 l 1
190 401 m 1
 290 40 l 1
 290 762 l 1
 190 401 l 1
169 401 m 1
 70 762 l 1
 70 40 l 1
 169 401 l 1
180 362 m 1
 86 20 l 1
 274 20 l 1
 180 362 l 1
86 780 m 1
 180 440 l 1
 273 780 l 1
 86 780 l 1
EndSplineSet
Validated: 1
EndChar

StartChar: afii10060
Encoding: 1035 1035 70
Width: 360
Flags: W
HStem: 0 20<86 274> 780 20<86 273>
VStem: 50 20<40 762> 290 20<40 762>
LayerCount: 2
Fore
SplineSet
310 0 m 1
 50 0 l 1
 50 800 l 1
 310 800 l 1
 310 0 l 1
190 401 m 1
 290 40 l 1
 290 762 l 1
 190 401 l 1
169 401 m 1
 70 762 l 1
 70 40 l 1
 169 401 l 1
180 362 m 1
 86 20 l 1
 274 20 l 1
 180 362 l 1
86 780 m 1
 180 440 l 1
 273 780 l 1
 86 780 l 1
EndSplineSet
Validated: 1
EndChar

StartChar: afii10145
Encoding: 1039 1039 71
Width: 360
Flags: W
HStem: 0 20<86 274> 780 20<86 273>
VStem: 50 20<40 762> 290 20<40 762>
LayerCount: 2
Fore
SplineSet
310 0 m 1
 50 0 l 1
 50 800 l 1
 310 800 l 1
 310 0 l 1
190 401 m 1
 290 40 l 1
 290 762 l 1
 190 401 l 1
169 401 m 1
 70 762 l 1
 70 40 l 1
 169 401 l 1
180 362 m 1
 86 20 l 1
 274 20 l 1
 180 362 l 1
86 780 m 1
 180 440 l 1
 273 780 l 1
 86 780 l 1
EndSplineSet
Validated: 1
EndChar

StartChar: afii10099
Encoding: 1106 1106 72
Width: 360
Flags: W
HStem: 0 20<86 274> 780 20<86 273>
VStem: 50 20<40 762> 290 20<40 762>
LayerCount: 2
Fore
SplineSet
310 0 m 1
 50 0 l 1
 50 800 l 1
 310 800 l 1
 310 0 l 1
190 401 m 1
 290 40 l 1
 290 762 l 1
 190 401 l 1
169 401 m 1
 70 762 l 1
 70 40 l 1
 169 401 l 1
180 362 m 1
 86 20 l 1
 274 20 l 1
 180 362 l 1
86 780 m 1
 180 440 l 1
 273 780 l 1
 86 780 l 1
EndSplineSet
Validated: 1
EndChar

StartChar: quoteleft
Encoding: 8216 8216 73
Width: 132
Flags: W
HStem: 576 224
VStem: 21 42<576 606.015> 87 26<776.985 800>
LayerCount: 2
Fore
SplineSet
113 793 m 1
 63 576 l 1
 21 576 l 1
 21 583 l 1
 87 800 l 1
 113 800 l 1
 113 793 l 1
EndSplineSet
Validated: 1
EndChar

StartChar: quoteright
Encoding: 8217 8217 74
Width: 132
Flags: W
HStem: 576 224
VStem: 20 26<576 599.015> 70 42<769.985 800>
LayerCount: 2
Fore
SplineSet
112 793 m 1
 46 576 l 1
 20 576 l 1
 20 583 l 1
 70 800 l 1
 112 800 l 1
 112 793 l 1
EndSplineSet
Validated: 1
EndChar

StartChar: quotedblleft
Encoding: 8220 8220 75
Width: 202
Flags: W
HStem: 576 224
VStem: 21 42<576 606.015> 87 26<776.985 800> 91 42<576 606.015> 157 26<776.985 800>
LayerCount: 2
Fore
SplineSet
113 793 m 1xe8
 63 576 l 1
 21 576 l 1
 21 583 l 1
 87 800 l 1
 113 800 l 1
 113 793 l 1xe8
183 793 m 1
 133 576 l 1
 91 576 l 1
 91 583 l 1xd8
 157 800 l 1
 183 800 l 1
 183 793 l 1
EndSplineSet
Validated: 1
EndChar

StartChar: quotedblright
Encoding: 8221 8221 76
Width: 202
Flags: W
HStem: 576 224
VStem: 20 26<576 599.015> 70 42<769.985 800> 90 26<576 599.015> 140 42<769.985 800>
LayerCount: 2
Fore
SplineSet
182 793 m 1xd8
 116 576 l 1
 90 576 l 1
 90 583 l 1
 140 800 l 1
 182 800 l 1
 182 793 l 1xd8
112 793 m 1xe8
 46 576 l 1
 20 576 l 1
 20 583 l 1
 70 800 l 1
 112 800 l 1
 112 793 l 1xe8
EndSplineSet
Validated: 1
EndChar

StartChar: uni2DE4
Encoding: 11748 11748 77
Width: 1
Flags: W
HStem: 931 58<-50.4851 33.2366> 953 36<-90.0198 -8.5>
VStem: -258 294
AnchorPoint: "Stack" -157 1076 basemark 0
AnchorPoint: "Stack" -157 848 mark 0
AnchorPoint: "Diacritic" -154 847 mark 0
LayerCount: 2
Fore
SplineSet
-157 887 m 1x60
 -174 874 -197 863 -214 856 c 0
 -218 854 -222 853 -225 853 c 0
 -231 853 -235 857 -235 860 c 0
 -235 862 -233 864 -230 866 c 0
 -207 876 -190 889 -176 905 c 1
 -198 921 -221 952 -258 957 c 1
 -241 965 -232 981 -216 996 c 1
 -191 995 -183 979 -161 977 c 0
 -139 977 -121 983 -100 997 c 0
 -98 999 -94 997 -94 995 c 0
 -92 984 -93 977 -84 969 c 1
 -68 978 -40 989 -13 989 c 0
 -4 989 5 988 14 985 c 0
 29 979 36 967 36 954 c 0
 36 945 15 931 -3 931 c 0xa0
 -10 931 -17 934 -22 939 c 0
 -30 949 -40 953 -51 953 c 0
 -74 953 -102 936 -118 921 c 1
 -109 887 -86 871 -67 857 c 0
 -62 854 -61 851 -61 849 c 0
 -61 845 -67 844 -73 844 c 0
 -76 844 -78 844 -81 845 c 0
 -110 853 -134 869 -157 887 c 1x60
EndSplineSet
Validated: 1
EndChar

StartChar: endash
Encoding: 8211 8211 78
Width: 295
Flags: W
HStem: 380 40<25 270>
VStem: 25 245<380 420>
LayerCount: 2
Fore
SplineSet
270 380 m 1
 25 380 l 1
 25 420 l 1
 270 420 l 1
 270 380 l 1
EndSplineSet
Validated: 1
EndChar

StartChar: emdash
Encoding: 8212 8212 79
Width: 455
Flags: W
HStem: 380 40<25 430>
LayerCount: 2
Fore
SplineSet
430 380 m 1
 25 380 l 1
 25 420 l 1
 430 420 l 1
 430 380 l 1
EndSplineSet
Validated: 1
EndChar

StartChar: afii10106
Encoding: 1113 1113 80
Width: 360
Flags: W
HStem: 0 20<86 274> 780 20<86 273>
VStem: 50 20<40 762> 290 20<40 762>
LayerCount: 2
Fore
SplineSet
310 0 m 1
 50 0 l 1
 50 800 l 1
 310 800 l 1
 310 0 l 1
190 401 m 1
 290 40 l 1
 290 762 l 1
 190 401 l 1
169 401 m 1
 70 762 l 1
 70 40 l 1
 169 401 l 1
180 362 m 1
 86 20 l 1
 274 20 l 1
 180 362 l 1
86 780 m 1
 180 440 l 1
 273 780 l 1
 86 780 l 1
EndSplineSet
Validated: 1
EndChar

StartChar: afii10107
Encoding: 1114 1114 81
Width: 360
Flags: W
HStem: 0 20<86 274> 780 20<86 273>
VStem: 50 20<40 762> 290 20<40 762>
LayerCount: 2
Fore
SplineSet
310 0 m 1
 50 0 l 1
 50 800 l 1
 310 800 l 1
 310 0 l 1
190 401 m 1
 290 40 l 1
 290 762 l 1
 190 401 l 1
169 401 m 1
 70 762 l 1
 70 40 l 1
 169 401 l 1
180 362 m 1
 86 20 l 1
 274 20 l 1
 180 362 l 1
86 780 m 1
 180 440 l 1
 273 780 l 1
 86 780 l 1
EndSplineSet
Validated: 1
EndChar

StartChar: afii10108
Encoding: 1115 1115 83
Width: 360
Flags: W
HStem: 0 20<86 274> 780 20<86 273>
VStem: 50 20<40 762> 290 20<40 762>
LayerCount: 2
Fore
SplineSet
310 0 m 1
 50 0 l 1
 50 800 l 1
 310 800 l 1
 310 0 l 1
190 401 m 1
 290 40 l 1
 290 762 l 1
 190 401 l 1
169 401 m 1
 70 762 l 1
 70 40 l 1
 169 401 l 1
180 362 m 1
 86 20 l 1
 274 20 l 1
 180 362 l 1
86 780 m 1
 180 440 l 1
 273 780 l 1
 86 780 l 1
EndSplineSet
Validated: 1
EndChar

StartChar: afii10193
Encoding: 1119 1119 84
Width: 360
Flags: W
HStem: 0 20<86 274> 780 20<86 273>
VStem: 50 20<40 762> 290 20<40 762>
LayerCount: 2
Fore
SplineSet
310 0 m 1
 50 0 l 1
 50 800 l 1
 310 800 l 1
 310 0 l 1
190 401 m 1
 290 40 l 1
 290 762 l 1
 190 401 l 1
169 401 m 1
 70 762 l 1
 70 40 l 1
 169 401 l 1
180 362 m 1
 86 20 l 1
 274 20 l 1
 180 362 l 1
86 780 m 1
 180 440 l 1
 273 780 l 1
 86 780 l 1
EndSplineSet
Validated: 1
EndChar

StartChar: afii10057
Encoding: 1032 1032 88
Width: 360
Flags: W
HStem: 0 20<86 274> 780 20<86 273>
VStem: 50 20<40 762> 290 20<40 762>
LayerCount: 2
Fore
SplineSet
310 0 m 1
 50 0 l 1
 50 800 l 1
 310 800 l 1
 310 0 l 1
190 401 m 1
 290 40 l 1
 290 762 l 1
 190 401 l 1
169 401 m 1
 70 762 l 1
 70 40 l 1
 169 401 l 1
180 362 m 1
 86 20 l 1
 274 20 l 1
 180 362 l 1
86 780 m 1
 180 440 l 1
 273 780 l 1
 86 780 l 1
EndSplineSet
Validated: 1
EndChar

StartChar: uni0482
Encoding: 1154 1154 89
Width: 218
Flags: W
HStem: -8 253
VStem: 15 188
LayerCount: 2
Fore
SplineSet
203 135 m 1
 184 100 l 1
 137 124 l 1
 133 114 127 101 123 90 c 1
 174 67 l 1
 151 32 l 1
 138 38 125 43 107 53 c 1
 93 27 85 6 81 -8 c 1
 40 6 l 1
 46 19 55 43 69 73 c 1
 48 82 28 92 15 98 c 1
 38 134 l 1
 50 129 67 118 86 111 c 1
 90 120 95 131 100 143 c 1
 79 154 59 163 48 170 c 1
 67 206 l 1
 79 199 98 190 116 181 c 1
 131 208 141 229 145 245 c 1
 185 229 l 1
 179 214 168 193 154 161 c 1
 175 152 189 144 203 135 c 1
EndSplineSet
Validated: 1
EndChar

StartChar: guillemotleft
Encoding: 171 171 92
Width: 230
Flags: W
VStem: 28 177
LayerCount: 2
Fore
SplineSet
125 147 m 1
 119 147 l 1
 28 398 l 1
 28 402 l 1
 119 649 l 1
 125 649 l 1
 81 400 l 1
 125 147 l 1
205 147 m 1
 199 147 l 1
 108 398 l 1
 108 402 l 1
 199 649 l 1
 205 649 l 1
 161 400 l 1
 205 147 l 1
EndSplineSet
Validated: 1
EndChar

StartChar: logicalnot
Encoding: 172 172 93
Width: 215
Flags: W
HStem: 380 40<25 150>
VStem: 150 40<300 380>
LayerCount: 2
Fore
SplineSet
190 300 m 1
 150 300 l 1
 150 380 l 1
 25 380 l 1
 25 420 l 1
 190 420 l 1
 190 300 l 1
EndSplineSet
Validated: 1
EndChar

StartChar: uniA67E
Encoding: 42622 42622 94
Width: 234
Flags: W
HStem: 705 20<93.7803 140.615>
VStem: 20 65<726.595 800> 150 64<726.595 800>
LayerCount: 2
Fore
SplineSet
117 705 m 0
 59 705 20 727 20 775 c 2
 20 800 l 1
 85 800 l 1
 85 775 l 2
 85 747 90 725 117 725 c 0
 145 725 150 747 150 775 c 2
 150 800 l 1
 214 800 l 1
 214 775 l 2
 214 727 175 705 117 705 c 0
EndSplineSet
Validated: 1
EndChar

StartChar: uni0407
Encoding: 1031 1031 95
Width: 135
Flags: W
HStem: 0 10<5 35 100 130> 790 10<5 35 100 130>
VStem: 35 65<10 790>
AnchorPoint: "Yerik" 63 998 basechar 0
AnchorPoint: "Diacritic" 64 998 basechar 0
LayerCount: 2
Fore
SplineSet
130 0 m 1
 5 0 l 1
 5 10 l 1
 35 10 l 1
 35 790 l 1
 5 790 l 1
 5 800 l 1
 130 800 l 1
 130 790 l 1
 100 790 l 1
 100 10 l 1
 130 10 l 1
 130 0 l 1
41 870 m 1
 41 864 l 1
 0 864 l 1
 -46 941 l 1
 -46 947 l 1
 -5 947 l 1
 41 870 l 1
137 870 m 1
 137 864 l 1
 96 864 l 1
 50 941 l 1
 50 947 l 1
 91 947 l 1
 137 870 l 1
EndSplineSet
Validated: 1
LCarets2: 1 0
Ligature2: "'ccmp' Glyph Composition/Decomposition in Cyrillic-1" uni0406 uni0308
EndChar

StartChar: uni0457
Encoding: 1111 1111 96
Width: 135
Flags: W
HStem: 0 10<5 35 100 130> 790 10<5 35 100 130>
VStem: 35 65<10 790>
AnchorPoint: "Yerik" 62 998 basechar 0
AnchorPoint: "Diacritic" 62 998 basechar 0
LayerCount: 2
Fore
SplineSet
130 0 m 1
 5 0 l 1
 5 10 l 1
 35 10 l 1
 35 790 l 1
 5 790 l 1
 5 800 l 1
 130 800 l 1
 130 790 l 1
 100 790 l 1
 100 10 l 1
 130 10 l 1
 130 0 l 1
41 870 m 1
 41 864 l 1
 0 864 l 1
 -46 941 l 1
 -46 947 l 1
 -5 947 l 1
 41 870 l 1
137 870 m 1
 137 864 l 1
 96 864 l 1
 50 941 l 1
 50 947 l 1
 91 947 l 1
 137 870 l 1
EndSplineSet
Validated: 1
LCarets2: 1 0
Ligature2: "'ccmp' Glyph Composition/Decomposition in Cyrillic-1" uni0456 uni0308
EndChar

StartChar: uni0423
Encoding: 1059 1059 97
Width: 236
Flags: W
HStem: 0 10<65 108 118 160> 741 65<166.666 224> 790 10<5 32 97 130>
AnchorPoint: "Yerik" 182 858 basechar 0
AnchorPoint: "Diacritic" 122 858 basechar 0
LayerCount: 2
Fore
SplineSet
160 0 m 1xc0
 65 0 l 1
 65 10 l 1
 108 10 l 1
 125 332 l 1
 61 332 l 1
 32 790 l 1
 5 790 l 1
 5 800 l 1
 130 800 l 1
 130 790 l 1
 97 790 l 1xa0
 125 346 l 1
 145 715 l 2
 147 761 161 806 198 806 c 2
 224 806 l 1
 224 741 l 1
 194 741 l 2
 175 741 156 721 152 644 c 2
 118 10 l 1
 160 10 l 1
 160 0 l 1xc0
EndSplineSet
Validated: 1
EndChar

StartChar: paragraph
Encoding: 182 182 98
Width: 265
Flags: W
HStem: 0 10<80 100 110 127 138 155 220 250> 790 10<114.768 155 220 250>
VStem: 45 65<146.334 770.649> 100 10<10 130.559> 155 65<10 790>
LayerCount: 2
Fore
SplineSet
250 0 m 1xe8
 138 0 l 1
 138 10 l 1
 155 10 l 1
 155 790 l 1
 132 790 l 2
 121 790 110 786 110 775 c 2
 110 10 l 1
 127 10 l 1
 127 0 l 1
 80 0 l 1
 80 10 l 1
 100 10 l 1
 100 130 l 1xd8
 60 135 45 171 45 215 c 2
 45 715 l 2
 45 762 85 800 132 800 c 2
 250 800 l 1
 250 790 l 1
 220 790 l 1
 220 10 l 1
 250 10 l 1
 250 0 l 1xe8
EndSplineSet
Validated: 1
EndChar

StartChar: periodcentered
Encoding: 183 183 99
Width: 159
Flags: W
HStem: 355 90<43.4399 118.56>
VStem: 37 88<361.481 438.519>
LayerCount: 2
Fore
SplineSet
37 400 m 0
 37 425 57 445 81 445 c 0
 105 445 125 425 125 400 c 0
 125 375 105 355 81 355 c 0
 57 355 37 375 37 400 c 0
EndSplineSet
Validated: 1
EndChar

StartChar: guillemotright
Encoding: 187 187 102
Width: 230
Flags: W
VStem: 25 177
LayerCount: 2
Fore
SplineSet
202 398 m 1
 111 147 l 1
 105 147 l 1
 149 400 l 1
 105 649 l 1
 111 649 l 1
 202 402 l 1
 202 398 l 1
122 398 m 1
 31 147 l 1
 25 147 l 1
 69 400 l 1
 25 649 l 1
 31 649 l 1
 122 402 l 1
 122 398 l 1
EndSplineSet
Validated: 1
EndChar

StartChar: afii10105
Encoding: 1112 1112 103
Width: 360
Flags: W
HStem: 0 20<86 274> 780 20<86 273>
VStem: 50 20<40 762> 290 20<40 762>
LayerCount: 2
Fore
SplineSet
310 0 m 1
 50 0 l 1
 50 800 l 1
 310 800 l 1
 310 0 l 1
190 401 m 1
 290 40 l 1
 290 762 l 1
 190 401 l 1
169 401 m 1
 70 762 l 1
 70 40 l 1
 169 401 l 1
180 362 m 1
 86 20 l 1
 274 20 l 1
 180 362 l 1
86 780 m 1
 180 440 l 1
 273 780 l 1
 86 780 l 1
EndSplineSet
Validated: 1
EndChar

StartChar: afii10054
Encoding: 1029 1029 104
Width: 245
Flags: W
HStem: -12 9<107.03 138.635> 205 10<5 35 100 130> 396 10<102.588 138.996> 444 10<106.004 143.104> 585 10<115 145 210 240> 803 9<106.365 137.97>
VStem: 35 65<17.3511 205 468.22 782.649> 145 65<17.3511 381.78 595 782.649>
AnchorPoint: "Yerik" 182 858 basechar 0
AnchorPoint: "Diacritic" 122 858 basechar 0
LayerCount: 2
Fore
SplineSet
199 481 m 2
 101 401 l 1
 109 404 116 406 123 406 c 0
 171 406 210 377 210 330 c 2
 210 73 l 2
 210 26 171 -12 123 -12 c 0
 76 -12 35 26 35 73 c 2
 35 205 l 1
 5 205 l 1
 5 215 l 1
 130 215 l 1
 130 205 l 1
 100 205 l 1
 100 13 l 2
 100 2 111 -3 123 -3 c 0
 134 -3 145 2 145 13 c 2
 145 380 l 2
 145 391 134 396 123 396 c 0
 102 396 69 374 52 361 c 0
 47 357 40 364 46 368 c 2
 144 449 l 1
 136 446 128 444 122 444 c 0
 74 444 35 473 35 520 c 2
 35 727 l 2
 35 774 74 812 122 812 c 0
 169 812 210 774 210 727 c 2
 210 595 l 1
 240 595 l 1
 240 585 l 1
 115 585 l 1
 115 595 l 1
 145 595 l 1
 145 787 l 2
 145 798 134 803 122 803 c 0
 111 803 100 798 100 787 c 2
 100 470 l 2
 100 459 111 454 122 454 c 0
 143 454 175 475 193 489 c 0
 198 493 204 485 199 481 c 2
EndSplineSet
Validated: 1
EndChar

StartChar: afii10102
Encoding: 1109 1109 105
Width: 245
Flags: W
HStem: -12 9<107.03 138.635> 205 10<5 35 100 130> 396 10<102.588 138.996> 444 10<106.004 143.104> 585 10<115 145 210 240> 803 9<106.365 137.97>
VStem: 35 65<17.3511 205 468.22 782.649> 145 65<17.3511 381.78 595 782.649>
AnchorPoint: "Yerik" 182 858 basechar 0
AnchorPoint: "Diacritic" 122 858 basechar 0
LayerCount: 2
Fore
SplineSet
199 481 m 2
 101 401 l 1
 109 404 116 406 123 406 c 0
 171 406 210 377 210 330 c 2
 210 73 l 2
 210 26 171 -12 123 -12 c 0
 76 -12 35 26 35 73 c 2
 35 205 l 1
 5 205 l 1
 5 215 l 1
 130 215 l 1
 130 205 l 1
 100 205 l 1
 100 13 l 2
 100 2 111 -3 123 -3 c 0
 134 -3 145 2 145 13 c 2
 145 380 l 2
 145 391 134 396 123 396 c 0
 102 396 69 374 52 361 c 0
 47 357 40 364 46 368 c 2
 144 449 l 1
 136 446 128 444 122 444 c 0
 74 444 35 473 35 520 c 2
 35 727 l 2
 35 774 74 812 122 812 c 0
 169 812 210 774 210 727 c 2
 210 595 l 1
 240 595 l 1
 240 585 l 1
 115 585 l 1
 115 595 l 1
 145 595 l 1
 145 787 l 2
 145 798 134 803 122 803 c 0
 111 803 100 798 100 787 c 2
 100 470 l 2
 100 459 111 454 122 454 c 0
 143 454 175 475 193 489 c 0
 198 493 204 485 199 481 c 2
EndSplineSet
Validated: 1
EndChar

StartChar: .null
Encoding: 0 0 106
Width: 360
Flags: W
HStem: 0 20<86 274> 780 20<86 273>
VStem: 50 20<40 762> 290 20<40 762>
LayerCount: 2
Fore
SplineSet
310 0 m 1
 50 0 l 1
 50 800 l 1
 310 800 l 1
 310 0 l 1
190 401 m 1
 290 40 l 1
 290 762 l 1
 190 401 l 1
169 401 m 1
 70 762 l 1
 70 40 l 1
 169 401 l 1
180 362 m 1
 86 20 l 1
 274 20 l 1
 180 362 l 1
86 780 m 1
 180 440 l 1
 273 780 l 1
 86 780 l 1
EndSplineSet
Validated: 1
EndChar

StartChar: afii10017
Encoding: 1040 1040 107
Width: 245
Flags: W
HStem: 0 10<5 35 100 117 128 145 210 240> 342 10<101.875 104> 793 10<90.8643 116.182 130 145 210 240>
VStem: 35 65<10 281.365> 43 41<717.966 783.096> 46 54<352.216 454.599> 84 42<556.865 641.627> 145 65<10 790>
AnchorPoint: "Yerik" 178 858 basechar 0
AnchorPoint: "Diacritic" 140 858 basechar 0
LayerCount: 2
Fore
SplineSet
104 793 m 0xe5
 91 793 84 783 84 773 c 0xe9
 84 761 88 751 93 741 c 0
 107 711 126 680 126 639 c 0
 126 575 88 526 63 490 c 0
 59 484 51 490 55 496 c 0
 70 516 84 532 84 571 c 0xe3
 84 591 82 598 74 616 c 0
 61 647 43 686 43 730 c 0xe9
 43 767 71 803 101 803 c 0
 122 803 135 785 143 765 c 0
 143 763 144 761 145 759 c 1
 145 790 l 1
 130 790 l 1
 130 800 l 1
 240 800 l 1
 240 790 l 1
 210 790 l 1
 210 10 l 1
 240 10 l 1
 240 0 l 1
 128 0 l 1
 128 10 l 1
 145 10 l 1
 145 375 l 1
 134 362 121 347 114 338 c 0
 101 323 100 303 100 283 c 0xe5
 100 278 100 273 100 268 c 2
 100 10 l 1
 117 10 l 1
 117 0 l 1
 5 0 l 1
 5 10 l 1
 35 10 l 1
 35 212 l 2xf1
 35 265 71 306 104 342 c 1
 91 342 l 2
 59 342 47 363 46 383 c 0
 46 385 46 387 46 389 c 0
 46 420 53 435 71 459 c 0
 89 484 100 496 117 525 c 0
 130 547 139 572 145 595 c 1
 145 719 l 1
 140 741 128 793 104 793 c 0xe5
125 519 m 0
 108 490 100 466 100 433 c 2
 100 368 l 2xe5
 100 360 102 352 109 352 c 2
 113 352 l 1
 125 365 136 379 145 390 c 1
 145 559 l 1
 140 545 133 532 125 519 c 0
EndSplineSet
Validated: 1
EndChar

StartChar: afii10018
Encoding: 1041 1041 108
Width: 245
Flags: W
HStem: 0 10<5 35 100 145 210 240> 790 10<5 35 100 127>
VStem: 35 65<10 790> 127 54<652.708 789.993> 145 65<10 399.776> 194 7<533.751 539.153>
AnchorPoint: "Yerik" 182 858 basechar 0
AnchorPoint: "Diacritic" 122 858 basechar 0
LayerCount: 2
Fore
SplineSet
5 0 m 1xe8
 5 10 l 1
 35 10 l 1
 35 790 l 1
 5 790 l 1
 5 800 l 1
 193 800 l 1
 194 797 194 794 193 790 c 0
 189 768 181 721 181 685 c 0
 181 631 184 580 201 535 c 0
 202 532 195 529 194 532 c 0
 192 537 185 550 181 561 c 0
 162 610 153 631 141 683 c 0
 132 719 127 769 127 790 c 1xf4
 100 790 l 1
 100 510 l 1
 102 479 112 457 136 433 c 0
 158 410 184 399 210 394 c 1
 210 10 l 1
 240 10 l 1
 240 0 l 1
 5 0 l 1xe8
100 464 m 1
 100 10 l 1
 145 10 l 1
 145 410 l 1xe8
 127 425 109 444 100 464 c 1
EndSplineSet
Validated: 1
EndChar

StartChar: afii10019
Encoding: 1042 1042 109
Width: 245
Flags: W
HStem: 0 10<5 35 100 145 210 240> 803 9<106.365 137.97>
VStem: 35 65<10 447 471 782.649> 115 8<506.471 517.889> 145 65<10 390.07 462.912 782.649>
AnchorPoint: "Yerik" 182 858 basechar 0
AnchorPoint: "Diacritic" 122 858 basechar 0
LayerCount: 2
Fore
SplineSet
5 0 m 1
 5 10 l 1
 35 10 l 1
 35 727 l 2
 35 774 74 812 122 812 c 0
 169 812 210 774 210 727 c 2
 210 510 l 2
 210 472 185 442 164 442 c 0
 144 442 121 452 115 479 c 0
 115 480 114 480 114 481 c 1
 112 473 108 466 105 459 c 1
 114 443 127 427 145 412 c 0
 160 399 187 389 210 385 c 1
 210 10 l 1
 240 10 l 1
 240 0 l 1
 5 0 l 1
139 403 m 0
 122 417 109 432 100 447 c 1
 100 10 l 1
 145 10 l 1
 145 398 l 1
 142 399 141 401 139 403 c 0
138 462 m 1
 143 465 145 477 145 487 c 2
 145 787 l 2
 145 798 134 803 122 803 c 0
 111 803 100 798 100 787 c 2
 100 471 l 1
 105 485 110 500 113 514 c 0
 114 521 124 519 123 512 c 0
 123 493 125 466 138 462 c 1
EndSplineSet
Validated: 1
EndChar

StartChar: afii10020
Encoding: 1043 1043 110
Width: 196
Flags: W
HStem: 0 10<5 35 100 130> 790 10<5 35 100 114>
VStem: 35 65<10 790> 114 49<637.896 789.989> 172 7<528.555 533.222>
AnchorPoint: "Yerik" 152 858 basechar 0
AnchorPoint: "Diacritic" 102 858 basechar 0
LayerCount: 2
Fore
SplineSet
179 530 m 0
 180 527 174 523 172 527 c 0
 168 534 162 547 159 557 c 0
 139 615 114 716 114 790 c 1
 100 790 l 1
 100 10 l 1
 130 10 l 1
 130 0 l 1
 5 0 l 1
 5 10 l 1
 35 10 l 1
 35 790 l 1
 5 790 l 1
 5 800 l 1
 178 800 l 1
 179 797 180 794 179 790 c 0
 169 754 163 712 163 658 c 0
 163 610 165 564 179 530 c 0
EndSplineSet
Validated: 1
EndChar

StartChar: afii10021
Encoding: 1044 1044 111
Width: 240
Flags: W
HStem: 0 10<75 136> 793 10<83.0843 107.999 121 136 201 231>
VStem: 1 7<-256.249 -250.847> 21 54<-137.292 -0.00660075> 36 41<717.15 784.102> 82 39<548.251 646.199> 82 10<108.891 381.957> 136 65<10 790> 165 54<-137.292 -0.00660075> 232 7<-256.249 -250.847>
AnchorPoint: "Yerik" 182 858 basechar 0
AnchorPoint: "Diacritic" 122 858 basechar 0
LayerCount: 2
Fore
SplineSet
96 793 m 0xf340
 83 793 77 783 77 773 c 0
 77 761 81 751 86 741 c 0
 95 721 99 716 106 696 c 0
 114 674 121 662 121 639 c 0
 121 610 119 586 108 561 c 0
 92 526 78 510 61 485 c 0
 57 479 49 485 53 491 c 0
 68 511 82 527 82 566 c 0
 82 586 77 598 69 616 c 0
 64 628 50 657 44 673 c 0
 37 693 36 707 36 730 c 0
 36 767 63 803 93 803 c 0
 112 803 126 785 134 765 c 0
 134 763 135 761 136 759 c 1
 136 790 l 1
 121 790 l 1
 121 800 l 1
 231 800 l 1
 231 790 l 1
 201 790 l 1
 201 10 l 1xed40
 231 10 l 1
 232 7 232 4 231 0 c 0
 227 -22 219 -69 219 -105 c 0
 219 -159 222 -210 239 -255 c 0
 240 -258 233 -261 232 -258 c 0
 230 -253 223 -240 219 -229 c 0
 200 -180 191 -159 179 -107 c 0
 170 -70 165 -21 165 0 c 1xe0c0
 75 0 l 1
 74 -21 69 -70 61 -107 c 0
 49 -159 40 -180 21 -229 c 0
 17 -240 10 -253 8 -258 c 0
 7 -261 0 -258 1 -255 c 0
 18 -209 21 -159 21 -105 c 0
 21 -69 13 -22 9 0 c 0
 8 4 8 7 9 10 c 1
 62 10 l 1
 73 29 78 98 78 139 c 0
 78 187 80 289 82 322 c 0
 85 365 87 402 96 433 c 0
 104 462 111 475 119 504 c 0
 126 531 132 557 136 582 c 1
 136 718 l 1
 131 741 120 793 96 793 c 0xf340
106 431 m 0
 97 400 95 363 92 322 c 0xe340
 90 289 88 187 88 139 c 0
 88 100 82 36 73 10 c 1
 136 10 l 1
 136 529 l 1
 128 491 116 466 106 431 c 0
EndSplineSet
Validated: 1
EndChar

StartChar: afii10022
Encoding: 1045 1045 112
Width: 245
Flags: W
HStem: -12 10<78.8018 113.171> 345 10<115 145 214 240> 494 25<121.997 170.5> 585 10<115 145 210 240> 803 9<106.365 137.97>
VStem: 30 43<14.9126 87.0227> 35 65<42.9051 131.969 206.752 460 480 782.649> 145 67<121.732 345 435 492.974 595 779.501>
AnchorPoint: "Yerik" 182 858 basechar 0
AnchorPoint: "Diacritic" 122 858 basechar 0
LayerCount: 2
Fore
SplineSet
107 491 m 1xfb
 122 512 141 519 160 519 c 0
 181 519 212 505 212 458 c 2
 212 435 l 1
 145 435 l 1
 145 474 l 2
 145 485 142 494 131 494 c 0
 124 494 115 484 110 476 c 2
 100 460 l 1
 100 260 l 2xfb
 100 198 115 154 136 115 c 0
 140 107 143 100 145 93 c 1
 145 345 l 1
 115 345 l 1
 115 355 l 1
 240 355 l 1
 240 345 l 1
 214 345 l 1
 213 294 211 196 188 114 c 0
 172 60 142 -12 96 -12 c 0
 59 -12 30 39 30 76 c 0
 30 102 44 138 78 138 c 0
 97 138 103 121 103 106 c 0
 103 91 99 79 88 61 c 0
 80 47 73 34 73 18 c 0xfd
 73 12 74 9 78 3 c 0
 84 0 90 -2 96 -2 c 0
 105 -2 114 2 122 8 c 0
 136 24 141 46 142 55 c 0
 140 73 137 91 127 109 c 0
 104 149 71 178 57 205 c 0
 44 228 35 250 35 287 c 2
 35 727 l 2
 35 774 74 812 122 812 c 0
 169 812 210 774 210 727 c 2
 210 595 l 1
 240 595 l 1
 240 585 l 1
 115 585 l 1
 115 595 l 1
 145 595 l 1
 145 787 l 2
 145 798 134 803 122 803 c 0
 111 803 100 798 100 787 c 2
 100 480 l 1
 107 491 l 1xfb
EndSplineSet
Validated: 1
EndChar

StartChar: afii10024
Encoding: 1046 1046 113
Width: 355
Flags: W
HStem: 0 10<5 35 100 117 128 145 210 227 238 255 320 350> 409 10<111.425 145 210 243.188> 741 65<29 87.9257 267.074 326> 790 10<115 145 210 240>
VStem: 35 65<10 401.677 741 798.414> 90 10<432.036 727.403> 145 65<10 409 419 790> 255 65<10 400.719 741 798.414> 255 10<432.289 727.403>
AnchorPoint: "Yerik" 292 858 basechar 0
AnchorPoint: "Diacritic" 176 858 basechar 0
LayerCount: 2
Fore
SplineSet
350 0 m 1xe3
 238 0 l 1
 238 10 l 1
 255 10 l 1
 255 393 l 2
 255 405 246 409 236 409 c 2
 210 409 l 1
 210 10 l 1
 227 10 l 1
 227 0 l 1
 128 0 l 1
 128 10 l 1
 145 10 l 1
 145 409 l 1
 119 409 l 2
 109 409 100 405 100 393 c 2
 100 10 l 1
 117 10 l 1
 117 0 l 1
 5 0 l 1
 5 10 l 1
 35 10 l 1
 35 339 l 2xeb
 35 387 56 416 102 419 c 1
 94 427 90 440 90 454 c 2
 90 701 l 2xe6
 90 720 85 741 62 741 c 2
 29 741 l 1
 29 806 l 1
 49 806 l 2
 93 806 100 770 100 741 c 2xea
 100 454 l 2
 100 437 107 420 124 419 c 1
 145 419 l 1
 145 790 l 1
 115 790 l 1
 115 800 l 1
 240 800 l 1
 240 790 l 1
 210 790 l 1
 210 419 l 1
 228 419 l 2
 247 419 255 436 255 454 c 2xd680
 255 741 l 2xe3
 255 770 262 806 306 806 c 2
 326 806 l 1
 326 741 l 1
 293 741 l 2
 270 741 265 720 265 701 c 2
 265 454 l 2xe280
 265 440 261 427 253 419 c 1
 298 416 320 387 320 339 c 2
 320 10 l 1
 350 10 l 1
 350 0 l 1xe3
EndSplineSet
Validated: 1
EndChar

StartChar: afii10025
Encoding: 1047 1047 114
Width: 245
Flags: W
HStem: -12 10<131.829 166.198> 345 10<5 31 100 130> 505 9<107.773 138.918> 585 10<5 35 100 130> 803 9<107.03 138.635>
VStem: 33 67<121.732 345 422 489.024 595 779.501> 145 65<42.9051 131.969 206.752 490.445 528.346 782.649> 172 43<14.9126 87.0227>
AnchorPoint: "Yerik" 182 858 basechar 0
AnchorPoint: "Diacritic" 122 858 basechar 0
LayerCount: 2
Fore
SplineSet
210 727 m 2xfe
 210 580 l 2
 210 544 187 519 155 509 c 1
 187 500 210 475 210 439 c 2
 210 287 l 2xfe
 210 250 201 228 188 205 c 0
 174 178 141 149 118 109 c 0
 108 91 105 73 103 55 c 0
 104 46 109 24 123 8 c 0
 131 2 140 -2 149 -2 c 0
 155 -2 161 0 167 3 c 0
 171 9 172 12 172 18 c 0
 172 34 165 47 157 61 c 0
 146 79 142 91 142 106 c 0
 142 121 148 138 167 138 c 0
 201 138 215 102 215 76 c 0xfd
 215 39 186 -12 149 -12 c 0
 103 -12 73 60 57 114 c 0
 33 196 32 294 31 345 c 1
 5 345 l 1
 5 355 l 1
 130 355 l 1
 130 345 l 1
 100 345 l 1
 100 93 l 1
 102 100 105 107 109 115 c 0
 130 154 145 198 145 260 c 2
 145 489 l 2
 145 499 136 504 126 505 c 1
 123 505 l 2
 111 505 100 500 100 489 c 2
 100 422 l 1
 33 422 l 1
 33 439 l 2
 33 486 76 514 123 514 c 2
 126 514 l 1
 136 515 145 520 145 530 c 2
 145 787 l 2
 145 798 134 803 123 803 c 0
 111 803 100 798 100 787 c 2
 100 595 l 1
 130 595 l 1
 130 585 l 1
 5 585 l 1
 5 595 l 1
 35 595 l 1
 35 727 l 2
 35 774 76 812 123 812 c 0
 171 812 210 774 210 727 c 2xfe
EndSplineSet
Validated: 1
EndChar

StartChar: afii10026
Encoding: 1048 1048 115
Width: 245
Flags: W
HStem: 0 10<5 35 100 117 128 145 210 240> 790 10<5 35 100 117 128 145 210 240>
VStem: 35 65<10 203.333 230 790> 145 65<10 520 546.667 790>
AnchorPoint: "Yerik" 182 858 basechar 0
AnchorPoint: "Diacritic" 122 858 basechar 0
LayerCount: 2
Fore
SplineSet
240 0 m 1
 128 0 l 1
 128 10 l 1
 145 10 l 1
 145 520 l 1
 100 145 l 1
 100 10 l 1
 117 10 l 1
 117 0 l 1
 5 0 l 1
 5 10 l 1
 35 10 l 1
 35 790 l 1
 5 790 l 1
 5 800 l 1
 117 800 l 1
 117 790 l 1
 100 790 l 1
 100 230 l 1
 145 605 l 1
 145 790 l 1
 128 790 l 1
 128 800 l 1
 240 800 l 1
 240 790 l 1
 210 790 l 1
 210 10 l 1
 240 10 l 1
 240 0 l 1
EndSplineSet
Validated: 1
EndChar

StartChar: afii10027
Encoding: 1049 1049 116
Width: 245
Flags: W
HStem: 0 10<5 35 100 117 128 145 210 240> 790 10<5 35 100 117 128 145 210 240> 807 8<107.138 134.862>
VStem: 35 65<10 203.333 230 790> 61 43<822.746 872> 138 43<822.746 872> 145 65<10 520 546.667 790>
AnchorPoint: "Yerik" 122 918 basechar 0
AnchorPoint: "Diacritic" 122 918 basechar 0
LayerCount: 2
Fore
SplineSet
240 0 m 1xf2
 128 0 l 1
 128 10 l 1
 145 10 l 1
 145 520 l 1
 100 145 l 1
 100 10 l 1
 117 10 l 1
 117 0 l 1
 5 0 l 1
 5 10 l 1
 35 10 l 1
 35 790 l 1
 5 790 l 1
 5 800 l 1
 117 800 l 1
 117 790 l 1
 100 790 l 1
 100 230 l 1
 145 605 l 1
 145 790 l 1
 128 790 l 1
 128 800 l 1
 240 800 l 1
 240 790 l 1
 210 790 l 1
 210 10 l 1
 240 10 l 1
 240 0 l 1xf2
121 807 m 0
 88 807 61 838 61 864 c 2
 61 872 l 1
 104 872 l 1
 104 826 l 2
 104 817 113 815 121 815 c 0
 129 815 138 817 138 826 c 2
 138 872 l 1
 181 872 l 1
 181 864 l 2xec
 181 838 154 807 121 807 c 0
EndSplineSet
Validated: 1
LCarets2: 1 0
Ligature2: "'ccmp' Glyph Composition/Decomposition in Cyrillic-1" afii10026 uni0306
EndChar

StartChar: afii10028
Encoding: 1050 1050 117
Width: 245
Flags: W
HStem: 0 10<5 35 100 117 128 145 210 240> 409 10<100 133.575> 741 65<157.074 216> 790 10<5 35 100 130>
VStem: 35 65<10 409 419 790> 145 65<10 400.719 741 798.414> 145 10<432.036 727.403>
AnchorPoint: "Yerik" 182 858 basechar 0
AnchorPoint: "Diacritic" 122 858 basechar 0
LayerCount: 2
Fore
SplineSet
240 0 m 1xec
 128 0 l 1
 128 10 l 1
 145 10 l 1
 145 393 l 2xec
 145 405 136 409 126 409 c 2
 100 409 l 1
 100 10 l 1
 117 10 l 1
 117 0 l 1
 5 0 l 1
 5 10 l 1
 35 10 l 1
 35 790 l 1
 5 790 l 1
 5 800 l 1
 130 800 l 1
 130 790 l 1
 100 790 l 1
 100 419 l 1
 121 419 l 1
 138 420 145 437 145 454 c 2xda
 145 741 l 2xec
 145 770 152 806 196 806 c 2
 216 806 l 1
 216 741 l 1
 183 741 l 2
 160 741 155 720 155 701 c 2
 155 454 l 2xea
 155 440 151 427 143 419 c 1
 188 416 210 387 210 339 c 2
 210 10 l 1
 240 10 l 1
 240 0 l 1xec
EndSplineSet
Validated: 1
EndChar

StartChar: afii10029
Encoding: 1051 1051 118
Width: 245
Flags: W
HStem: 0 10<5 35 100 117 128 145 210 240> 793 10<92.0843 116.813 130 145 210 240>
VStem: 35 65<10 393.084> 45 41<719.433 784.102> 88 42<552.776 640.914> 145 65<10 790>
AnchorPoint: "Yerik" 182 858 basechar 0
AnchorPoint: "Diacritic" 133 858 basechar 0
LayerCount: 2
Fore
SplineSet
105 793 m 0xe4
 92 793 86 783 86 773 c 0
 86 761 90 751 95 741 c 0
 104 721 110 716 117 696 c 0
 125 674 130 662 130 639 c 0
 130 572 93 522 67 485 c 0
 63 479 55 485 59 491 c 0
 74 511 88 527 88 566 c 0
 88 586 86 598 78 616 c 0
 65 647 45 686 45 730 c 0
 45 767 72 803 102 803 c 0
 121 803 135 785 143 765 c 0
 143 763 144 761 145 759 c 1
 145 790 l 1
 130 790 l 1
 130 800 l 1xdc
 240 800 l 1
 240 790 l 1
 210 790 l 1
 210 10 l 1
 240 10 l 1
 240 0 l 1
 128 0 l 1
 128 10 l 1
 145 10 l 1
 145 532 l 1
 137 507 126 488 115 466 c 0
 105 447 100 399 100 378 c 2
 100 10 l 1
 117 10 l 1
 117 0 l 1
 5 0 l 1
 5 10 l 1
 35 10 l 1
 35 322 l 2
 35 369 62 401 66 407 c 0
 95 450 134 515 145 578 c 1
 145 719 l 1
 140 741 128 793 105 793 c 0xe4
EndSplineSet
Validated: 1
EndChar

StartChar: afii10030
Encoding: 1052 1052 119
Width: 355
Flags: W
HStem: 0 10<5 35 100 117 128 145 210 227 238 255 320 350> 790 10<89.5588 119.581 128 145 210 227 238 255 320 350>
VStem: 35 65<10 393.084> 45 41<719.433 784.102> 88 42<552.776 640.914> 145 65<10 203.333 230 790> 255 65<10 520 546.667 790>
AnchorPoint: "Yerik" 292 858 basechar 0
AnchorPoint: "Diacritic" 232 858 basechar 0
LayerCount: 2
Fore
SplineSet
105 793 m 0xe6
 92 793 86 783 86 773 c 0
 86 761 90 751 95 741 c 0
 104 721 110 716 117 696 c 0
 125 674 130 662 130 639 c 0
 130 572 93 522 67 485 c 0
 63 479 55 485 59 491 c 0
 74 511 88 527 88 566 c 0
 88 586 86 598 78 616 c 0
 65 647 45 686 45 730 c 0xde
 45 767 72 803 102 803 c 0
 112 803 120 800 127 792 c 1
 127 800 l 1
 227 800 l 1
 227 790 l 1
 210 790 l 1
 210 230 l 1
 255 605 l 1
 255 790 l 1
 238 790 l 1
 238 800 l 1
 350 800 l 1
 350 790 l 1
 320 790 l 1
 320 10 l 1
 350 10 l 1
 350 0 l 1
 238 0 l 1
 238 10 l 1
 255 10 l 1
 255 520 l 1
 210 145 l 1
 210 10 l 1
 227 10 l 1
 227 0 l 1
 128 0 l 1
 128 10 l 1
 145 10 l 1
 145 532 l 1
 137 507 126 488 115 466 c 0
 105 447 100 399 100 378 c 2
 100 10 l 1
 117 10 l 1
 117 0 l 1
 5 0 l 1
 5 10 l 1
 35 10 l 1
 35 322 l 2
 35 369 62 401 66 407 c 0
 95 450 134 515 145 578 c 1
 145 719 l 1
 140 741 128 793 105 793 c 0xe6
128 790 m 1
 134 783 139 774 143 765 c 0
 143 763 144 761 145 759 c 2
 145 790 l 1
 128 790 l 1
EndSplineSet
Validated: 1
EndChar

StartChar: afii10031
Encoding: 1053 1053 120
Width: 245
Flags: W
HStem: 0 10<5 35 100 117 128 145 210 240> 395 10<100 145> 790 10<5 35 100 117 128 145 210 240>
VStem: 35 65<10 395 405 790> 145 65<10 395 405 790>
CounterMasks: 1 e0
AnchorPoint: "Yerik" 182 858 basechar 0
AnchorPoint: "Diacritic" 122 858 basechar 0
LayerCount: 2
Fore
SplineSet
240 0 m 1
 128 0 l 1
 128 10 l 1
 145 10 l 1
 145 395 l 1
 100 395 l 1
 100 10 l 1
 117 10 l 1
 117 0 l 1
 5 0 l 1
 5 10 l 1
 35 10 l 1
 35 790 l 1
 5 790 l 1
 5 800 l 1
 117 800 l 1
 117 790 l 1
 100 790 l 1
 100 405 l 1
 145 405 l 1
 145 790 l 1
 128 790 l 1
 128 800 l 1
 240 800 l 1
 240 790 l 1
 210 790 l 1
 210 10 l 1
 240 10 l 1
 240 0 l 1
EndSplineSet
Validated: 1
EndChar

StartChar: afii10032
Encoding: 1054 1054 121
Width: 245
Flags: W
HStem: -12 9<106.365 137.97> 803 9<106.365 137.97>
VStem: 35 65<17.3511 782.649> 145 65<17.3511 782.649>
AnchorPoint: "Yerik" 182 858 basechar 0
AnchorPoint: "Diacritic" 122 858 basechar 0
LayerCount: 2
Fore
SplineSet
210 727 m 2
 210 73 l 2
 210 26 169 -12 122 -12 c 0
 74 -12 35 26 35 73 c 2
 35 727 l 2
 35 774 74 812 122 812 c 0
 169 812 210 774 210 727 c 2
100 787 m 2
 100 13 l 2
 100 2 111 -3 122 -3 c 0
 134 -3 145 2 145 13 c 2
 145 787 l 2
 145 798 134 803 122 803 c 0
 111 803 100 798 100 787 c 2
EndSplineSet
Validated: 1
EndChar

StartChar: afii10033
Encoding: 1055 1055 122
Width: 245
Flags: W
HStem: 0 10<5 35 100 117 128 145 210 240> 790 10<5 35 100 145 210 240>
VStem: 35 65<10 790> 145 65<10 790>
AnchorPoint: "Yerik" 182 858 basechar 0
AnchorPoint: "Diacritic" 122 858 basechar 0
LayerCount: 2
Fore
SplineSet
117 0 m 1
 5 0 l 1
 5 10 l 1
 35 10 l 1
 35 790 l 1
 5 790 l 1
 5 800 l 1
 240 800 l 1
 240 790 l 1
 210 790 l 1
 210 10 l 1
 240 10 l 1
 240 0 l 1
 128 0 l 1
 128 10 l 1
 145 10 l 1
 145 790 l 1
 100 790 l 1
 100 10 l 1
 117 10 l 1
 117 0 l 1
EndSplineSet
Validated: 1
EndChar

StartChar: afii10034
Encoding: 1056 1056 123
Width: 245
Flags: W
HStem: 0 10<5 35 100 130> 803 9<106.365 137.97>
VStem: 35 65<10 782.649> 119 10<416.105 482.064> 145 65<409.193 782.649>
AnchorPoint: "Yerik" 182 858 basechar 0
AnchorPoint: "Diacritic" 122 858 basechar 0
LayerCount: 2
Fore
SplineSet
130 0 m 1
 5 0 l 1
 5 10 l 1
 35 10 l 1
 35 727 l 2
 35 774 74 812 122 812 c 0
 169 812 210 774 210 727 c 2
 210 472 l 2
 210 435 191 388 163 388 c 0
 148 388 132 395 124 412 c 1
 113 380 103 344 100 317 c 1
 100 10 l 1
 130 10 l 1
 130 0 l 1
129 432 m 2
 129 425 134 411 140 409 c 1
 145 413 145 425 145 435 c 2
 145 787 l 2
 145 798 134 803 122 803 c 0
 111 803 100 798 100 787 c 2
 100 370 l 1
 102 379 105 388 109 398 c 0
 116 418 118 439 119 455 c 1
 119 476 l 2
 119 484 129 485 129 476 c 2
 129 432 l 2
EndSplineSet
Validated: 1
EndChar

StartChar: afii10035
Encoding: 1057 1057 124
Width: 245
Flags: W
HStem: -12 10<78.8018 113.171> 345 10<115 145 214 240> 585 10<115 145 210 240> 803 9<106.365 137.97>
VStem: 30 73<48.691 128.751 216.672 776.23> 30 43<14.9126 87.0227> 145 65<114.025 345 595 782.649>
AnchorPoint: "Yerik" 182 858 basechar 0
AnchorPoint: "Diacritic" 122 858 basechar 0
LayerCount: 2
Fore
SplineSet
240 345 m 1xf6
 214 345 l 1
 213 294 211 196 188 114 c 0
 172 60 142 -12 96 -12 c 0
 59 -12 30 39 30 76 c 0
 30 102 44 138 78 138 c 0
 97 138 103 121 103 106 c 0xfa
 103 91 99 79 88 61 c 0
 80 47 73 34 73 18 c 0
 73 12 74 9 78 3 c 0
 84 0 90 -2 96 -2 c 0
 105 -2 114 2 122 8 c 0
 136 24 141 46 142 55 c 0
 140 73 137 91 127 109 c 0
 104 149 71 178 57 205 c 0
 44 228 35 250 35 287 c 2
 35 727 l 2
 35 774 74 812 122 812 c 0
 169 812 210 774 210 727 c 2
 210 595 l 1
 240 595 l 1
 240 585 l 1
 115 585 l 1
 115 595 l 1
 145 595 l 1
 145 787 l 2
 145 798 134 803 122 803 c 0
 111 803 100 798 100 787 c 2
 100 260 l 2
 100 198 115 154 136 115 c 0
 140 107 143 100 145 93 c 1
 145 345 l 1
 115 345 l 1
 115 355 l 1
 240 355 l 1
 240 345 l 1xf6
EndSplineSet
Validated: 1
EndChar

StartChar: afii10036
Encoding: 1058 1058 125
Width: 247
Flags: W
HStem: 0 10<61 91 156 186> 790 10<82 91 156 165>
VStem: 17 7<528.555 533.222> 33 49<635.342 789.989> 91 65<10 790> 165 49<637.896 789.989> 223 7<528.555 533.222>
AnchorPoint: "Yerik" 182 858 basechar 0
AnchorPoint: "Diacritic" 122 858 basechar 0
LayerCount: 2
Fore
SplineSet
230 530 m 0
 231 527 225 523 223 527 c 0
 219 534 213 547 210 557 c 0
 190 615 165 716 165 790 c 1
 156 790 l 1
 156 10 l 1
 186 10 l 1
 186 0 l 1
 61 0 l 1
 61 10 l 1
 91 10 l 1
 91 790 l 1
 82 790 l 1
 81 769 77 724 71 685 c 0
 62 635 51 598 37 557 c 0
 34 547 28 534 24 527 c 0
 22 523 16 527 17 530 c 0
 31 564 33 610 33 658 c 0
 33 712 27 754 17 790 c 0
 16 794 17 797 18 800 c 1
 229 800 l 1
 230 797 231 794 230 790 c 0
 220 754 214 712 214 658 c 0
 214 610 216 564 230 530 c 0
EndSplineSet
Validated: 1
EndChar

StartChar: uniA64A
Encoding: 42570 42570 126
Width: 236
Flags: W
HStem: -12 9<109.221 136.983> 279 9<109.267 124> 741 65<166.666 224> 790 10<5 32 97 130>
VStem: 44 54<26.7268 249.273> 112 10<25.0781 173.5> 124 10<196 276 288 332 342 425.833> 145 7<569.944 678.839> 149 54<29 247.759>
AnchorPoint: "Yerik" 182 858 basechar 0
AnchorPoint: "Diacritic" 122 858 basechar 0
LayerCount: 2
Fore
SplineSet
44 158 m 2xee80
 44 222 72 288 123 288 c 2
 124 288 l 1
 126 332 l 1
 61 332 l 1
 32 790 l 1
 5 790 l 1
 5 800 l 1
 130 800 l 1
 130 790 l 1
 97 790 l 1xde80
 126 342 l 1
 127 342 l 1
 145 715 l 2
 147 763 161 806 198 806 c 2
 224 806 l 1
 224 741 l 1
 194 741 l 2
 175 741 156 721 152 644 c 2xef
 134 287 l 1
 178 278 203 217 203 158 c 2
 203 118 l 2
 203 54 174 -12 123 -12 c 0
 72 -12 44 54 44 118 c 2
 44 158 l 2xee80
149 252 m 2
 149 265 141 273 134 276 c 1
 122 30 l 2
 122 23 112 23 112 30 c 2
 124 279 l 1
 123 279 l 2
 113 279 98 272 98 252 c 2
 98 24 l 2
 98 4 113 -3 123 -3 c 0
 133 -3 149 4 149 24 c 2
 149 252 l 2
EndSplineSet
Validated: 1
EndChar

StartChar: uni0424
Encoding: 1060 1060 127
Width: 355
Flags: W
HStem: 0 10<115 145 210 240> 90 10<104.768 145 210 250.232> 750 10<104.768 145 210 250.232> 790 10<115 145 210 240>
VStem: 35 65<119.351 730.649> 145 65<10 90 100 750 760 790> 255 65<119.351 730.649>
CounterMasks: 1 0e
AnchorPoint: "Yerik" 282 858 basechar 0
AnchorPoint: "Diacritic" 177 858 basechar 0
LayerCount: 2
Fore
SplineSet
320 175 m 2
 320 128 280 90 233 90 c 2
 210 90 l 1
 210 10 l 1
 240 10 l 1
 240 0 l 1
 115 0 l 1
 115 10 l 1
 145 10 l 1
 145 90 l 1
 122 90 l 2
 75 90 35 128 35 175 c 2
 35 675 l 2
 35 722 75 760 122 760 c 2
 145 760 l 1
 145 790 l 1
 115 790 l 1
 115 800 l 1
 240 800 l 1
 240 790 l 1
 210 790 l 1
 210 760 l 1
 233 760 l 2
 280 760 320 722 320 675 c 2
 320 175 l 2
233 100 m 2
 244 100 255 104 255 115 c 2
 255 735 l 2
 255 746 244 750 233 750 c 2
 210 750 l 1
 210 100 l 1
 233 100 l 2
100 735 m 2
 100 115 l 2
 100 104 111 100 122 100 c 2
 145 100 l 1
 145 750 l 1
 122 750 l 2
 111 750 100 746 100 735 c 2
EndSplineSet
Validated: 1
EndChar

StartChar: afii10039
Encoding: 1061 1061 128
Width: 245
Flags: W
HStem: 0 10<5 48 58 100 111 144 209 240> 741 65<165.908 224> 790 10<5 35 100 130>
VStem: 5 235
AnchorPoint: "Yerik" 185 858 basechar 0
AnchorPoint: "Diacritic" 122 858 basechar 0
LayerCount: 2
Fore
SplineSet
100 0 m 1xd0
 5 0 l 1
 5 10 l 1
 48 10 l 1
 96 356 l 1
 35 790 l 1
 5 790 l 1
 5 800 l 1
 130 800 l 1
 130 790 l 1
 100 790 l 1xb0
 128 591 l 1
 145 715 l 2
 152 768 161 806 198 806 c 2
 224 806 l 1
 224 741 l 1
 194 741 l 2
 172 741 156 716 146 647 c 2
 133 554 l 1
 209 10 l 1
 240 10 l 1
 240 0 l 1
 111 0 l 1
 111 10 l 1
 144 10 l 1
 101 320 l 1
 58 10 l 1
 100 10 l 1
 100 0 l 1xd0
EndSplineSet
Validated: 1
EndChar

StartChar: afii10040
Encoding: 1062 1062 129
Width: 255
Flags: W
HStem: 0 10<5 35 100 145> 790 10<5 35 100 117 128 145 210 240>
VStem: 35 65<10 790> 145 65<10 790> 184 54<-137.292 -0.00660075> 251 7<-256.249 -250.847>
AnchorPoint: "Yerik" 182 858 basechar 0
AnchorPoint: "Diacritic" 122 858 basechar 0
LayerCount: 2
Fore
SplineSet
258 -255 m 0xec
 259 -258 252 -261 251 -258 c 0
 249 -253 242 -240 238 -229 c 0
 219 -180 210 -159 198 -107 c 0
 189 -70 184 -21 184 0 c 1xec
 5 0 l 1
 5 10 l 1
 35 10 l 1
 35 790 l 1
 5 790 l 1
 5 800 l 1
 117 800 l 1
 117 790 l 1
 100 790 l 1
 100 10 l 1
 145 10 l 1
 145 790 l 1
 128 790 l 1
 128 800 l 1
 240 800 l 1
 240 790 l 1
 210 790 l 1
 210 10 l 1xf4
 250 10 l 1
 251 7 251 4 250 0 c 0
 246 -22 238 -69 238 -105 c 0
 238 -159 241 -210 258 -255 c 0xec
EndSplineSet
Validated: 1
EndChar

StartChar: afii10041
Encoding: 1063 1063 130
Width: 245
Flags: W
HStem: 0 10<115 145 210 240> 365 10<104.389 145> 790 10<5 35 100 117 128 145 210 240>
VStem: 35 65<382.323 790> 145 65<10 365 375 790>
AnchorPoint: "Yerik" 182 858 basechar 0
AnchorPoint: "Diacritic" 122 858 basechar 0
LayerCount: 2
Fore
SplineSet
240 0 m 1
 115 0 l 1
 115 10 l 1
 145 10 l 1
 145 365 l 1
 109 365 l 2
 59 365 35 394 35 445 c 2
 35 790 l 1
 5 790 l 1
 5 800 l 1
 117 800 l 1
 117 790 l 1
 100 790 l 1
 100 391 l 2
 100 379 109 375 119 375 c 2
 145 375 l 1
 145 790 l 1
 128 790 l 1
 128 800 l 1
 240 800 l 1
 240 790 l 1
 210 790 l 1
 210 10 l 1
 240 10 l 1
 240 0 l 1
EndSplineSet
Validated: 1
EndChar

StartChar: afii10042
Encoding: 1064 1064 131
Width: 355
Flags: W
HStem: 0 10<5 35 100 145 210 255 320 350> 790 10<5 35 100 117 128 145 210 227 238 255 320 350>
VStem: 35 65<10 790> 145 65<10 790> 255 65<10 790>
CounterMasks: 1 38
AnchorPoint: "Yerik" 283 858 basechar 0
AnchorPoint: "Diacritic" 178 858 basechar 0
LayerCount: 2
Fore
SplineSet
350 790 m 1
 320 790 l 1
 320 10 l 1
 350 10 l 1
 350 0 l 1
 5 0 l 1
 5 10 l 1
 35 10 l 1
 35 790 l 1
 5 790 l 1
 5 800 l 1
 117 800 l 1
 117 790 l 1
 100 790 l 1
 100 10 l 1
 145 10 l 1
 145 790 l 1
 128 790 l 1
 128 800 l 1
 227 800 l 1
 227 790 l 1
 210 790 l 1
 210 10 l 1
 255 10 l 1
 255 790 l 1
 238 790 l 1
 238 800 l 1
 350 800 l 1
 350 790 l 1
EndSplineSet
Validated: 1
EndChar

StartChar: afii10043
Encoding: 1065 1065 132
Width: 365
Flags: W
HStem: 0 10<5 35 100 145 210 255> 790 10<5 35 100 117 128 145 210 227 238 255 320 350>
VStem: 35 65<10 790> 145 65<10 790> 255 65<10 790> 294 54<-137.292 -0.00660075> 361 7<-256.249 -250.847>
AnchorPoint: "Yerik" 292 858 basechar 0
AnchorPoint: "Diacritic" 180 858 basechar 0
LayerCount: 2
Fore
SplineSet
350 790 m 1xfa
 320 790 l 1
 320 10 l 1xfa
 360 10 l 1
 361 7 361 4 360 0 c 0
 356 -22 348 -69 348 -105 c 0
 348 -159 351 -210 368 -255 c 0
 369 -258 362 -261 361 -258 c 0
 359 -253 352 -240 348 -229 c 0
 329 -180 320 -159 308 -107 c 0
 299 -70 294 -21 294 0 c 1xf6
 5 0 l 1
 5 10 l 1
 35 10 l 1
 35 790 l 1
 5 790 l 1
 5 800 l 1
 117 800 l 1
 117 790 l 1
 100 790 l 1
 100 10 l 1
 145 10 l 1
 145 790 l 1
 128 790 l 1
 128 800 l 1
 227 800 l 1
 227 790 l 1
 210 790 l 1
 210 10 l 1
 255 10 l 1
 255 790 l 1
 238 790 l 1
 238 800 l 1
 350 800 l 1
 350 790 l 1xfa
EndSplineSet
Validated: 1
EndChar

StartChar: afii10044
Encoding: 1066 1066 133
Width: 305
Flags: W
HStem: 0 10<65 95 160 205 270 300> 790 10<85 95 160 190>
VStem: 11 7<533.751 539.153> 31 54<652.708 789.993> 95 65<10 790> 205 65<10 399.776>
AnchorPoint: "Yerik" 232 858 basechar 0
AnchorPoint: "Diacritic" 125 858 basechar 0
LayerCount: 2
Fore
SplineSet
300 0 m 1
 65 0 l 1
 65 10 l 1
 95 10 l 1
 95 790 l 1
 85 790 l 1
 84 769 79 719 71 683 c 0
 59 631 50 610 31 561 c 0
 27 550 20 537 18 532 c 0
 17 529 10 532 11 535 c 0
 28 581 31 631 31 685 c 0
 31 721 23 768 19 790 c 0
 18 794 18 797 19 800 c 1
 190 800 l 1
 190 790 l 1
 160 790 l 1
 160 507 l 1
 162 477 172 456 196 433 c 0
 218 410 244 399 270 394 c 1
 270 10 l 1
 300 10 l 1
 300 0 l 1
160 464 m 1
 160 10 l 1
 205 10 l 1
 205 410 l 1
 187 425 169 444 160 464 c 1
EndSplineSet
Validated: 1
EndChar

StartChar: afii10045
Encoding: 1067 1067 134
Width: 355
Flags: W
HStem: 0 10<5 35 100 145 210 227 238 255 320 350> 790 10<5 35 100 130 238 255 320 350>
VStem: 35 65<10 790> 145 65<10 399.776> 255 65<10 790>
CounterMasks: 1 38
AnchorPoint: "Yerik" 285 858 basechar 0
AnchorPoint: "Diacritic" 172 858 basechar 0
LayerCount: 2
Fore
SplineSet
5 0 m 1
 5 10 l 1
 35 10 l 1
 35 790 l 1
 5 790 l 1
 5 800 l 1
 130 800 l 1
 130 790 l 1
 100 790 l 1
 100 510 l 1
 102 479 112 457 136 433 c 0
 158 410 184 399 210 394 c 1
 210 10 l 1
 227 10 l 1
 227 0 l 1
 5 0 l 1
350 0 m 1
 238 0 l 1
 238 10 l 1
 255 10 l 1
 255 790 l 1
 238 790 l 1
 238 800 l 1
 350 800 l 1
 350 790 l 1
 320 790 l 1
 320 10 l 1
 350 10 l 1
 350 0 l 1
100 464 m 1
 100 10 l 1
 145 10 l 1
 145 410 l 1
 127 425 109 444 100 464 c 1
EndSplineSet
Validated: 1
EndChar

StartChar: afii10046
Encoding: 1068 1068 135
Width: 245
Flags: W
HStem: 0 10<5 35 100 145 210 240> 790 10<5 35 100 130>
VStem: 35 65<10 790> 145 65<10 399.776>
AnchorPoint: "Yerik" 182 858 basechar 0
AnchorPoint: "Diacritic" 119 858 basechar 0
LayerCount: 2
Fore
SplineSet
5 0 m 1
 5 10 l 1
 35 10 l 1
 35 790 l 1
 5 790 l 1
 5 800 l 1
 130 800 l 1
 130 790 l 1
 100 790 l 1
 100 510 l 1
 102 479 112 457 136 433 c 0
 158 410 184 399 210 394 c 1
 210 10 l 1
 240 10 l 1
 240 0 l 1
 5 0 l 1
100 464 m 1
 100 10 l 1
 145 10 l 1
 145 410 l 1
 127 425 109 444 100 464 c 1
EndSplineSet
Validated: 1
EndChar

StartChar: uni0462
Encoding: 1122 1122 136
Width: 301
Flags: W
HStem: 0 10<61 91 156 201 266 296> 730 10<82 91 156 165> 790 10<61 91 156 186>
VStem: 17 7<468.555 473.222> 33 49<575.342 729.989> 91 65<10 730 740 790> 165 49<577.896 729.989> 201 65<10 399.776> 223 7<468.555 473.222>
AnchorPoint: "Yerik" 212 858 basechar 0
AnchorPoint: "Diacritic" 128 858 basechar 0
LayerCount: 2
Fore
SplineSet
230 470 m 0xfe80
 231 467 225 463 223 467 c 0
 219 474 213 487 210 497 c 0
 190 555 165 656 165 730 c 1xfe80
 156 730 l 1
 156 657 156 583 156 510 c 1
 158 479 168 457 192 433 c 0
 214 410 240 399 266 394 c 1
 266 10 l 1xfd
 296 10 l 1
 296 0 l 1
 61 0 l 1
 61 10 l 1
 91 10 l 1
 91 730 l 1
 82 730 l 1
 81 709 77 664 71 625 c 0
 62 575 51 538 37 497 c 0
 34 487 28 474 24 467 c 0
 22 463 16 467 17 470 c 0
 31 504 33 550 33 598 c 0
 33 652 27 694 17 730 c 0
 16 734 17 737 18 740 c 1
 91 740 l 1
 91 790 l 1
 61 790 l 1
 61 800 l 1
 186 800 l 1
 186 790 l 1
 156 790 l 1
 156 740 l 1
 229 740 l 1
 230 737 231 734 230 730 c 0
 220 694 214 652 214 598 c 0
 214 550 216 504 230 470 c 0xfe80
156 464 m 1
 156 10 l 1
 201 10 l 1
 201 410 l 1xfd
 183 425 165 444 156 464 c 1
EndSplineSet
Validated: 1
EndChar

StartChar: afii10048
Encoding: 1070 1070 137
Width: 355
Flags: W
HStem: -12 9<216.365 247.97> 0 10<5 35 100 130> 395 10<100 145> 790 10<5 35 100 130> 803 9<216.365 247.97>
VStem: 35 65<10 395 405 790> 145 65<17.3511 395 405 782.649> 255 65<17.3511 782.649>
CounterMasks: 1 07
AnchorPoint: "Yerik" 282 858 basechar 0
AnchorPoint: "Diacritic" 162 858 basechar 0
LayerCount: 2
Fore
SplineSet
320 727 m 2
 320 73 l 2
 320 26 279 -12 232 -12 c 0
 184 -12 145 26 145 73 c 2
 145 395 l 1
 100 395 l 1
 100 10 l 1
 130 10 l 1
 130 0 l 1
 5 0 l 1
 5 10 l 1
 35 10 l 1
 35 790 l 1
 5 790 l 1
 5 800 l 1
 130 800 l 1
 130 790 l 1
 100 790 l 1
 100 405 l 1
 145 405 l 1
 145 727 l 2
 145 774 184 812 232 812 c 0
 279 812 320 774 320 727 c 2
210 787 m 2
 210 13 l 2
 210 2 221 -3 232 -3 c 0
 244 -3 255 2 255 13 c 2
 255 787 l 2
 255 798 244 803 232 803 c 0
 221 803 210 798 210 787 c 2
EndSplineSet
Validated: 1
EndChar

StartChar: uniA656
Encoding: 42582 42582 138
Width: 355
Flags: W
HStem: 0 10<5 35 100 117 128 145 210 227 238 255 320 350> 342 10<211.875 214> 665 10<100 161> 790 10<5 35 100 117 198.235 229.078 240 255 320 350>
VStem: 35 65<10 665 675 790> 145 65<10 281.365> 153 41<717.823 783.096> 156 54<352.216 454.599> 194 42<556.865 642.453> 255 65<10 790>
AnchorPoint: "Yerik" 290 858 basechar 0
AnchorPoint: "Diacritic" 176 858 basechar 0
LayerCount: 2
Fore
SplineSet
214 793 m 0xf940
 201 793 194 783 194 773 c 0xfa40
 194 761 198 751 203 741 c 0
 217 711 236 680 236 639 c 0
 236 575 198 526 173 490 c 0
 169 484 161 490 165 496 c 0
 180 516 194 532 194 571 c 0xf8c0
 194 591 192 598 184 616 c 0
 179 626 171 648 165 665 c 1
 100 665 l 1
 100 10 l 1
 117 10 l 1
 117 0 l 1
 5 0 l 1
 5 10 l 1
 35 10 l 1
 35 790 l 1
 5 790 l 1
 5 800 l 1
 117 800 l 1
 117 790 l 1
 100 790 l 1
 100 675 l 1
 161 675 l 1
 155 694 153 708 153 730 c 0xfa40
 153 767 181 803 211 803 c 0
 232 803 245 785 253 765 c 0
 253 763 254 761 255 759 c 1
 255 790 l 1
 240 790 l 1
 240 800 l 1
 350 800 l 1
 350 790 l 1
 320 790 l 1
 320 10 l 1
 350 10 l 1
 350 0 l 1
 238 0 l 1
 238 10 l 1
 255 10 l 1
 255 375 l 1
 244 362 231 347 224 338 c 0
 211 323 210 303 210 283 c 0xf940
 210 278 210 273 210 268 c 2
 210 10 l 1
 227 10 l 1
 227 0 l 1
 128 0 l 1
 128 10 l 1
 145 10 l 1
 145 212 l 2xfc40
 145 265 181 306 214 342 c 1
 201 342 l 2
 169 342 157 363 156 383 c 0
 156 385 156 387 156 389 c 0
 156 420 163 435 181 459 c 0
 199 484 210 496 227 525 c 0
 240 547 249 572 255 595 c 1
 255 719 l 1
 250 741 238 793 214 793 c 0xf940
235 519 m 0
 218 490 210 466 210 433 c 2
 210 368 l 2xf940
 210 360 212 352 219 352 c 2
 223 352 l 1
 235 365 246 379 255 390 c 1
 255 559 l 1
 250 545 243 532 235 519 c 0
EndSplineSet
Validated: 1
EndChar

StartChar: afii10065
Encoding: 1072 1072 139
Width: 245
Flags: W
HStem: 0 10<5 35 100 117 128 145 210 240> 342 10<101.875 104> 793 10<90.8643 116.182 130 145 210 240>
VStem: 35 65<10 281.365> 43 41<717.966 783.096> 46 54<352.216 454.599> 84 42<556.865 641.627> 145 65<10 790>
AnchorPoint: "Yerik" 176 858 basechar 0
AnchorPoint: "Diacritic" 145 858 basechar 0
LayerCount: 2
Fore
SplineSet
104 793 m 0xe5
 91 793 84 783 84 773 c 0xe9
 84 761 88 751 93 741 c 0
 107 711 126 680 126 639 c 0
 126 575 88 526 63 490 c 0
 59 484 51 490 55 496 c 0
 70 516 84 532 84 571 c 0xe3
 84 591 82 598 74 616 c 0
 61 647 43 686 43 730 c 0xe9
 43 767 71 803 101 803 c 0
 122 803 135 785 143 765 c 0
 143 763 144 761 145 759 c 1
 145 790 l 1
 130 790 l 1
 130 800 l 1
 240 800 l 1
 240 790 l 1
 210 790 l 1
 210 10 l 1
 240 10 l 1
 240 0 l 1
 128 0 l 1
 128 10 l 1
 145 10 l 1
 145 375 l 1
 134 362 121 347 114 338 c 0
 101 323 100 303 100 283 c 0xe5
 100 278 100 273 100 268 c 2
 100 10 l 1
 117 10 l 1
 117 0 l 1
 5 0 l 1
 5 10 l 1
 35 10 l 1
 35 212 l 2xf1
 35 265 71 306 104 342 c 1
 91 342 l 2
 59 342 47 363 46 383 c 0
 46 385 46 387 46 389 c 0
 46 420 53 435 71 459 c 0
 89 484 100 496 117 525 c 0
 130 547 139 572 145 595 c 1
 145 719 l 1
 140 741 128 793 104 793 c 0xe5
125 519 m 0
 108 490 100 466 100 433 c 2
 100 368 l 2xe5
 100 360 102 352 109 352 c 2
 113 352 l 1
 125 365 136 379 145 390 c 1
 145 559 l 1
 140 545 133 532 125 519 c 0
EndSplineSet
Validated: 1
EndChar

StartChar: afii10066
Encoding: 1073 1073 140
Width: 245
Flags: W
HStem: 0 10<5 35 100 145 210 240> 790 10<5 35 100 127>
VStem: 35 65<10 790> 127 54<652.708 789.993> 145 65<10 399.776> 194 7<533.751 539.153>
AnchorPoint: "Yerik" 182 858 basechar 0
AnchorPoint: "Diacritic" 113 858 basechar 0
LayerCount: 2
Fore
SplineSet
5 0 m 1xe8
 5 10 l 1
 35 10 l 1
 35 790 l 1
 5 790 l 1
 5 800 l 1
 193 800 l 1
 194 797 194 794 193 790 c 0
 189 768 181 721 181 685 c 0
 181 631 184 580 201 535 c 0
 202 532 195 529 194 532 c 0
 192 537 185 550 181 561 c 0
 162 610 153 631 141 683 c 0
 132 719 127 769 127 790 c 1xf4
 100 790 l 1
 100 510 l 1
 102 479 112 457 136 433 c 0
 158 410 184 399 210 394 c 1
 210 10 l 1
 240 10 l 1
 240 0 l 1
 5 0 l 1xe8
100 464 m 1
 100 10 l 1
 145 10 l 1
 145 410 l 1xe8
 127 425 109 444 100 464 c 1
EndSplineSet
Validated: 1
EndChar

StartChar: afii10067
Encoding: 1074 1074 141
Width: 245
Flags: W
HStem: 0 10<5 35 100 145 210 240> 803 9<106.365 137.97>
VStem: 35 65<10 447 471 782.649> 115 8<506.471 517.889> 145 65<10 390.07 462.912 782.649>
AnchorPoint: "Yerik" 182 858 basechar 0
AnchorPoint: "Diacritic" 122 858 basechar 0
LayerCount: 2
Fore
SplineSet
5 0 m 1
 5 10 l 1
 35 10 l 1
 35 727 l 2
 35 774 74 812 122 812 c 0
 169 812 210 774 210 727 c 2
 210 510 l 2
 210 472 185 442 164 442 c 0
 144 442 121 452 115 479 c 0
 115 480 114 480 114 481 c 1
 112 473 108 466 105 459 c 1
 114 443 127 427 145 412 c 0
 160 399 187 389 210 385 c 1
 210 10 l 1
 240 10 l 1
 240 0 l 1
 5 0 l 1
139 403 m 0
 122 417 109 432 100 447 c 1
 100 10 l 1
 145 10 l 1
 145 398 l 1
 142 399 141 401 139 403 c 0
138 462 m 1
 143 465 145 477 145 487 c 2
 145 787 l 2
 145 798 134 803 122 803 c 0
 111 803 100 798 100 787 c 2
 100 471 l 1
 105 485 110 500 113 514 c 0
 114 521 124 519 123 512 c 0
 123 493 125 466 138 462 c 1
EndSplineSet
Validated: 1
EndChar

StartChar: afii10068
Encoding: 1075 1075 142
Width: 196
Flags: W
HStem: 0 10<5 35 100 130> 790 10<5 35 100 114>
VStem: 35 65<10 790> 114 49<637.896 789.989> 172 7<528.555 533.222>
AnchorPoint: "Yerik" 152 858 basechar 0
AnchorPoint: "Diacritic" 105 858 basechar 0
LayerCount: 2
Fore
SplineSet
179 530 m 0
 180 527 174 523 172 527 c 0
 168 534 162 547 159 557 c 0
 139 615 114 716 114 790 c 1
 100 790 l 1
 100 10 l 1
 130 10 l 1
 130 0 l 1
 5 0 l 1
 5 10 l 1
 35 10 l 1
 35 790 l 1
 5 790 l 1
 5 800 l 1
 178 800 l 1
 179 797 180 794 179 790 c 0
 169 754 163 712 163 658 c 0
 163 610 165 564 179 530 c 0
EndSplineSet
Validated: 1
EndChar

StartChar: afii10069
Encoding: 1076 1076 143
Width: 240
Flags: W
HStem: 0 10<75 136> 793 10<83.0843 107.999 121 136 201 231>
VStem: 1 7<-256.249 -250.847> 21 54<-137.292 -0.00660075> 36 41<717.15 784.102> 82 39<548.251 646.199> 82 10<108.891 381.957> 136 65<10 790> 165 54<-137.292 -0.00660075> 232 7<-256.249 -250.847>
AnchorPoint: "Yerik" 182 858 basechar 0
AnchorPoint: "Diacritic" 130 858 basechar 0
LayerCount: 2
Fore
SplineSet
96 793 m 0xf340
 83 793 77 783 77 773 c 0
 77 761 81 751 86 741 c 0
 95 721 99 716 106 696 c 0
 114 674 121 662 121 639 c 0
 121 610 119 586 108 561 c 0
 92 526 78 510 61 485 c 0
 57 479 49 485 53 491 c 0
 68 511 82 527 82 566 c 0
 82 586 77 598 69 616 c 0
 64 628 50 657 44 673 c 0
 37 693 36 707 36 730 c 0
 36 767 63 803 93 803 c 0
 112 803 126 785 134 765 c 0
 134 763 135 761 136 759 c 1
 136 790 l 1
 121 790 l 1
 121 800 l 1
 231 800 l 1
 231 790 l 1
 201 790 l 1
 201 10 l 1xed40
 231 10 l 1
 232 7 232 4 231 0 c 0
 227 -22 219 -69 219 -105 c 0
 219 -159 222 -210 239 -255 c 0
 240 -258 233 -261 232 -258 c 0
 230 -253 223 -240 219 -229 c 0
 200 -180 191 -159 179 -107 c 0
 170 -70 165 -21 165 0 c 1xe0c0
 75 0 l 1
 74 -21 69 -70 61 -107 c 0
 49 -159 40 -180 21 -229 c 0
 17 -240 10 -253 8 -258 c 0
 7 -261 0 -258 1 -255 c 0
 18 -209 21 -159 21 -105 c 0
 21 -69 13 -22 9 0 c 0
 8 4 8 7 9 10 c 1
 62 10 l 1
 73 29 78 98 78 139 c 0
 78 187 80 289 82 322 c 0
 85 365 87 402 96 433 c 0
 104 462 111 475 119 504 c 0
 126 531 132 557 136 582 c 1
 136 718 l 1
 131 741 120 793 96 793 c 0xf340
106 431 m 0
 97 400 95 363 92 322 c 0xe340
 90 289 88 187 88 139 c 0
 88 100 82 36 73 10 c 1
 136 10 l 1
 136 529 l 1
 128 491 116 466 106 431 c 0
EndSplineSet
Validated: 1
EndChar

StartChar: afii10070
Encoding: 1077 1077 144
Width: 245
Flags: W
HStem: -12 10<78.8018 113.171> 345 10<115 145 214 240> 494 25<121.997 170.5> 585 10<115 145 210 240> 803 9<106.365 137.97>
VStem: 30 43<14.9126 87.0227> 35 65<42.9051 131.969 206.752 460 480 782.649> 145 67<121.732 345 435 492.974 595 779.501>
AnchorPoint: "Yerik" 182 858 basechar 0
AnchorPoint: "Diacritic" 122 858 basechar 0
LayerCount: 2
Fore
SplineSet
107 491 m 1xfb
 122 512 141 519 160 519 c 0
 181 519 212 505 212 458 c 2
 212 435 l 1
 145 435 l 1
 145 474 l 2
 145 485 142 494 131 494 c 0
 124 494 115 484 110 476 c 2
 100 460 l 1
 100 260 l 2xfb
 100 198 115 154 136 115 c 0
 140 107 143 100 145 93 c 1
 145 345 l 1
 115 345 l 1
 115 355 l 1
 240 355 l 1
 240 345 l 1
 214 345 l 1
 213 294 211 196 188 114 c 0
 172 60 142 -12 96 -12 c 0
 59 -12 30 39 30 76 c 0
 30 102 44 138 78 138 c 0
 97 138 103 121 103 106 c 0
 103 91 99 79 88 61 c 0
 80 47 73 34 73 18 c 0xfd
 73 12 74 9 78 3 c 0
 84 0 90 -2 96 -2 c 0
 105 -2 114 2 122 8 c 0
 136 24 141 46 142 55 c 0
 140 73 137 91 127 109 c 0
 104 149 71 178 57 205 c 0
 44 228 35 250 35 287 c 2
 35 727 l 2
 35 774 74 812 122 812 c 0
 169 812 210 774 210 727 c 2
 210 595 l 1
 240 595 l 1
 240 585 l 1
 115 585 l 1
 115 595 l 1
 145 595 l 1
 145 787 l 2
 145 798 134 803 122 803 c 0
 111 803 100 798 100 787 c 2
 100 480 l 1
 107 491 l 1xfb
EndSplineSet
Validated: 1
EndChar

StartChar: afii10072
Encoding: 1078 1078 145
Width: 355
Flags: W
HStem: 0 10<5 35 100 117 128 145 210 227 238 255 320 350> 409 10<111.425 145 210 243.188> 741 65<29 87.9257 267.074 326> 790 10<115 145 210 240>
VStem: 35 65<10 401.677 741 798.414> 90 10<432.036 727.403> 145 65<10 409 419 790> 255 65<10 400.719 741 798.414> 255 10<432.289 727.403>
AnchorPoint: "Yerik" 292 858 basechar 0
AnchorPoint: "Diacritic" 174 858 basechar 0
LayerCount: 2
Fore
SplineSet
350 0 m 1xe3
 238 0 l 1
 238 10 l 1
 255 10 l 1
 255 393 l 2
 255 405 246 409 236 409 c 2
 210 409 l 1
 210 10 l 1
 227 10 l 1
 227 0 l 1
 128 0 l 1
 128 10 l 1
 145 10 l 1
 145 409 l 1
 119 409 l 2
 109 409 100 405 100 393 c 2
 100 10 l 1
 117 10 l 1
 117 0 l 1
 5 0 l 1
 5 10 l 1
 35 10 l 1
 35 339 l 2xeb
 35 387 56 416 102 419 c 1
 94 427 90 440 90 454 c 2
 90 701 l 2xe6
 90 720 85 741 62 741 c 2
 29 741 l 1
 29 806 l 1
 49 806 l 2
 93 806 100 770 100 741 c 2xea
 100 454 l 2
 100 437 107 420 124 419 c 1
 145 419 l 1
 145 790 l 1
 115 790 l 1
 115 800 l 1
 240 800 l 1
 240 790 l 1
 210 790 l 1
 210 419 l 1
 228 419 l 2
 247 419 255 436 255 454 c 2xd680
 255 741 l 2xe3
 255 770 262 806 306 806 c 2
 326 806 l 1
 326 741 l 1
 293 741 l 2
 270 741 265 720 265 701 c 2
 265 454 l 2xe280
 265 440 261 427 253 419 c 1
 298 416 320 387 320 339 c 2
 320 10 l 1
 350 10 l 1
 350 0 l 1xe3
EndSplineSet
Validated: 1
EndChar

StartChar: afii10073
Encoding: 1079 1079 146
Width: 245
Flags: W
HStem: -12 10<131.829 166.198> 345 10<5 31 100 130> 505 9<107.773 138.918> 585 10<5 35 100 130> 803 9<107.03 138.635>
VStem: 33 67<121.732 345 422 489.024 595 779.501> 145 65<42.9051 131.969 206.752 490.445 528.346 782.649> 172 43<14.9126 87.0227>
AnchorPoint: "Yerik" 179 858 basechar 0
AnchorPoint: "Diacritic" 122 858 basechar 0
LayerCount: 2
Fore
SplineSet
210 727 m 2xfe
 210 580 l 2
 210 544 187 519 155 509 c 1
 187 500 210 475 210 439 c 2
 210 287 l 2xfe
 210 250 201 228 188 205 c 0
 174 178 141 149 118 109 c 0
 108 91 105 73 103 55 c 0
 104 46 109 24 123 8 c 0
 131 2 140 -2 149 -2 c 0
 155 -2 161 0 167 3 c 0
 171 9 172 12 172 18 c 0
 172 34 165 47 157 61 c 0
 146 79 142 91 142 106 c 0
 142 121 148 138 167 138 c 0
 201 138 215 102 215 76 c 0xfd
 215 39 186 -12 149 -12 c 0
 103 -12 73 60 57 114 c 0
 33 196 32 294 31 345 c 1
 5 345 l 1
 5 355 l 1
 130 355 l 1
 130 345 l 1
 100 345 l 1
 100 93 l 1
 102 100 105 107 109 115 c 0
 130 154 145 198 145 260 c 2
 145 489 l 2
 145 499 136 504 126 505 c 1
 123 505 l 2
 111 505 100 500 100 489 c 2
 100 422 l 1
 33 422 l 1
 33 439 l 2
 33 486 76 514 123 514 c 2
 126 514 l 1
 136 515 145 520 145 530 c 2
 145 787 l 2
 145 798 134 803 123 803 c 0
 111 803 100 798 100 787 c 2
 100 595 l 1
 130 595 l 1
 130 585 l 1
 5 585 l 1
 5 595 l 1
 35 595 l 1
 35 727 l 2
 35 774 76 812 123 812 c 0
 171 812 210 774 210 727 c 2xfe
EndSplineSet
Validated: 1
EndChar

StartChar: afii10074
Encoding: 1080 1080 147
Width: 245
Flags: W
HStem: 0 10<5 35 100 117 128 145 210 240> 790 10<5 35 100 117 128 145 210 240>
VStem: 35 65<10 203.333 230 790> 145 65<10 520 546.667 790>
AnchorPoint: "Yerik" 179 858 basechar 0
AnchorPoint: "Diacritic" 122 858 basechar 0
LayerCount: 2
Fore
SplineSet
240 0 m 1
 128 0 l 1
 128 10 l 1
 145 10 l 1
 145 520 l 1
 100 145 l 1
 100 10 l 1
 117 10 l 1
 117 0 l 1
 5 0 l 1
 5 10 l 1
 35 10 l 1
 35 790 l 1
 5 790 l 1
 5 800 l 1
 117 800 l 1
 117 790 l 1
 100 790 l 1
 100 230 l 1
 145 605 l 1
 145 790 l 1
 128 790 l 1
 128 800 l 1
 240 800 l 1
 240 790 l 1
 210 790 l 1
 210 10 l 1
 240 10 l 1
 240 0 l 1
EndSplineSet
Validated: 1
EndChar

StartChar: afii10075
Encoding: 1081 1081 148
Width: 245
Flags: W
HStem: 0 10<5 35 100 117 128 145 210 240> 790 10<5 35 100 117 128 145 210 240> 807 8<107.138 134.862>
VStem: 35 65<10 203.333 230 790> 61 43<822.746 872> 138 43<822.746 872> 145 65<10 520 546.667 790>
AnchorPoint: "Yerik" 122 918 basechar 0
AnchorPoint: "Diacritic" 122 918 basechar 0
LayerCount: 2
Fore
SplineSet
240 0 m 1xf2
 128 0 l 1
 128 10 l 1
 145 10 l 1
 145 520 l 1
 100 145 l 1
 100 10 l 1
 117 10 l 1
 117 0 l 1
 5 0 l 1
 5 10 l 1
 35 10 l 1
 35 790 l 1
 5 790 l 1
 5 800 l 1
 117 800 l 1
 117 790 l 1
 100 790 l 1
 100 230 l 1
 145 605 l 1
 145 790 l 1
 128 790 l 1
 128 800 l 1
 240 800 l 1
 240 790 l 1
 210 790 l 1
 210 10 l 1
 240 10 l 1
 240 0 l 1xf2
121 807 m 0
 88 807 61 838 61 864 c 2
 61 872 l 1
 104 872 l 1
 104 826 l 2
 104 817 113 815 121 815 c 0
 129 815 138 817 138 826 c 2
 138 872 l 1
 181 872 l 1
 181 864 l 2xec
 181 838 154 807 121 807 c 0
EndSplineSet
Validated: 1
LCarets2: 1 0
Ligature2: "'ccmp' Glyph Composition/Decomposition in Cyrillic-1" afii10074 uni0306
EndChar

StartChar: afii10076
Encoding: 1082 1082 149
Width: 245
Flags: W
HStem: 0 10<5 35 100 117 128 145 210 240> 409 10<100 133.575> 741 65<157.074 216> 790 10<5 35 100 130>
VStem: 35 65<10 409 419 790> 145 65<10 400.719 741 798.414> 145 10<432.036 727.403>
AnchorPoint: "Yerik" 182 858 basechar 0
AnchorPoint: "Diacritic" 122 858 basechar 0
LayerCount: 2
Fore
SplineSet
240 0 m 1xec
 128 0 l 1
 128 10 l 1
 145 10 l 1
 145 393 l 2xec
 145 405 136 409 126 409 c 2
 100 409 l 1
 100 10 l 1
 117 10 l 1
 117 0 l 1
 5 0 l 1
 5 10 l 1
 35 10 l 1
 35 790 l 1
 5 790 l 1
 5 800 l 1
 130 800 l 1
 130 790 l 1
 100 790 l 1
 100 419 l 1
 121 419 l 1
 138 420 145 437 145 454 c 2xda
 145 741 l 2xec
 145 770 152 806 196 806 c 2
 216 806 l 1
 216 741 l 1
 183 741 l 2
 160 741 155 720 155 701 c 2
 155 454 l 2xea
 155 440 151 427 143 419 c 1
 188 416 210 387 210 339 c 2
 210 10 l 1
 240 10 l 1
 240 0 l 1xec
EndSplineSet
Validated: 1
EndChar

StartChar: afii10077
Encoding: 1083 1083 150
Width: 245
Flags: W
HStem: 0 10<5 35 100 117 128 145 210 240> 793 10<92.0843 116.813 130 145 210 240>
VStem: 35 65<10 393.084> 45 41<719.433 784.102> 88 42<552.776 640.914> 145 65<10 790>
AnchorPoint: "Yerik" 182 858 basechar 0
AnchorPoint: "Diacritic" 140 858 basechar 0
LayerCount: 2
Fore
SplineSet
105 793 m 0xe4
 92 793 86 783 86 773 c 0
 86 761 90 751 95 741 c 0
 104 721 110 716 117 696 c 0
 125 674 130 662 130 639 c 0
 130 572 93 522 67 485 c 0
 63 479 55 485 59 491 c 0
 74 511 88 527 88 566 c 0
 88 586 86 598 78 616 c 0
 65 647 45 686 45 730 c 0
 45 767 72 803 102 803 c 0
 121 803 135 785 143 765 c 0
 143 763 144 761 145 759 c 1
 145 790 l 1
 130 790 l 1
 130 800 l 1xdc
 240 800 l 1
 240 790 l 1
 210 790 l 1
 210 10 l 1
 240 10 l 1
 240 0 l 1
 128 0 l 1
 128 10 l 1
 145 10 l 1
 145 532 l 1
 137 507 126 488 115 466 c 0
 105 447 100 399 100 378 c 2
 100 10 l 1
 117 10 l 1
 117 0 l 1
 5 0 l 1
 5 10 l 1
 35 10 l 1
 35 322 l 2
 35 369 62 401 66 407 c 0
 95 450 134 515 145 578 c 1
 145 719 l 1
 140 741 128 793 105 793 c 0xe4
EndSplineSet
Validated: 1
EndChar

StartChar: afii10078
Encoding: 1084 1084 151
Width: 355
Flags: W
HStem: 0 10<5 35 100 117 128 145 210 227 238 255 320 350> 790 10<89.5588 119.596 130 145 210 227 238 255 320 350>
VStem: 35 65<10 393.084> 45 41<719.433 784.102> 88 42<552.776 640.914> 145 65<10 203.333 230 790> 255 65<10 520 546.667 790>
AnchorPoint: "Yerik" 282 858 basechar 0
AnchorPoint: "Diacritic" 230 858 basechar 0
LayerCount: 2
Fore
SplineSet
105 793 m 0xe6
 92 793 86 783 86 773 c 0
 86 761 90 751 95 741 c 0
 104 721 110 716 117 696 c 0
 125 674 130 662 130 639 c 0
 130 572 93 522 67 485 c 0
 63 479 55 485 59 491 c 0
 74 511 88 527 88 566 c 0
 88 586 86 598 78 616 c 0
 65 647 45 686 45 730 c 0
 45 767 72 803 102 803 c 0
 121 803 135 785 143 765 c 0
 143 763 144 761 145 759 c 1
 145 790 l 1
 130 790 l 1
 130 800 l 1xde
 227 800 l 1
 227 790 l 1
 210 790 l 1
 210 230 l 1
 255 605 l 1
 255 790 l 1
 238 790 l 1
 238 800 l 1
 350 800 l 1
 350 790 l 1
 320 790 l 1
 320 10 l 1
 350 10 l 1
 350 0 l 1
 238 0 l 1
 238 10 l 1
 255 10 l 1
 255 520 l 1
 210 145 l 1
 210 10 l 1
 227 10 l 1
 227 0 l 1
 128 0 l 1
 128 10 l 1
 145 10 l 1
 145 532 l 1
 137 507 126 488 115 466 c 0
 105 447 100 399 100 378 c 2
 100 10 l 1
 117 10 l 1
 117 0 l 1
 5 0 l 1
 5 10 l 1
 35 10 l 1
 35 322 l 2
 35 369 62 401 66 407 c 0
 95 450 134 515 145 578 c 1
 145 719 l 1
 140 741 128 793 105 793 c 0xe6
EndSplineSet
Validated: 1
EndChar

StartChar: afii10079
Encoding: 1085 1085 152
Width: 245
Flags: W
HStem: 0 10<5 35 100 117 128 145 210 240> 395 10<100 145> 790 10<5 35 100 117 128 145 210 240>
VStem: 35 65<10 395 405 790> 145 65<10 395 405 790>
CounterMasks: 1 e0
AnchorPoint: "Yerik" 182 858 basechar 0
AnchorPoint: "Diacritic" 122 858 basechar 0
LayerCount: 2
Fore
SplineSet
240 0 m 1
 128 0 l 1
 128 10 l 1
 145 10 l 1
 145 395 l 1
 100 395 l 1
 100 10 l 1
 117 10 l 1
 117 0 l 1
 5 0 l 1
 5 10 l 1
 35 10 l 1
 35 790 l 1
 5 790 l 1
 5 800 l 1
 117 800 l 1
 117 790 l 1
 100 790 l 1
 100 405 l 1
 145 405 l 1
 145 790 l 1
 128 790 l 1
 128 800 l 1
 240 800 l 1
 240 790 l 1
 210 790 l 1
 210 10 l 1
 240 10 l 1
 240 0 l 1
EndSplineSet
Validated: 1
EndChar

StartChar: afii10080
Encoding: 1086 1086 153
Width: 245
Flags: W
HStem: -12 9<106.365 137.97> 803 9<106.365 137.97>
VStem: 35 65<17.3511 782.649> 145 65<17.3511 782.649>
AnchorPoint: "Yerik" 182 858 basechar 0
AnchorPoint: "Diacritic" 122 858 basechar 0
LayerCount: 2
Fore
SplineSet
210 727 m 2
 210 73 l 2
 210 26 169 -12 122 -12 c 0
 74 -12 35 26 35 73 c 2
 35 727 l 2
 35 774 74 812 122 812 c 0
 169 812 210 774 210 727 c 2
100 787 m 2
 100 13 l 2
 100 2 111 -3 122 -3 c 0
 134 -3 145 2 145 13 c 2
 145 787 l 2
 145 798 134 803 122 803 c 0
 111 803 100 798 100 787 c 2
EndSplineSet
Validated: 1
EndChar

StartChar: afii10081
Encoding: 1087 1087 154
Width: 245
Flags: W
HStem: 0 10<5 35 100 117 128 145 210 240> 790 10<5 35 100 145 210 240>
VStem: 35 65<10 790> 145 65<10 790>
AnchorPoint: "Yerik" 182 858 basechar 0
AnchorPoint: "Diacritic" 122 858 basechar 0
LayerCount: 2
Fore
SplineSet
117 0 m 1
 5 0 l 1
 5 10 l 1
 35 10 l 1
 35 790 l 1
 5 790 l 1
 5 800 l 1
 240 800 l 1
 240 790 l 1
 210 790 l 1
 210 10 l 1
 240 10 l 1
 240 0 l 1
 128 0 l 1
 128 10 l 1
 145 10 l 1
 145 790 l 1
 100 790 l 1
 100 10 l 1
 117 10 l 1
 117 0 l 1
EndSplineSet
Validated: 1
EndChar

StartChar: afii10082
Encoding: 1088 1088 155
Width: 245
Flags: W
HStem: 0 10<5 35 100 130> 803 9<106.365 137.97>
VStem: 35 65<10 782.649> 119 10<416.105 482.064> 145 65<409.193 782.649>
AnchorPoint: "Yerik" 182 858 basechar 0
AnchorPoint: "Diacritic" 122 858 basechar 0
LayerCount: 2
Fore
SplineSet
130 0 m 1
 5 0 l 1
 5 10 l 1
 35 10 l 1
 35 727 l 2
 35 774 74 812 122 812 c 0
 169 812 210 774 210 727 c 2
 210 472 l 2
 210 435 191 388 163 388 c 0
 148 388 132 395 124 412 c 1
 113 380 103 344 100 317 c 1
 100 10 l 1
 130 10 l 1
 130 0 l 1
129 432 m 2
 129 425 134 411 140 409 c 1
 145 413 145 425 145 435 c 2
 145 787 l 2
 145 798 134 803 122 803 c 0
 111 803 100 798 100 787 c 2
 100 370 l 1
 102 379 105 388 109 398 c 0
 116 418 118 439 119 455 c 1
 119 476 l 2
 119 484 129 485 129 476 c 2
 129 432 l 2
EndSplineSet
Validated: 1
EndChar

StartChar: afii10083
Encoding: 1089 1089 156
Width: 245
Flags: W
HStem: -12 10<78.8018 113.171> 345 10<115 145 214 240> 585 10<115 145 210 240> 803 9<106.365 137.97>
VStem: 30 73<48.691 128.751 216.672 776.23> 30 43<14.9126 87.0227> 145 65<114.025 345 595 782.649>
AnchorPoint: "Yerik" 182 858 basechar 0
AnchorPoint: "Diacritic" 122 858 basechar 0
LayerCount: 2
Fore
SplineSet
240 345 m 1xf6
 214 345 l 1
 213 294 211 196 188 114 c 0
 172 60 142 -12 96 -12 c 0
 59 -12 30 39 30 76 c 0
 30 102 44 138 78 138 c 0
 97 138 103 121 103 106 c 0xfa
 103 91 99 79 88 61 c 0
 80 47 73 34 73 18 c 0
 73 12 74 9 78 3 c 0
 84 0 90 -2 96 -2 c 0
 105 -2 114 2 122 8 c 0
 136 24 141 46 142 55 c 0
 140 73 137 91 127 109 c 0
 104 149 71 178 57 205 c 0
 44 228 35 250 35 287 c 2
 35 727 l 2
 35 774 74 812 122 812 c 0
 169 812 210 774 210 727 c 2
 210 595 l 1
 240 595 l 1
 240 585 l 1
 115 585 l 1
 115 595 l 1
 145 595 l 1
 145 787 l 2
 145 798 134 803 122 803 c 0
 111 803 100 798 100 787 c 2
 100 260 l 2
 100 198 115 154 136 115 c 0
 140 107 143 100 145 93 c 1
 145 345 l 1
 115 345 l 1
 115 355 l 1
 240 355 l 1
 240 345 l 1xf6
EndSplineSet
Validated: 1
EndChar

StartChar: afii10084
Encoding: 1090 1090 157
Width: 247
Flags: W
HStem: 0 10<61 91 156 186> 790 10<82 91 156 165>
VStem: 17 7<528.555 533.222> 33 49<635.342 789.989> 91 65<10 790> 165 49<637.896 789.989> 223 7<528.555 533.222>
AnchorPoint: "Yerik" 182 858 basechar 0
AnchorPoint: "Diacritic" 122 858 basechar 0
LayerCount: 2
Fore
SplineSet
230 530 m 0
 231 527 225 523 223 527 c 0
 219 534 213 547 210 557 c 0
 190 615 165 716 165 790 c 1
 156 790 l 1
 156 10 l 1
 186 10 l 1
 186 0 l 1
 61 0 l 1
 61 10 l 1
 91 10 l 1
 91 790 l 1
 82 790 l 1
 81 769 77 724 71 685 c 0
 62 635 51 598 37 557 c 0
 34 547 28 534 24 527 c 0
 22 523 16 527 17 530 c 0
 31 564 33 610 33 658 c 0
 33 712 27 754 17 790 c 0
 16 794 17 797 18 800 c 1
 229 800 l 1
 230 797 231 794 230 790 c 0
 220 754 214 712 214 658 c 0
 214 610 216 564 230 530 c 0
EndSplineSet
Validated: 1
EndChar

StartChar: uniA64B
Encoding: 42571 42571 158
Width: 236
Flags: W
HStem: -12 9<109.221 136.983> 279 9<109.267 124> 741 65<166.666 224> 790 10<5 32 97 130>
VStem: 44 54<26.7268 249.273> 112 10<25.0781 173.5> 124 10<196 276 288 332 342 425.833> 145 7<569.944 678.839> 149 54<29 247.759>
AnchorPoint: "Yerik" 182 858 basechar 0
AnchorPoint: "Diacritic" 122 858 basechar 0
LayerCount: 2
Fore
SplineSet
44 158 m 2xee80
 44 222 72 288 123 288 c 2
 124 288 l 1
 126 332 l 1
 61 332 l 1
 32 790 l 1
 5 790 l 1
 5 800 l 1
 130 800 l 1
 130 790 l 1
 97 790 l 1xde80
 126 342 l 1
 127 342 l 1
 145 715 l 2
 147 763 161 806 198 806 c 2
 224 806 l 1
 224 741 l 1
 194 741 l 2
 175 741 156 721 152 644 c 2xef
 134 287 l 1
 178 278 203 217 203 158 c 2
 203 118 l 2
 203 54 174 -12 123 -12 c 0
 72 -12 44 54 44 118 c 2
 44 158 l 2xee80
149 252 m 2
 149 265 141 273 134 276 c 1
 122 30 l 2
 122 23 112 23 112 30 c 2
 124 279 l 1
 123 279 l 2
 113 279 98 272 98 252 c 2
 98 24 l 2
 98 4 113 -3 123 -3 c 0
 133 -3 149 4 149 24 c 2
 149 252 l 2
EndSplineSet
Validated: 1
EndChar

StartChar: afii10086
Encoding: 1092 1092 159
Width: 355
Flags: W
HStem: 0 10<115 145 210 240> 90 10<104.768 145 210 250.232> 750 10<104.768 145 210 250.232> 790 10<115 145 210 240>
VStem: 35 65<119.351 730.649> 145 65<10 90 100 750 760 790> 255 65<119.351 730.649>
CounterMasks: 1 0e
AnchorPoint: "Yerik" 288 858 basechar 0
AnchorPoint: "Diacritic" 177 858 basechar 0
LayerCount: 2
Fore
SplineSet
320 175 m 2
 320 128 280 90 233 90 c 2
 210 90 l 1
 210 10 l 1
 240 10 l 1
 240 0 l 1
 115 0 l 1
 115 10 l 1
 145 10 l 1
 145 90 l 1
 122 90 l 2
 75 90 35 128 35 175 c 2
 35 675 l 2
 35 722 75 760 122 760 c 2
 145 760 l 1
 145 790 l 1
 115 790 l 1
 115 800 l 1
 240 800 l 1
 240 790 l 1
 210 790 l 1
 210 760 l 1
 233 760 l 2
 280 760 320 722 320 675 c 2
 320 175 l 2
233 100 m 2
 244 100 255 104 255 115 c 2
 255 735 l 2
 255 746 244 750 233 750 c 2
 210 750 l 1
 210 100 l 1
 233 100 l 2
100 735 m 2
 100 115 l 2
 100 104 111 100 122 100 c 2
 145 100 l 1
 145 750 l 1
 122 750 l 2
 111 750 100 746 100 735 c 2
EndSplineSet
Validated: 1
EndChar

StartChar: afii10087
Encoding: 1093 1093 160
Width: 245
Flags: W
HStem: 0 10<5 48 58 100 111 144 209 240> 741 65<165.908 224> 790 10<5 35 100 130>
VStem: 5 235
AnchorPoint: "Yerik" 189 858 basechar 0
AnchorPoint: "Diacritic" 122 858 basechar 0
LayerCount: 2
Fore
SplineSet
100 0 m 1xd0
 5 0 l 1
 5 10 l 1
 48 10 l 1
 96 356 l 1
 35 790 l 1
 5 790 l 1
 5 800 l 1
 130 800 l 1
 130 790 l 1
 100 790 l 1xb0
 128 591 l 1
 145 715 l 2
 152 768 161 806 198 806 c 2
 224 806 l 1
 224 741 l 1
 194 741 l 2
 172 741 156 716 146 647 c 2
 133 554 l 1
 209 10 l 1
 240 10 l 1
 240 0 l 1
 111 0 l 1
 111 10 l 1
 144 10 l 1
 101 320 l 1
 58 10 l 1
 100 10 l 1
 100 0 l 1xd0
EndSplineSet
Validated: 1
EndChar

StartChar: afii10088
Encoding: 1094 1094 161
Width: 255
Flags: W
HStem: 0 10<5 35 100 145> 790 10<5 35 100 117 128 145 210 240>
VStem: 35 65<10 790> 145 65<10 790> 184 54<-137.292 -0.00660075> 251 7<-256.249 -250.847>
AnchorPoint: "Yerik" 182 858 basechar 0
AnchorPoint: "Diacritic" 122 858 basechar 0
LayerCount: 2
Fore
SplineSet
258 -255 m 0xec
 259 -258 252 -261 251 -258 c 0
 249 -253 242 -240 238 -229 c 0
 219 -180 210 -159 198 -107 c 0
 189 -70 184 -21 184 0 c 1xec
 5 0 l 1
 5 10 l 1
 35 10 l 1
 35 790 l 1
 5 790 l 1
 5 800 l 1
 117 800 l 1
 117 790 l 1
 100 790 l 1
 100 10 l 1
 145 10 l 1
 145 790 l 1
 128 790 l 1
 128 800 l 1
 240 800 l 1
 240 790 l 1
 210 790 l 1
 210 10 l 1xf4
 250 10 l 1
 251 7 251 4 250 0 c 0
 246 -22 238 -69 238 -105 c 0
 238 -159 241 -210 258 -255 c 0xec
EndSplineSet
Validated: 1
EndChar

StartChar: afii10089
Encoding: 1095 1095 162
Width: 245
Flags: W
HStem: 0 10<115 145 210 240> 365 10<104.389 145> 790 10<5 35 100 117 128 145 210 240>
VStem: 35 65<382.323 790> 145 65<10 365 375 790>
AnchorPoint: "Yerik" 182 858 basechar 0
AnchorPoint: "Diacritic" 122 858 basechar 0
LayerCount: 2
Fore
SplineSet
240 0 m 1
 115 0 l 1
 115 10 l 1
 145 10 l 1
 145 365 l 1
 109 365 l 2
 59 365 35 394 35 445 c 2
 35 790 l 1
 5 790 l 1
 5 800 l 1
 117 800 l 1
 117 790 l 1
 100 790 l 1
 100 391 l 2
 100 379 109 375 119 375 c 2
 145 375 l 1
 145 790 l 1
 128 790 l 1
 128 800 l 1
 240 800 l 1
 240 790 l 1
 210 790 l 1
 210 10 l 1
 240 10 l 1
 240 0 l 1
EndSplineSet
Validated: 1
EndChar

StartChar: afii10090
Encoding: 1096 1096 163
Width: 355
Flags: W
HStem: 0 10<5 35 100 145 210 255 320 350> 790 10<5 35 100 117 128 145 210 227 238 255 320 350>
VStem: 35 65<10 790> 145 65<10 790> 255 65<10 790>
CounterMasks: 1 38
AnchorPoint: "Yerik" 292 858 basechar 0
AnchorPoint: "Diacritic" 173 858 basechar 0
LayerCount: 2
Fore
SplineSet
350 790 m 1
 320 790 l 1
 320 10 l 1
 350 10 l 1
 350 0 l 1
 5 0 l 1
 5 10 l 1
 35 10 l 1
 35 790 l 1
 5 790 l 1
 5 800 l 1
 117 800 l 1
 117 790 l 1
 100 790 l 1
 100 10 l 1
 145 10 l 1
 145 790 l 1
 128 790 l 1
 128 800 l 1
 227 800 l 1
 227 790 l 1
 210 790 l 1
 210 10 l 1
 255 10 l 1
 255 790 l 1
 238 790 l 1
 238 800 l 1
 350 800 l 1
 350 790 l 1
EndSplineSet
Validated: 1
EndChar

StartChar: afii10091
Encoding: 1097 1097 164
Width: 365
Flags: W
HStem: 0 10<5 35 100 145 210 255> 790 10<5 35 100 117 128 145 210 227 238 255 320 350>
VStem: 35 65<10 790> 145 65<10 790> 255 65<10 790> 294 54<-137.292 -0.00660075> 361 7<-256.249 -250.847>
AnchorPoint: "Yerik" 292 858 basechar 0
AnchorPoint: "Diacritic" 181 858 basechar 0
LayerCount: 2
Fore
SplineSet
350 790 m 1xfa
 320 790 l 1
 320 10 l 1xfa
 360 10 l 1
 361 7 361 4 360 0 c 0
 356 -22 348 -69 348 -105 c 0
 348 -159 351 -210 368 -255 c 0
 369 -258 362 -261 361 -258 c 0
 359 -253 352 -240 348 -229 c 0
 329 -180 320 -159 308 -107 c 0
 299 -70 294 -21 294 0 c 1xf6
 5 0 l 1
 5 10 l 1
 35 10 l 1
 35 790 l 1
 5 790 l 1
 5 800 l 1
 117 800 l 1
 117 790 l 1
 100 790 l 1
 100 10 l 1
 145 10 l 1
 145 790 l 1
 128 790 l 1
 128 800 l 1
 227 800 l 1
 227 790 l 1
 210 790 l 1
 210 10 l 1
 255 10 l 1
 255 790 l 1
 238 790 l 1
 238 800 l 1
 350 800 l 1
 350 790 l 1xfa
EndSplineSet
Validated: 1
EndChar

StartChar: afii10092
Encoding: 1098 1098 165
Width: 305
Flags: W
HStem: 0 10<65 95 160 205 270 300> 790 10<85 95 160 190>
VStem: 11 7<533.751 539.153> 31 54<652.708 789.993> 95 65<10 790> 205 65<10 399.776>
AnchorPoint: "Yerik" 232 858 basechar 0
AnchorPoint: "Diacritic" 122 858 basechar 0
LayerCount: 2
Fore
SplineSet
300 0 m 1
 65 0 l 1
 65 10 l 1
 95 10 l 1
 95 790 l 1
 85 790 l 1
 84 769 79 719 71 683 c 0
 59 631 50 610 31 561 c 0
 27 550 20 537 18 532 c 0
 17 529 10 532 11 535 c 0
 28 581 31 631 31 685 c 0
 31 721 23 768 19 790 c 0
 18 794 18 797 19 800 c 1
 190 800 l 1
 190 790 l 1
 160 790 l 1
 160 507 l 1
 162 477 172 456 196 433 c 0
 218 410 244 399 270 394 c 1
 270 10 l 1
 300 10 l 1
 300 0 l 1
160 464 m 1
 160 10 l 1
 205 10 l 1
 205 410 l 1
 187 425 169 444 160 464 c 1
EndSplineSet
Validated: 1
EndChar

StartChar: afii10093
Encoding: 1099 1099 166
Width: 355
Flags: W
HStem: 0 10<5 35 100 145 210 227 238 255 320 350> 790 10<5 35 100 130 238 255 320 350>
VStem: 35 65<10 790> 145 65<10 399.776> 255 65<10 790>
CounterMasks: 1 38
AnchorPoint: "Yerik" 292 858 basechar 0
AnchorPoint: "Diacritic" 179 858 basechar 0
LayerCount: 2
Fore
SplineSet
5 0 m 1
 5 10 l 1
 35 10 l 1
 35 790 l 1
 5 790 l 1
 5 800 l 1
 130 800 l 1
 130 790 l 1
 100 790 l 1
 100 510 l 1
 102 479 112 457 136 433 c 0
 158 410 184 399 210 394 c 1
 210 10 l 1
 227 10 l 1
 227 0 l 1
 5 0 l 1
350 0 m 1
 238 0 l 1
 238 10 l 1
 255 10 l 1
 255 790 l 1
 238 790 l 1
 238 800 l 1
 350 800 l 1
 350 790 l 1
 320 790 l 1
 320 10 l 1
 350 10 l 1
 350 0 l 1
100 464 m 1
 100 10 l 1
 145 10 l 1
 145 410 l 1
 127 425 109 444 100 464 c 1
EndSplineSet
Validated: 1
EndChar

StartChar: afii10094
Encoding: 1100 1100 167
Width: 245
Flags: W
HStem: 0 10<5 35 100 145 210 240> 790 10<5 35 100 130>
VStem: 35 65<10 790> 145 65<10 399.776>
AnchorPoint: "Yerik" 182 858 basechar 0
AnchorPoint: "Diacritic" 65 858 basechar 0
LayerCount: 2
Fore
SplineSet
5 0 m 1
 5 10 l 1
 35 10 l 1
 35 790 l 1
 5 790 l 1
 5 800 l 1
 130 800 l 1
 130 790 l 1
 100 790 l 1
 100 510 l 1
 102 479 112 457 136 433 c 0
 158 410 184 399 210 394 c 1
 210 10 l 1
 240 10 l 1
 240 0 l 1
 5 0 l 1
100 464 m 1
 100 10 l 1
 145 10 l 1
 145 410 l 1
 127 425 109 444 100 464 c 1
EndSplineSet
Validated: 1
EndChar

StartChar: uni0463
Encoding: 1123 1123 168
Width: 301
Flags: W
HStem: 0 10<61 91 156 201 266 296> 730 10<82 91 156 165> 790 10<61 91 156 186>
VStem: 17 7<468.555 473.222> 33 49<575.342 729.989> 91 65<10 730 740 790> 165 49<577.896 729.989> 201 65<10 399.776> 223 7<468.555 473.222>
AnchorPoint: "Yerik" 212 858 basechar 0
AnchorPoint: "Diacritic" 127 858 basechar 0
LayerCount: 2
Fore
SplineSet
230 470 m 0xfe80
 231 467 225 463 223 467 c 0
 219 474 213 487 210 497 c 0
 190 555 165 656 165 730 c 1xfe80
 156 730 l 1
 156 657 156 583 156 510 c 1
 158 479 168 457 192 433 c 0
 214 410 240 399 266 394 c 1
 266 10 l 1xfd
 296 10 l 1
 296 0 l 1
 61 0 l 1
 61 10 l 1
 91 10 l 1
 91 730 l 1
 82 730 l 1
 81 709 77 664 71 625 c 0
 62 575 51 538 37 497 c 0
 34 487 28 474 24 467 c 0
 22 463 16 467 17 470 c 0
 31 504 33 550 33 598 c 0
 33 652 27 694 17 730 c 0
 16 734 17 737 18 740 c 1
 91 740 l 1
 91 790 l 1
 61 790 l 1
 61 800 l 1
 186 800 l 1
 186 790 l 1
 156 790 l 1
 156 740 l 1
 229 740 l 1
 230 737 231 734 230 730 c 0
 220 694 214 652 214 598 c 0
 214 550 216 504 230 470 c 0xfe80
156 464 m 1
 156 10 l 1
 201 10 l 1
 201 410 l 1xfd
 183 425 165 444 156 464 c 1
EndSplineSet
Validated: 1
EndChar

StartChar: afii10096
Encoding: 1102 1102 169
Width: 355
Flags: W
HStem: -12 9<216.365 247.97> 0 10<5 35 100 130> 395 10<100 145> 790 10<5 35 100 130> 803 9<216.365 247.97>
VStem: 35 65<10 395 405 790> 145 65<17.3511 395 405 782.649> 255 65<17.3511 782.649>
CounterMasks: 1 07
AnchorPoint: "Yerik" 285 858 basechar 0
AnchorPoint: "Diacritic" 173 858 basechar 0
LayerCount: 2
Fore
SplineSet
320 727 m 2
 320 73 l 2
 320 26 279 -12 232 -12 c 0
 184 -12 145 26 145 73 c 2
 145 395 l 1
 100 395 l 1
 100 10 l 1
 130 10 l 1
 130 0 l 1
 5 0 l 1
 5 10 l 1
 35 10 l 1
 35 790 l 1
 5 790 l 1
 5 800 l 1
 130 800 l 1
 130 790 l 1
 100 790 l 1
 100 405 l 1
 145 405 l 1
 145 727 l 2
 145 774 184 812 232 812 c 0
 279 812 320 774 320 727 c 2
210 787 m 2
 210 13 l 2
 210 2 221 -3 232 -3 c 0
 244 -3 255 2 255 13 c 2
 255 787 l 2
 255 798 244 803 232 803 c 0
 221 803 210 798 210 787 c 2
EndSplineSet
Validated: 1
EndChar

StartChar: uniA657
Encoding: 42583 42583 170
Width: 355
Flags: W
HStem: 0 10<5 35 100 117 128 145 210 227 238 255 320 350> 342 10<211.875 214> 665 10<100 161> 790 10<5 35 100 117 198.235 229.078 240 255 320 350>
VStem: 35 65<10 665 675 790> 145 65<10 281.365> 153 41<717.823 783.096> 156 54<352.216 454.599> 194 42<556.865 642.453> 255 65<10 790>
AnchorPoint: "Yerik" 284 858 basechar 0
AnchorPoint: "Diacritic" 182 858 basechar 0
LayerCount: 2
Fore
SplineSet
214 793 m 0xf940
 201 793 194 783 194 773 c 0xfa40
 194 761 198 751 203 741 c 0
 217 711 236 680 236 639 c 0
 236 575 198 526 173 490 c 0
 169 484 161 490 165 496 c 0
 180 516 194 532 194 571 c 0xf8c0
 194 591 192 598 184 616 c 0
 179 626 171 648 165 665 c 1
 100 665 l 1
 100 10 l 1
 117 10 l 1
 117 0 l 1
 5 0 l 1
 5 10 l 1
 35 10 l 1
 35 790 l 1
 5 790 l 1
 5 800 l 1
 117 800 l 1
 117 790 l 1
 100 790 l 1
 100 675 l 1
 161 675 l 1
 155 694 153 708 153 730 c 0xfa40
 153 767 181 803 211 803 c 0
 232 803 245 785 253 765 c 0
 253 763 254 761 255 759 c 1
 255 790 l 1
 240 790 l 1
 240 800 l 1
 350 800 l 1
 350 790 l 1
 320 790 l 1
 320 10 l 1
 350 10 l 1
 350 0 l 1
 238 0 l 1
 238 10 l 1
 255 10 l 1
 255 375 l 1
 244 362 231 347 224 338 c 0
 211 323 210 303 210 283 c 0xf940
 210 278 210 273 210 268 c 2
 210 10 l 1
 227 10 l 1
 227 0 l 1
 128 0 l 1
 128 10 l 1
 145 10 l 1
 145 212 l 2xfc40
 145 265 181 306 214 342 c 1
 201 342 l 2
 169 342 157 363 156 383 c 0
 156 385 156 387 156 389 c 0
 156 420 163 435 181 459 c 0
 199 484 210 496 227 525 c 0
 240 547 249 572 255 595 c 1
 255 719 l 1
 250 741 238 793 214 793 c 0xf940
235 519 m 0
 218 490 210 466 210 433 c 2
 210 368 l 2xf940
 210 360 212 352 219 352 c 2
 223 352 l 1
 235 365 246 379 255 390 c 1
 255 559 l 1
 250 545 243 532 235 519 c 0
EndSplineSet
Validated: 1
EndChar

StartChar: uni2027
Encoding: 8231 8231 171
Width: 159
Flags: W
HStem: 355 90<43.4399 118.56>
VStem: 37 88<361.481 438.519>
LayerCount: 2
Fore
SplineSet
37 400 m 0
 37 425 57 445 81 445 c 0
 105 445 125 425 125 400 c 0
 125 375 105 355 81 355 c 0
 57 355 37 375 37 400 c 0
EndSplineSet
Validated: 1
EndChar

StartChar: sfthyphen
Encoding: 173 173 172
Width: 215
Flags: W
HStem: 380 40<25 190>
VStem: 25 165<380 420>
LayerCount: 2
Fore
SplineSet
190 380 m 1
 25 380 l 1
 25 420 l 1
 190 420 l 1
 190 380 l 1
EndSplineSet
Validated: 1
EndChar

StartChar: uni0001
Encoding: 1 1 173
Width: 360
Flags: W
HStem: 0 20<86 274> 780 20<86 273>
VStem: 50 20<40 762> 290 20<40 762>
LayerCount: 2
Fore
SplineSet
310 0 m 1
 50 0 l 1
 50 800 l 1
 310 800 l 1
 310 0 l 1
190 401 m 1
 290 40 l 1
 290 762 l 1
 190 401 l 1
169 401 m 1
 70 762 l 1
 70 40 l 1
 169 401 l 1
180 362 m 1
 86 20 l 1
 274 20 l 1
 180 362 l 1
86 780 m 1
 180 440 l 1
 273 780 l 1
 86 780 l 1
EndSplineSet
Validated: 1
EndChar

StartChar: uni0002
Encoding: 2 2 174
Width: 360
Flags: W
HStem: 0 20<86 274> 780 20<86 273>
VStem: 50 20<40 762> 290 20<40 762>
LayerCount: 2
Fore
SplineSet
310 0 m 1
 50 0 l 1
 50 800 l 1
 310 800 l 1
 310 0 l 1
190 401 m 1
 290 40 l 1
 290 762 l 1
 190 401 l 1
169 401 m 1
 70 762 l 1
 70 40 l 1
 169 401 l 1
180 362 m 1
 86 20 l 1
 274 20 l 1
 180 362 l 1
86 780 m 1
 180 440 l 1
 273 780 l 1
 86 780 l 1
EndSplineSet
Validated: 1
EndChar

StartChar: uni0003
Encoding: 3 3 175
Width: 360
Flags: W
HStem: 0 20<86 274> 780 20<86 273>
VStem: 50 20<40 762> 290 20<40 762>
LayerCount: 2
Fore
SplineSet
310 0 m 1
 50 0 l 1
 50 800 l 1
 310 800 l 1
 310 0 l 1
190 401 m 1
 290 40 l 1
 290 762 l 1
 190 401 l 1
169 401 m 1
 70 762 l 1
 70 40 l 1
 169 401 l 1
180 362 m 1
 86 20 l 1
 274 20 l 1
 180 362 l 1
86 780 m 1
 180 440 l 1
 273 780 l 1
 86 780 l 1
EndSplineSet
Validated: 1
EndChar

StartChar: uni0004
Encoding: 4 4 176
Width: 360
Flags: W
HStem: 0 20<86 274> 780 20<86 273>
VStem: 50 20<40 762> 290 20<40 762>
LayerCount: 2
Fore
SplineSet
310 0 m 1
 50 0 l 1
 50 800 l 1
 310 800 l 1
 310 0 l 1
190 401 m 1
 290 40 l 1
 290 762 l 1
 190 401 l 1
169 401 m 1
 70 762 l 1
 70 40 l 1
 169 401 l 1
180 362 m 1
 86 20 l 1
 274 20 l 1
 180 362 l 1
86 780 m 1
 180 440 l 1
 273 780 l 1
 86 780 l 1
EndSplineSet
Validated: 1
EndChar

StartChar: uni0005
Encoding: 5 5 177
Width: 360
Flags: W
HStem: 0 20<86 274> 780 20<86 273>
VStem: 50 20<40 762> 290 20<40 762>
LayerCount: 2
Fore
SplineSet
310 0 m 1
 50 0 l 1
 50 800 l 1
 310 800 l 1
 310 0 l 1
190 401 m 1
 290 40 l 1
 290 762 l 1
 190 401 l 1
169 401 m 1
 70 762 l 1
 70 40 l 1
 169 401 l 1
180 362 m 1
 86 20 l 1
 274 20 l 1
 180 362 l 1
86 780 m 1
 180 440 l 1
 273 780 l 1
 86 780 l 1
EndSplineSet
Validated: 1
EndChar

StartChar: uni0006
Encoding: 6 6 178
Width: 360
Flags: W
HStem: 0 20<86 274> 780 20<86 273>
VStem: 50 20<40 762> 290 20<40 762>
LayerCount: 2
Fore
SplineSet
310 0 m 1
 50 0 l 1
 50 800 l 1
 310 800 l 1
 310 0 l 1
190 401 m 1
 290 40 l 1
 290 762 l 1
 190 401 l 1
169 401 m 1
 70 762 l 1
 70 40 l 1
 169 401 l 1
180 362 m 1
 86 20 l 1
 274 20 l 1
 180 362 l 1
86 780 m 1
 180 440 l 1
 273 780 l 1
 86 780 l 1
EndSplineSet
Validated: 1
EndChar

StartChar: uni0007
Encoding: 7 7 179
Width: 360
Flags: W
HStem: 0 20<86 274> 780 20<86 273>
VStem: 50 20<40 762> 290 20<40 762>
LayerCount: 2
Fore
SplineSet
310 0 m 1
 50 0 l 1
 50 800 l 1
 310 800 l 1
 310 0 l 1
190 401 m 1
 290 40 l 1
 290 762 l 1
 190 401 l 1
169 401 m 1
 70 762 l 1
 70 40 l 1
 169 401 l 1
180 362 m 1
 86 20 l 1
 274 20 l 1
 180 362 l 1
86 780 m 1
 180 440 l 1
 273 780 l 1
 86 780 l 1
EndSplineSet
Validated: 1
EndChar

StartChar: uni000B
Encoding: 11 11 183
Width: 360
Flags: W
HStem: 0 20<86 274> 780 20<86 273>
VStem: 50 20<40 762> 290 20<40 762>
LayerCount: 2
Fore
SplineSet
310 0 m 1
 50 0 l 1
 50 800 l 1
 310 800 l 1
 310 0 l 1
190 401 m 1
 290 40 l 1
 290 762 l 1
 190 401 l 1
169 401 m 1
 70 762 l 1
 70 40 l 1
 169 401 l 1
180 362 m 1
 86 20 l 1
 274 20 l 1
 180 362 l 1
86 780 m 1
 180 440 l 1
 273 780 l 1
 86 780 l 1
EndSplineSet
Validated: 1
EndChar

StartChar: uni000C
Encoding: 12 12 184
Width: 360
Flags: W
HStem: 0 20<86 274> 780 20<86 273>
VStem: 50 20<40 762> 290 20<40 762>
LayerCount: 2
Fore
SplineSet
310 0 m 1
 50 0 l 1
 50 800 l 1
 310 800 l 1
 310 0 l 1
190 401 m 1
 290 40 l 1
 290 762 l 1
 190 401 l 1
169 401 m 1
 70 762 l 1
 70 40 l 1
 169 401 l 1
180 362 m 1
 86 20 l 1
 274 20 l 1
 180 362 l 1
86 780 m 1
 180 440 l 1
 273 780 l 1
 86 780 l 1
EndSplineSet
Validated: 1
EndChar

StartChar: uni000E
Encoding: 14 14 186
Width: 360
Flags: W
HStem: 0 20<86 274> 780 20<86 273>
VStem: 50 20<40 762> 290 20<40 762>
LayerCount: 2
Fore
SplineSet
310 0 m 1
 50 0 l 1
 50 800 l 1
 310 800 l 1
 310 0 l 1
190 401 m 1
 290 40 l 1
 290 762 l 1
 190 401 l 1
169 401 m 1
 70 762 l 1
 70 40 l 1
 169 401 l 1
180 362 m 1
 86 20 l 1
 274 20 l 1
 180 362 l 1
86 780 m 1
 180 440 l 1
 273 780 l 1
 86 780 l 1
EndSplineSet
Validated: 1
EndChar

StartChar: uni000F
Encoding: 15 15 187
Width: 360
Flags: W
HStem: 0 20<86 274> 780 20<86 273>
VStem: 50 20<40 762> 290 20<40 762>
LayerCount: 2
Fore
SplineSet
310 0 m 1
 50 0 l 1
 50 800 l 1
 310 800 l 1
 310 0 l 1
190 401 m 1
 290 40 l 1
 290 762 l 1
 190 401 l 1
169 401 m 1
 70 762 l 1
 70 40 l 1
 169 401 l 1
180 362 m 1
 86 20 l 1
 274 20 l 1
 180 362 l 1
86 780 m 1
 180 440 l 1
 273 780 l 1
 86 780 l 1
EndSplineSet
Validated: 1
EndChar

StartChar: uni0010
Encoding: 16 16 188
Width: 360
Flags: W
HStem: 0 20<86 274> 780 20<86 273>
VStem: 50 20<40 762> 290 20<40 762>
LayerCount: 2
Fore
SplineSet
310 0 m 1
 50 0 l 1
 50 800 l 1
 310 800 l 1
 310 0 l 1
190 401 m 1
 290 40 l 1
 290 762 l 1
 190 401 l 1
169 401 m 1
 70 762 l 1
 70 40 l 1
 169 401 l 1
180 362 m 1
 86 20 l 1
 274 20 l 1
 180 362 l 1
86 780 m 1
 180 440 l 1
 273 780 l 1
 86 780 l 1
EndSplineSet
Validated: 1
EndChar

StartChar: uni0011
Encoding: 17 17 189
Width: 360
Flags: W
HStem: 0 20<86 274> 780 20<86 273>
VStem: 50 20<40 762> 290 20<40 762>
LayerCount: 2
Fore
SplineSet
310 0 m 1
 50 0 l 1
 50 800 l 1
 310 800 l 1
 310 0 l 1
190 401 m 1
 290 40 l 1
 290 762 l 1
 190 401 l 1
169 401 m 1
 70 762 l 1
 70 40 l 1
 169 401 l 1
180 362 m 1
 86 20 l 1
 274 20 l 1
 180 362 l 1
86 780 m 1
 180 440 l 1
 273 780 l 1
 86 780 l 1
EndSplineSet
Validated: 1
EndChar

StartChar: uni0012
Encoding: 18 18 190
Width: 360
Flags: W
HStem: 0 20<86 274> 780 20<86 273>
VStem: 50 20<40 762> 290 20<40 762>
LayerCount: 2
Fore
SplineSet
310 0 m 1
 50 0 l 1
 50 800 l 1
 310 800 l 1
 310 0 l 1
190 401 m 1
 290 40 l 1
 290 762 l 1
 190 401 l 1
169 401 m 1
 70 762 l 1
 70 40 l 1
 169 401 l 1
180 362 m 1
 86 20 l 1
 274 20 l 1
 180 362 l 1
86 780 m 1
 180 440 l 1
 273 780 l 1
 86 780 l 1
EndSplineSet
Validated: 1
EndChar

StartChar: uni0013
Encoding: 19 19 191
Width: 360
Flags: W
HStem: 0 20<86 274> 780 20<86 273>
VStem: 50 20<40 762> 290 20<40 762>
LayerCount: 2
Fore
SplineSet
310 0 m 1
 50 0 l 1
 50 800 l 1
 310 800 l 1
 310 0 l 1
190 401 m 1
 290 40 l 1
 290 762 l 1
 190 401 l 1
169 401 m 1
 70 762 l 1
 70 40 l 1
 169 401 l 1
180 362 m 1
 86 20 l 1
 274 20 l 1
 180 362 l 1
86 780 m 1
 180 440 l 1
 273 780 l 1
 86 780 l 1
EndSplineSet
Validated: 1
EndChar

StartChar: uni0014
Encoding: 20 20 192
Width: 360
Flags: W
HStem: 0 20<86 274> 780 20<86 273>
VStem: 50 20<40 762> 290 20<40 762>
LayerCount: 2
Fore
SplineSet
310 0 m 1
 50 0 l 1
 50 800 l 1
 310 800 l 1
 310 0 l 1
190 401 m 1
 290 40 l 1
 290 762 l 1
 190 401 l 1
169 401 m 1
 70 762 l 1
 70 40 l 1
 169 401 l 1
180 362 m 1
 86 20 l 1
 274 20 l 1
 180 362 l 1
86 780 m 1
 180 440 l 1
 273 780 l 1
 86 780 l 1
EndSplineSet
Validated: 1
EndChar

StartChar: uni0015
Encoding: 21 21 193
Width: 360
Flags: W
HStem: 0 20<86 274> 780 20<86 273>
VStem: 50 20<40 762> 290 20<40 762>
LayerCount: 2
Fore
SplineSet
310 0 m 1
 50 0 l 1
 50 800 l 1
 310 800 l 1
 310 0 l 1
190 401 m 1
 290 40 l 1
 290 762 l 1
 190 401 l 1
169 401 m 1
 70 762 l 1
 70 40 l 1
 169 401 l 1
180 362 m 1
 86 20 l 1
 274 20 l 1
 180 362 l 1
86 780 m 1
 180 440 l 1
 273 780 l 1
 86 780 l 1
EndSplineSet
Validated: 1
EndChar

StartChar: uni0016
Encoding: 22 22 194
Width: 360
Flags: W
HStem: 0 20<86 274> 780 20<86 273>
VStem: 50 20<40 762> 290 20<40 762>
LayerCount: 2
Fore
SplineSet
310 0 m 1
 50 0 l 1
 50 800 l 1
 310 800 l 1
 310 0 l 1
190 401 m 1
 290 40 l 1
 290 762 l 1
 190 401 l 1
169 401 m 1
 70 762 l 1
 70 40 l 1
 169 401 l 1
180 362 m 1
 86 20 l 1
 274 20 l 1
 180 362 l 1
86 780 m 1
 180 440 l 1
 273 780 l 1
 86 780 l 1
EndSplineSet
Validated: 1
EndChar

StartChar: uni0017
Encoding: 23 23 195
Width: 360
Flags: W
HStem: 0 20<86 274> 780 20<86 273>
VStem: 50 20<40 762> 290 20<40 762>
LayerCount: 2
Fore
SplineSet
310 0 m 1
 50 0 l 1
 50 800 l 1
 310 800 l 1
 310 0 l 1
190 401 m 1
 290 40 l 1
 290 762 l 1
 190 401 l 1
169 401 m 1
 70 762 l 1
 70 40 l 1
 169 401 l 1
180 362 m 1
 86 20 l 1
 274 20 l 1
 180 362 l 1
86 780 m 1
 180 440 l 1
 273 780 l 1
 86 780 l 1
EndSplineSet
Validated: 1
EndChar

StartChar: uni0018
Encoding: 24 24 196
Width: 360
Flags: W
HStem: 0 20<86 274> 780 20<86 273>
VStem: 50 20<40 762> 290 20<40 762>
LayerCount: 2
Fore
SplineSet
310 0 m 1
 50 0 l 1
 50 800 l 1
 310 800 l 1
 310 0 l 1
190 401 m 1
 290 40 l 1
 290 762 l 1
 190 401 l 1
169 401 m 1
 70 762 l 1
 70 40 l 1
 169 401 l 1
180 362 m 1
 86 20 l 1
 274 20 l 1
 180 362 l 1
86 780 m 1
 180 440 l 1
 273 780 l 1
 86 780 l 1
EndSplineSet
Validated: 1
EndChar

StartChar: uni0019
Encoding: 25 25 197
Width: 360
Flags: W
HStem: 0 20<86 274> 780 20<86 273>
VStem: 50 20<40 762> 290 20<40 762>
LayerCount: 2
Fore
SplineSet
310 0 m 1
 50 0 l 1
 50 800 l 1
 310 800 l 1
 310 0 l 1
190 401 m 1
 290 40 l 1
 290 762 l 1
 190 401 l 1
169 401 m 1
 70 762 l 1
 70 40 l 1
 169 401 l 1
180 362 m 1
 86 20 l 1
 274 20 l 1
 180 362 l 1
86 780 m 1
 180 440 l 1
 273 780 l 1
 86 780 l 1
EndSplineSet
Validated: 1
EndChar

StartChar: uni001A
Encoding: 26 26 198
Width: 360
Flags: W
HStem: 0 20<86 274> 780 20<86 273>
VStem: 50 20<40 762> 290 20<40 762>
LayerCount: 2
Fore
SplineSet
310 0 m 1
 50 0 l 1
 50 800 l 1
 310 800 l 1
 310 0 l 1
190 401 m 1
 290 40 l 1
 290 762 l 1
 190 401 l 1
169 401 m 1
 70 762 l 1
 70 40 l 1
 169 401 l 1
180 362 m 1
 86 20 l 1
 274 20 l 1
 180 362 l 1
86 780 m 1
 180 440 l 1
 273 780 l 1
 86 780 l 1
EndSplineSet
Validated: 1
EndChar

StartChar: uni001B
Encoding: 27 27 199
Width: 360
Flags: W
HStem: 0 20<86 274> 780 20<86 273>
VStem: 50 20<40 762> 290 20<40 762>
LayerCount: 2
Fore
SplineSet
310 0 m 1
 50 0 l 1
 50 800 l 1
 310 800 l 1
 310 0 l 1
190 401 m 1
 290 40 l 1
 290 762 l 1
 190 401 l 1
169 401 m 1
 70 762 l 1
 70 40 l 1
 169 401 l 1
180 362 m 1
 86 20 l 1
 274 20 l 1
 180 362 l 1
86 780 m 1
 180 440 l 1
 273 780 l 1
 86 780 l 1
EndSplineSet
Validated: 1
EndChar

StartChar: uni001C
Encoding: 28 28 200
Width: 360
Flags: W
HStem: 0 20<86 274> 780 20<86 273>
VStem: 50 20<40 762> 290 20<40 762>
LayerCount: 2
Fore
SplineSet
310 0 m 1
 50 0 l 1
 50 800 l 1
 310 800 l 1
 310 0 l 1
190 401 m 1
 290 40 l 1
 290 762 l 1
 190 401 l 1
169 401 m 1
 70 762 l 1
 70 40 l 1
 169 401 l 1
180 362 m 1
 86 20 l 1
 274 20 l 1
 180 362 l 1
86 780 m 1
 180 440 l 1
 273 780 l 1
 86 780 l 1
EndSplineSet
Validated: 1
EndChar

StartChar: uni001E
Encoding: 30 30 202
Width: 360
Flags: W
HStem: 0 20<86 274> 780 20<86 273>
VStem: 50 20<40 762> 290 20<40 762>
LayerCount: 2
Fore
SplineSet
310 0 m 1
 50 0 l 1
 50 800 l 1
 310 800 l 1
 310 0 l 1
190 401 m 1
 290 40 l 1
 290 762 l 1
 190 401 l 1
169 401 m 1
 70 762 l 1
 70 40 l 1
 169 401 l 1
180 362 m 1
 86 20 l 1
 274 20 l 1
 180 362 l 1
86 780 m 1
 180 440 l 1
 273 780 l 1
 86 780 l 1
EndSplineSet
Validated: 1
EndChar

StartChar: uni001F
Encoding: 31 31 203
Width: 360
Flags: W
HStem: 0 20<86 274> 780 20<86 273>
VStem: 50 20<40 762> 290 20<40 762>
LayerCount: 2
Fore
SplineSet
310 0 m 1
 50 0 l 1
 50 800 l 1
 310 800 l 1
 310 0 l 1
190 401 m 1
 290 40 l 1
 290 762 l 1
 190 401 l 1
169 401 m 1
 70 762 l 1
 70 40 l 1
 169 401 l 1
180 362 m 1
 86 20 l 1
 274 20 l 1
 180 362 l 1
86 780 m 1
 180 440 l 1
 273 780 l 1
 86 780 l 1
EndSplineSet
Validated: 1
EndChar

StartChar: uni042D
Encoding: 1069 1069 205
Width: 245
Flags: W
HStem: -12 10<144.829 179.198> 345 10<18 44 112 142> 494 25<87.5 135.3> 585 10<18 48 112 142> 803 9<118.699 151.618>
VStem: 46 66<121.732 345 435 492.974 595 779.501> 158 64<41.0459 132.66 206.752 460 480 782.649> 184 44<14.5609 88.4819>
AnchorPoint: "Yerik" 182 858 basechar 0
AnchorPoint: "Diacritic" 132 858 basechar 0
LayerCount: 2
Fore
SplineSet
150 491 m 1xfe
 158 480 l 1
 158 787 l 2
 158 798 147 803 136 803 c 0
 124 803 112 798 112 787 c 2
 112 595 l 1
 142 595 l 1
 142 585 l 1
 18 585 l 1
 18 595 l 1
 48 595 l 1
 48 727 l 2
 48 774 89 812 136 812 c 0
 184 812 222 774 222 727 c 2
 222 287 l 2xfe
 222 250 213 228 200 205 c 0
 186 178 153 149 130 109 c 0
 120 91 118 73 116 55 c 0
 117 46 122 24 136 8 c 0
 144 2 153 -2 162 -2 c 0
 168 -2 174 0 180 3 c 0
 184 9 184 12 184 18 c 0
 184 34 178 47 170 61 c 0
 159 79 154 91 154 106 c 0
 154 121 161 138 180 138 c 0
 214 138 228 102 228 76 c 0xfd
 228 39 199 -12 162 -12 c 0
 116 -12 86 60 70 114 c 0
 47 196 45 294 44 345 c 1
 18 345 l 1
 18 355 l 1
 142 355 l 1
 142 345 l 1
 112 345 l 1
 112 93 l 1
 114 100 118 107 122 115 c 0
 143 154 158 198 158 260 c 2
 158 460 l 1
 148 476 l 2
 143 484 133 494 126 494 c 0
 115 494 112 485 112 474 c 2
 112 435 l 1
 46 435 l 1
 46 458 l 2
 46 505 77 519 98 519 c 0
 117 519 135 512 150 491 c 1xfe
EndSplineSet
Validated: 1
EndChar

StartChar: uni042F
Encoding: 1071 1071 206
Width: 360
Flags: W
HStem: 0 20<86 274> 780 20<86 273>
VStem: 50 20<40 762> 290 20<40 762>
LayerCount: 2
Fore
SplineSet
310 0 m 1
 50 0 l 1
 50 800 l 1
 310 800 l 1
 310 0 l 1
190 401 m 1
 290 40 l 1
 290 762 l 1
 190 401 l 1
169 401 m 1
 70 762 l 1
 70 40 l 1
 169 401 l 1
180 362 m 1
 86 20 l 1
 274 20 l 1
 180 362 l 1
86 780 m 1
 180 440 l 1
 273 780 l 1
 86 780 l 1
EndSplineSet
Validated: 1
EndChar

StartChar: uni0443
Encoding: 1091 1091 207
Width: 236
Flags: W
HStem: 0 10<65 108 118 160> 741 65<166.666 224> 790 10<5 32 97 130>
AnchorPoint: "Yerik" 182 858 basechar 0
AnchorPoint: "Diacritic" 122 858 basechar 0
LayerCount: 2
Fore
SplineSet
160 0 m 1xc0
 65 0 l 1
 65 10 l 1
 108 10 l 1
 125 332 l 1
 61 332 l 1
 32 790 l 1
 5 790 l 1
 5 800 l 1
 130 800 l 1
 130 790 l 1
 97 790 l 1xa0
 125 346 l 1
 145 715 l 2
 147 761 161 806 198 806 c 2
 224 806 l 1
 224 741 l 1
 194 741 l 2
 175 741 156 721 152 644 c 2
 118 10 l 1
 160 10 l 1
 160 0 l 1xc0
EndSplineSet
Validated: 1
EndChar

StartChar: uni044F
Encoding: 1103 1103 209
Width: 360
Flags: W
HStem: 0 20<86 274> 780 20<86 273>
VStem: 50 20<40 762> 290 20<40 762>
LayerCount: 2
Fore
SplineSet
310 0 m 1
 50 0 l 1
 50 800 l 1
 310 800 l 1
 310 0 l 1
190 401 m 1
 290 40 l 1
 290 762 l 1
 190 401 l 1
169 401 m 1
 70 762 l 1
 70 40 l 1
 169 401 l 1
180 362 m 1
 86 20 l 1
 274 20 l 1
 180 362 l 1
86 780 m 1
 180 440 l 1
 273 780 l 1
 86 780 l 1
EndSplineSet
Validated: 1
EndChar

StartChar: uni0450
Encoding: 1104 1104 210
Width: 245
Flags: W
HStem: -12 10<78.8018 113.171> 345 10<115 145 214 240> 494 25<121.997 170.5> 585 10<115 145 210 240> 803 9<106.365 137.97>
VStem: 30 43<14.9126 87.0227> 35 65<42.9051 131.969 206.752 460 480 782.649> 145 67<121.732 345 435 492.974 595 779.501>
AnchorPoint: "Yerik" 122 958 basechar 0
AnchorPoint: "Diacritic" 122 958 basechar 0
LayerCount: 2
Fore
SplineSet
107 491 m 1xfb
 122 512 141 519 160 519 c 0
 181 519 212 505 212 458 c 2
 212 435 l 1
 145 435 l 1
 145 474 l 2
 145 485 142 494 131 494 c 0
 124 494 115 484 110 476 c 2
 100 460 l 1
 100 260 l 2xfb
 100 198 115 154 136 115 c 0
 140 107 143 100 145 93 c 1
 145 345 l 1
 115 345 l 1
 115 355 l 1
 240 355 l 1
 240 345 l 1
 214 345 l 1
 213 294 211 196 188 114 c 0
 172 60 142 -12 96 -12 c 0
 59 -12 30 39 30 76 c 0
 30 102 44 138 78 138 c 0
 97 138 103 121 103 106 c 0
 103 91 99 79 88 61 c 0
 80 47 73 34 73 18 c 0xfd
 73 12 74 9 78 3 c 0
 84 0 90 -2 96 -2 c 0
 105 -2 114 2 122 8 c 0
 136 24 141 46 142 55 c 0
 140 73 137 91 127 109 c 0
 104 149 71 178 57 205 c 0
 44 228 35 250 35 287 c 2
 35 727 l 2
 35 774 74 812 122 812 c 0
 169 812 210 774 210 727 c 2
 210 595 l 1
 240 595 l 1
 240 585 l 1
 115 585 l 1
 115 595 l 1
 145 595 l 1
 145 787 l 2
 145 798 134 803 122 803 c 0
 111 803 100 798 100 787 c 2
 100 480 l 1
 107 491 l 1xfb
65 930 m 1
 190 880 l 1
 190 859 l 1
 65 909 l 1
 65 930 l 1
EndSplineSet
Validated: 1
LCarets2: 1 0
Ligature2: "'ccmp' Glyph Composition/Decomposition in Cyrillic-1" afii10070 gravecomb
EndChar

StartChar: uni0464
Encoding: 1124 1124 212
Width: 360
Flags: W
HStem: 0 20<86 274> 780 20<86 273>
VStem: 50 20<40 762> 290 20<40 762>
LayerCount: 2
Fore
SplineSet
310 0 m 1
 50 0 l 1
 50 800 l 1
 310 800 l 1
 310 0 l 1
190 401 m 1
 290 40 l 1
 290 762 l 1
 190 401 l 1
169 401 m 1
 70 762 l 1
 70 40 l 1
 169 401 l 1
180 362 m 1
 86 20 l 1
 274 20 l 1
 180 362 l 1
86 780 m 1
 180 440 l 1
 273 780 l 1
 86 780 l 1
EndSplineSet
Validated: 1
EndChar

StartChar: uni0465
Encoding: 1125 1125 213
Width: 360
Flags: W
HStem: 0 20<86 274> 780 20<86 273>
VStem: 50 20<40 762> 290 20<40 762>
LayerCount: 2
Fore
SplineSet
310 0 m 1
 50 0 l 1
 50 800 l 1
 310 800 l 1
 310 0 l 1
190 401 m 1
 290 40 l 1
 290 762 l 1
 190 401 l 1
169 401 m 1
 70 762 l 1
 70 40 l 1
 169 401 l 1
180 362 m 1
 86 20 l 1
 274 20 l 1
 180 362 l 1
86 780 m 1
 180 440 l 1
 273 780 l 1
 86 780 l 1
EndSplineSet
Validated: 1
EndChar

StartChar: uniA64C
Encoding: 42572 42572 214
Width: 355
Flags: W
HStem: -12 9<85.5963 108.187 246.813 269.404> 637 10<125 145 210 230> 788 24<72.5 128.567 226.729 282.5>
VStem: 35 65<49.3541 787.125> 35 42<4.87009 138.754> 134 10<736.078 781.781> 145 65<77.445 637> 211 10<736.078 782.25> 255 65<49.3541 787.125> 278 42<4.87009 138.754>
AnchorPoint: "Yerik" 282 858 basechar 0
AnchorPoint: "Diacritic" 176 858 basechar 0
LayerCount: 2
Fore
SplineSet
210 82 m 2xef
 210 32 242 -3 258 -3 c 0
 277 -3 278 16 278 34 c 0xef40
 278 68 259 121 255 151 c 1
 255 767 l 2
 255 784 247 788 238 788 c 0
 228 788 221 780 221 766 c 2
 221 741 l 2
 221 734 211 734 211 741 c 2
 211 758 l 2
 211 785 223 812 262 812 c 0
 303 812 320 774 320 727 c 2
 320 73 l 2
 320 26 304 -12 256 -12 c 0
 240 -12 214 4 196 38 c 0
 190 50 185 64 181 73 c 0
 180 74 177 75 177 76 c 2
 174 73 l 1
 170 64 165 50 159 38 c 0
 141 4 115 -12 99 -12 c 0
 51 -12 35 26 35 73 c 2
 35 727 l 2
 35 774 52 812 93 812 c 0
 132 812 144 786 144 758 c 2
 144 741 l 2
 144 734 134 734 134 741 c 2
 134 766 l 2
 134 780 127 788 117 788 c 0
 108 788 100 784 100 767 c 2
 100 151 l 1xf780
 96 121 77 68 77 34 c 0
 77 16 78 -3 97 -3 c 0
 113 -3 145 33 145 82 c 2
 145 637 l 1
 125 637 l 1
 125 647 l 1
 230 647 l 1
 230 637 l 1
 210 637 l 1
 210 82 l 2xef
EndSplineSet
Validated: 1
EndChar

StartChar: uniA64D
Encoding: 42573 42573 215
Width: 355
Flags: W
HStem: -12 9<85.5963 108.187 246.813 269.404> 637 10<125 145 210 230> 788 24<72.5 128.567 226.729 282.5>
VStem: 35 65<49.3541 787.125> 35 42<4.87009 138.754> 134 10<736.078 781.781> 145 65<77.445 637> 211 10<736.078 782.25> 255 65<49.3541 787.125> 278 42<4.87009 138.754>
AnchorPoint: "Yerik" 282 858 basechar 0
AnchorPoint: "Diacritic" 176 858 basechar 0
LayerCount: 2
Fore
SplineSet
210 82 m 2xef
 210 32 242 -3 258 -3 c 0
 277 -3 278 16 278 34 c 0xef40
 278 68 259 121 255 151 c 1
 255 767 l 2
 255 784 247 788 238 788 c 0
 228 788 221 780 221 766 c 2
 221 741 l 2
 221 734 211 734 211 741 c 2
 211 758 l 2
 211 785 223 812 262 812 c 0
 303 812 320 774 320 727 c 2
 320 73 l 2
 320 26 304 -12 256 -12 c 0
 240 -12 214 4 196 38 c 0
 190 50 185 64 181 73 c 0
 180 74 177 75 177 76 c 2
 174 73 l 1
 170 64 165 50 159 38 c 0
 141 4 115 -12 99 -12 c 0
 51 -12 35 26 35 73 c 2
 35 727 l 2
 35 774 52 812 93 812 c 0
 132 812 144 786 144 758 c 2
 144 741 l 2
 144 734 134 734 134 741 c 2
 134 766 l 2
 134 780 127 788 117 788 c 0
 108 788 100 784 100 767 c 2
 100 151 l 1xf780
 96 121 77 68 77 34 c 0
 77 16 78 -3 97 -3 c 0
 113 -3 145 33 145 82 c 2
 145 637 l 1
 125 637 l 1
 125 647 l 1
 230 647 l 1
 230 637 l 1
 210 637 l 1
 210 82 l 2xef
EndSplineSet
Validated: 1
EndChar

StartChar: uniA67C
Encoding: 42620 42620 216
Width: 0
Flags: W
HStem: 705 20<-142.22 -95.385>
VStem: -216 65<726.595 800> -86 64<726.595 800>
AnchorPoint: "Stack" -120 876 basemark 0
AnchorPoint: "Stack" -120 708 mark 0
AnchorPoint: "Diacritic" -119 702 mark 0
LayerCount: 2
Fore
SplineSet
-119 705 m 0
 -177 705 -216 727 -216 775 c 2
 -216 800 l 1
 -151 800 l 1
 -151 775 l 2
 -151 747 -146 725 -119 725 c 0
 -91 725 -86 747 -86 775 c 2
 -86 800 l 1
 -22 800 l 1
 -22 775 l 2
 -22 727 -61 705 -119 705 c 0
EndSplineSet
Validated: 1
EndChar

StartChar: uni0306
Encoding: 774 774 217
Width: 0
Flags: W
HStem: 807 8<-148.862 -121.138>
VStem: -195 43<822.746 872> -118 43<822.746 872>
AnchorPoint: "Stack" -137 916 basemark 0
AnchorPoint: "Stack" -137 808 mark 0
AnchorPoint: "Diacritic" -138 807 mark 0
LayerCount: 2
Fore
SplineSet
-135 807 m 0
 -168 807 -195 838 -195 864 c 2
 -195 872 l 1
 -152 872 l 1
 -152 826 l 2
 -152 817 -143 815 -135 815 c 0
 -127 815 -118 817 -118 826 c 2
 -118 872 l 1
 -75 872 l 1
 -75 864 l 2
 -75 838 -102 807 -135 807 c 0
EndSplineSet
Validated: 1
EndChar

StartChar: uni0308
Encoding: 776 776 218
Width: 0
Flags: W
HStem: 864 83
VStem: -253 183
AnchorPoint: "Stack" -146 997 basemark 0
AnchorPoint: "Stack" -139 864 mark 0
AnchorPoint: "Diacritic" -140 863 mark 0
LayerCount: 2
Fore
SplineSet
-166 870 m 1
 -166 864 l 1
 -207 864 l 1
 -253 941 l 1
 -253 947 l 1
 -212 947 l 1
 -166 870 l 1
-70 870 m 1
 -70 864 l 1
 -111 864 l 1
 -157 941 l 1
 -157 947 l 1
 -116 947 l 1
 -70 870 l 1
EndSplineSet
Validated: 1
EndChar

StartChar: uni030F
Encoding: 783 783 219
Width: 0
Flags: W
HStem: 838 83
VStem: -244 183
AnchorPoint: "Stack" -133 968 basemark 0
AnchorPoint: "Stack" -133 835 mark 0
AnchorPoint: "Diacritic" -133 837 mark 0
LayerCount: 2
Fore
SplineSet
-157 844 m 1
 -157 838 l 1
 -198 838 l 1
 -244 915 l 1
 -244 921 l 1
 -203 921 l 1
 -157 844 l 1
-61 844 m 1
 -61 838 l 1
 -102 838 l 1
 -148 915 l 1
 -148 921 l 1
 -107 921 l 1
 -61 844 l 1
EndSplineSet
Validated: 1
EndChar

StartChar: uni0487
Encoding: 1159 1159 220
Width: 1
Flags: W
HStem: 870 120
VStem: -233 51<890 939.479>
AnchorPoint: "Stack" -112 1043 basemark 0
AnchorPoint: "Stack" -112 864 mark 0
AnchorPoint: "Diacritic" -113 864 mark 0
LayerCount: 2
Fore
SplineSet
-228 884 m 1
 -230 887 -233 894 -233 901 c 0
 -233 911 -227 929 -221 940 c 0
 -215 947 -212 951 -204 955 c 0
 -165 974 -137 983 -101 990 c 0
 -96 991 -89 991 -86 988 c 0
 -47 957 34 899 59 884 c 0
 61 879 61 875 61 870 c 1
 7 870 l 1
 -24 888 -77 932 -113 956 c 0
 -122 959 -134 960 -146 960 c 0
 -159 960 -176 953 -182 945 c 0
 -185 938 -185 932 -185 924 c 0
 -185 912 -182 902 -182 894 c 2
 -182 890 l 1
 -228 884 l 1
EndSplineSet
Validated: 1
EndChar

StartChar: uni2DE10487
Encoding: 62689 62689 221
Width: 1
Flags: W
HStem: 840 12<-180.46 -170.532 -137 -121 -87.3194 -70.6895> 921 12<-178.797 -167 -136 -125 -95 -84.5396>
VStem: -233 51<891 944.673> -172 35<852 921> -121 29<852.286 877.577 878.752 921>
AnchorPoint: "Stack" -131 838 mark 0
AnchorPoint: "Stack" -131 1016 basemark 0
AnchorPoint: "Diacritic" -130 838 mark 0
LayerCount: 2
Fore
SplineSet
-74 840 m 2
 -176 840 l 2
 -182 840 -182 852 -176 852 c 2
 -172 852 l 1
 -167 866 -167 903 -167 921 c 1
 -174 921 l 2
 -180 921 -181 933 -174 933 c 2
 -89 933 l 2
 -83 933 -83 921 -89 921 c 2
 -95 921 l 1
 -95 913 -95 897 -92 882 c 0
 -91 870 -87 858 -86 852 c 1
 -74 852 l 2
 -70 852 -69 840 -74 840 c 2
-121 852 m 1
 -122 858 -124 869 -124 878 c 0
 -124 894 -125 913 -125 921 c 1
 -136 921 l 1
 -136 913 -136 896 -137 882 c 0
 -137 873 -137 857 -137 852 c 1
 -121 852 l 1
-229 884 m 1
 -230 887 -233 894 -233 901 c 0
 -233 922 -220 946 -205 955 c 0
 -166 975 -137 984 -102 990 c 0
 -97 991 -90 991 -86 988 c 0
 -47 957 34 899 59 885 c 1
 61 879 61 876 60 870 c 1
 7 870 l 1
 -25 888 -77 932 -113 956 c 0
 -122 959 -134 960 -147 960 c 0
 -160 960 -176 953 -183 945 c 0
 -186 938 -186 933 -186 924 c 0
 -186 912 -182 902 -182 894 c 2
 -182 891 l 1
 -229 884 l 1
EndSplineSet
Validated: 1
LCarets2: 1 0
Ligature2: "'ccmp' Glyph Composition/Decomposition in Cyrillic-1" uni2DE1 uni0487
EndChar

StartChar: uni2DE20487
Encoding: 62690 62690 222
Width: 1
Flags: W
HStem: 840 92<-170 -137> 905 27<-107 -98> 920 12<-137 -120>
VStem: -233 51<890 939.479> -170 33<840 920>
AnchorPoint: "Stack" -138 835 mark 0
AnchorPoint: "Stack" -138 1013 basemark 0
AnchorPoint: "Diacritic" -138 835 mark 0
LayerCount: 2
Fore
SplineSet
-89 920 m 1x38
 -98 905 l 1
 -107 905 l 1x58
 -120 920 l 1
 -137 920 l 1x38
 -137 840 l 1
 -170 840 l 1
 -170 932 l 1x98
 -89 932 l 1
 -89 920 l 1x38
-228 884 m 1
 -230 887 -233 894 -233 901 c 0
 -233 911 -227 929 -221 940 c 0
 -215 947 -212 951 -204 955 c 0
 -165 974 -137 983 -101 990 c 0
 -96 991 -89 991 -86 988 c 0
 -47 957 34 899 59 884 c 0
 61 879 61 875 61 870 c 1
 7 870 l 1
 -24 888 -77 932 -113 956 c 0
 -122 959 -134 960 -146 960 c 0
 -159 960 -176 953 -182 945 c 0
 -185 938 -185 932 -185 924 c 0
 -185 912 -182 902 -182 894 c 2
 -182 890 l 1
 -228 884 l 1
EndSplineSet
Validated: 1
LCarets2: 1 0
Ligature2: "'ccmp' Glyph Composition/Decomposition in Cyrillic-1" uni2DE2 uni0487
EndChar

StartChar: uni2DE90487
Encoding: 62697 62697 223
Width: 1
Flags: W
HStem: 840 86<-177 -142 -117 -85> 878 15<-142 -117> 884 70<-228.5 -190.452>
VStem: -237 51<890 944.673> -177 35<840 878 893 926> -117 32<840 878 893 927>
AnchorPoint: "Stack" -129 841 mark 0
AnchorPoint: "Stack" -129 1019 basemark 0
AnchorPoint: "Diacritic" -130 839 mark 0
LayerCount: 2
Fore
SplineSet
-177 926 m 1x9c
 -142 926 l 1x9c
 -142 893 l 1
 -117 893 l 1x5c
 -117 927 l 1
 -85 927 l 1
 -85 840 l 1
 -117 840 l 1x9c
 -117 878 l 1
 -142 878 l 1x5c
 -142 840 l 1
 -177 840 l 1
 -177 926 l 1x9c
-232 884 m 1x3c
 -234 887 -237 894 -237 900 c 0
 -237 920 -224 948 -208 954 c 0
 -169 974 -141 983 -105 990 c 0
 -100 990 -93 990 -90 987 c 0
 -51 957 30 899 55 884 c 0
 57 879 57 875 57 870 c 1
 3 870 l 1
 -28 888 -81 932 -117 956 c 0
 -126 959 -138 960 -150 960 c 0
 -163 960 -180 953 -186 945 c 0
 -189 938 -189 932 -189 924 c 0
 -189 912 -186 902 -186 894 c 2
 -186 890 l 1
 -232 884 l 1x3c
EndSplineSet
Validated: 1
LCarets2: 1 0
Ligature2: "'ccmp' Glyph Composition/Decomposition in Cyrillic-1" uni2DE9 uni0487
EndChar

StartChar: uni2DEA0487
Encoding: 62698 62698 224
Width: 1
Flags: W
HStem: 840 12<-145.888 -121.57> 885 70<-241.5 -203.452> 921 12<-145.277 -121.893>
VStem: -250 51<891 944.719> -187 36<852.7 920.25> -115 33<852.7 920.25>
AnchorPoint: "Stack" -134 838 mark 0
AnchorPoint: "Stack" -134 1016 basemark 0
AnchorPoint: "Diacritic" -134 838 mark 0
LayerCount: 2
Fore
SplineSet
-133 852 m 0xbc
 -124 852 -115 861 -115 876 c 2
 -115 897 l 2
 -115 909 -124 921 -133 921 c 0
 -145 921 -151 909 -151 897 c 2
 -151 876 l 2
 -151 861 -145 852 -133 852 c 0xbc
-133 933 m 0
 -106 933 -82 915 -82 885 c 0
 -82 855 -103 840 -133 840 c 0
 -164 840 -187 855 -187 885 c 0xdc
 -187 915 -163 933 -133 933 c 0
-245 885 m 1
 -247 888 -250 894 -250 901 c 0
 -250 923 -237 947 -221 955 c 0
 -182 975 -154 984 -118 990 c 0
 -113 991 -106 991 -103 988 c 0
 -64 957 17 900 42 885 c 1
 44 879 44 876 44 870 c 1
 -10 870 l 1
 -41 888 -94 933 -130 957 c 0
 -139 960 -151 960 -163 960 c 0
 -176 960 -193 954 -199 945 c 0
 -202 939 -202 933 -202 924 c 0
 -202 912 -199 903 -199 894 c 2
 -199 891 l 1
 -245 885 l 1
EndSplineSet
Validated: 1
LCarets2: 1 0
Ligature2: "'ccmp' Glyph Composition/Decomposition in Cyrillic-1" uni2DEA uni0487
EndChar

StartChar: uni2DEC0487
Encoding: 62700 62700 225
Width: 1
Flags: W
HStem: 875 12<-188.694 -163.852> 920 13<-190.105 -163.253>
VStem: -292 52<891 944.673> -228 33<846.678 882 887.114 919.715> -159 32<887.39 919.876>
AnchorPoint: "Stack" -180 835 mark 0
AnchorPoint: "Stack" -180 1013 basemark 0
AnchorPoint: "Diacritic" -181 837 mark 0
LayerCount: 2
Fore
SplineSet
-231 838 m 1
 -229 843 -228 847 -228 857 c 0
 -228 872 -228 888 -228 899 c 0
 -228 914 -202 933 -177 933 c 0
 -153 933 -127 917 -127 900 c 0
 -127 884 -141 875 -168 875 c 0
 -174 875 -190 877 -195 882 c 1
 -195 852 l 2
 -195 843 -231 838 -231 838 c 1
-193 903 m 0
 -193 897 -187 887 -177 887 c 0
 -168 887 -159 894 -159 904 c 0
 -159 911 -166 920 -177 920 c 0
 -189 920 -193 912 -193 903 c 0
-288 884 m 1
 -289 887 -292 894 -292 901 c 0
 -292 921 -279 946 -264 955 c 0
 -225 975 -195 984 -162 990 c 0
 -156 991 -150 991 -145 988 c 0
 -105 957 -24 899 0 885 c 1
 2 879 2 876 0 870 c 1
 -52 870 l 1
 -84 888 -135 932 -172 956 c 0
 -181 959 -193 960 -207 960 c 0
 -219 960 -235 953 -243 945 c 0
 -246 938 -246 933 -246 924 c 0
 -246 912 -240 902 -240 894 c 2
 -240 891 l 1
 -288 884 l 1
EndSplineSet
Validated: 1
LCarets2: 1 0
Ligature2: "'ccmp' Glyph Composition/Decomposition in Cyrillic-1" uni2DEC uni0487
EndChar

StartChar: uni2DED0487
Encoding: 62701 62701 226
Width: 1
Flags: W
HStem: 837 20<-137 -115.075> 913 17<-134.729 -111>
VStem: -245 52<888 944.626> -171 32<857 912.41>
AnchorPoint: "Stack" -141 833 mark 0
AnchorPoint: "Stack" -141 1011 basemark 0
AnchorPoint: "Diacritic" -138 831 mark 0
LayerCount: 2
Fore
SplineSet
-164 837 m 0
 -167 837 -167 839 -167 842 c 0
 -167 846 -167 852 -167 857 c 0
 -167 871 -171 882 -171 896 c 0
 -171 919 -145 929 -128 930 c 0
 -123 931 -112 929 -111 929 c 1
 -111 926 -111 917 -111 912 c 1
 -113 912 -116 913 -118 913 c 0
 -134 913 -139 903 -139 888 c 0
 -139 876 -137 866 -137 857 c 1
 -127 856 -122 858 -114 864 c 0
 -111 865 -108 854 -109 854 c 0
 -117 838 -141 837 -164 837 c 0
-241 883 m 1
 -243 886 -245 892 -245 899 c 0
 -245 919 -232 945 -217 954 c 0
 -177 973 -148 983 -112 990 c 0
 -107 990 -100 990 -96 987 c 0
 -56 956 26 898 50 882 c 0
 53 877 53 873 52 869 c 1
 -2 869 l 1
 -35 887 -87 931 -124 956 c 0
 -133 959 -145 960 -158 960 c 0
 -171 960 -187 952 -194 945 c 0
 -198 937 -198 930 -198 923 c 0
 -198 910 -193 901 -193 892 c 2
 -193 888 l 1
 -241 883 l 1
EndSplineSet
Validated: 1
LCarets2: 1 0
Ligature2: "'ccmp' Glyph Composition/Decomposition in Cyrillic-1" uni2DED uni0487
EndChar

StartChar: uni2DF10487
Encoding: 62705 62705 227
Width: 1
Flags: W
HStem: 840 87<-125 -92> 876 17<-142.669 -125> 884 70<-235.5 -197.456>
VStem: -244 51<890 944.673> -185 36<897.287 926> -125 33<840 840 893 927>
AnchorPoint: "Stack" -138 843 mark 0
AnchorPoint: "Stack" -138 1021 basemark 0
AnchorPoint: "Diacritic" -137 842 mark 0
LayerCount: 2
Fore
SplineSet
-185 926 m 1x5c
 -149 926 l 1
 -151 917 -149 903 -143 897 c 0
 -136 891 -125 893 -125 893 c 1x5c
 -125 927 l 1
 -92 927 l 1
 -92 840 l 1
 -125 840 l 1x9c
 -125 876 l 1
 -125 876 -136 875 -154 882 c 0
 -170 888 -185 899 -185 926 c 1x5c
-239 884 m 1x3c
 -241 887 -244 894 -244 900 c 0
 -244 920 -231 948 -215 954 c 0
 -176 974 -148 983 -113 990 c 0
 -107 990 -101 990 -97 987 c 0
 -58 957 23 899 48 884 c 0
 50 879 50 875 49 870 c 1
 -4 870 l 1
 -35 888 -88 932 -124 956 c 0
 -133 959 -145 960 -158 960 c 0
 -170 960 -187 953 -194 945 c 0
 -197 938 -197 932 -197 924 c 0
 -197 912 -193 902 -193 894 c 2
 -193 890 l 1
 -239 884 l 1x3c
EndSplineSet
Validated: 1
LCarets2: 1 0
Ligature2: "'ccmp' Glyph Composition/Decomposition in Cyrillic-1" uni2DF1 uni0487
EndChar

StartChar: uniA673
Encoding: 42611 42611 228
Width: 249
Flags: W
HStem: 590 222
VStem: 13 222
LayerCount: 2
Fore
SplineSet
235 702 m 1
 175 680 l 1
 204 622 l 1
 146 650 l 1
 124 590 l 1
 103 650 l 1
 46 622 l 1
 73 680 l 1
 13 702 l 1
 72 723 l 1
 45 780 l 1
 103 752 l 1
 124 812 l 1
 146 752 l 1
 204 780 l 1
 175 723 l 1
 235 702 l 1
206 702 m 1
 162 717 l 1
 183 760 l 1
 140 740 l 1
 124 783 l 1
 108 739 l 1
 66 759 l 1
 86 717 l 1
 43 702 l 1
 87 685 l 1
 66 643 l 1
 108 663 l 1
 124 620 l 1
 140 663 l 1
 183 643 l 1
 162 685 l 1
 206 702 l 1
EndSplineSet
Validated: 1
EndChar

StartChar: uniE005
Encoding: 57349 57349 230
Width: 0
GlyphClass: 4
Flags: W
HStem: 879 30<-198.779 -151.981>
VStem: -294 52<850 905.626> -223 22<835.668 874.536> -148 21<835.154 872.115>
AnchorPoint: "Stack" -178 1003 basemark 0
AnchorPoint: "Stack" -178 825 mark 0
AnchorPoint: "Diacritic" -175 824 mark 0
LayerCount: 2
Fore
SplineSet
-289 846 m 1
 -291 849 -294 854 -294 861 c 0
 -294 871 -285 889 -277 899 c 0
 -273 906 -268 912 -261 916 c 0
 -223 935 -177 951 -142 955 c 0
 -137 956 -130 956 -127 953 c 0
 -87 922 -28 861 -4 844 c 0
 -2 839 -2 835 -3 830 c 1
 -56 830 l 1
 -87 849 -117 899 -154 923 c 0
 -159 925 -169 925 -179 925 c 0
 -187 925 -195 925 -201 924 c 0
 -211 922 -229 912 -237 906 c 1
 -241 898 -244 891 -245 885 c 0
 -246 874 -243 860 -242 854 c 1
 -242 850 l 1
 -289 846 l 1
-154 829 m 1
 -150 837 -148 842 -148 851 c 0
 -148 864 -160 879 -175 879 c 0
 -192 879 -201 867 -201 855 c 0
 -201 843 -196 833 -194 829 c 1
 -203 826 l 1
 -212 833 -223 849 -223 866 c 0
 -223 888 -205 909 -178 909 c 0
 -151 909 -127 885 -127 864 c 0
 -127 849 -139 831 -145 826 c 1
 -154 829 l 1
EndSplineSet
Validated: 1
LCarets2: 1 0
Ligature2: "'ccmp' Glyph Composition/Decomposition in Cyrillic-1" uni0486 uni0311
EndChar

StartChar: uni2DEE
Encoding: 11758 11758 231
Width: 0
Flags: W
HStem: 801 72<-179 -114> 863 10<-225.86 -179 -114 -67.3052>
VStem: -280 55<819.718 862.672> -179 65<801 863> -68 55<818.453 862.672>
CounterMasks: 1 38
AnchorPoint: "Diacritic" -148 801 mark 0
LayerCount: 2
Fore
SplineSet
-4 868 m 1x78
 -8 863 -13 837 -13 828 c 0
 -13 817 -11 804 -8 797 c 1
 -12 794 l 1
 -36 798 -66 839 -68 863 c 1
 -114 863 l 1x78
 -114 801 l 1
 -179 801 l 1xb8
 -179 863 l 1
 -225 863 l 1
 -228 839 -257 798 -281 794 c 1
 -285 797 l 1
 -282 804 -280 817 -280 828 c 0
 -280 837 -285 863 -289 868 c 1
 -289 873 l 1
 -4 873 l 1
 -4 868 l 1x78
EndSplineSet
EndChar
